<svg width="566" height="160" viewBox="0 0 566 160" fill="none" xmlns="http://www.w3.org/2000/svg">
<path fill-rule="evenodd" clip-rule="evenodd" d="M276 4.00225C276 1.79311 277.791 0.00224876 280 0.00224876H304.266C306.633 0.00224876 308.878 1.05027 310.398 2.86445L424.934 139.566C427.333 142.43 432 140.733 432 136.998V36.0045C432 33.7954 430.209 32.0045 428 32.0045H364C361.791 32.0045 360 30.2136 360 28.0045V4.00563C360 1.79649 361.791 0.00563043 364 0.00563043H532C534.209 0.00563043 536 1.79649 536 4.00563V28.0045C536 30.2136 534.209 32.0045 532 32.0045H468C465.791 32.0045 464 33.7954 464 36.0045V156C464 158.209 462.209 160 460 160H432.003C432.001 160 432 159.999 432 159.997V159.997C432 159.996 431.999 159.994 431.997 159.994H403.738C401.369 159.994 399.122 158.944 397.602 157.127L315.068 58.4507C312.67 55.5838 308 57.2794 308 61.017V155.994C308 158.204 306.209 159.994 304 159.994H279.738C277.369 159.994 275.122 158.944 273.602 157.127L191.068 58.4507C188.67 55.5838 184 57.2794 184 61.017V155.994C184 158.204 182.209 159.994 180 159.994H114.806C112.989 159.994 111.227 159.376 109.809 158.242L38.4905 101.199C35.8713 99.1046 31.992 100.969 31.992 104.323V155.994C31.992 158.204 30.2011 159.994 27.992 159.994H4C1.79086 159.994 0 158.204 0 155.994V4C0 1.79086 1.79086 0 4 0H27.992C30.2011 0 31.992 1.79086 31.992 4V55.6809C31.992 59.0348 35.8716 60.8996 38.4907 58.8045L109.809 1.75508C111.227 0.620414 112.99 0.00224876 114.806 0.00224876H182.131C183.315 0.00224876 184.439 0.527321 185.199 1.436L268.932 101.549C271.33 104.416 276 102.72 276 98.9827V4.00225ZM67.9354 83.1304C65.9222 81.529 65.9222 78.471 67.9354 76.8696L145.51 15.1626C148.131 13.0778 152 14.9441 152 18.293V141.707C152 145.056 148.131 146.922 145.51 144.837L67.9354 83.1304Z" fill="white"/>
<rect x="534" y="128" width="32" height="32" rx="4" fill="#DB1508"/>
</svg>
