<svg xmlns="http://www.w3.org/2000/svg" xmlns:xlink="http://www.w3.org/1999/xlink" width="140" zoomAndPan="magnify" viewBox="0 0 104.88 30.000001" height="40" preserveAspectRatio="xMidYMid meet" version="1.0"><defs><clipPath id="d040cf6eda"><path d="M 40.054688 2.902344 L 64.730469 2.902344 L 64.730469 26.128906 L 40.054688 26.128906 Z M 40.054688 2.902344 " clip-rule="nonzero"/></clipPath><clipPath id="da0c2fad48"><path d="M 65 14 L 101 14 L 101 16 L 65 16 Z M 65 14 " clip-rule="nonzero"/></clipPath><clipPath id="5a218ce904"><path d="M 65.371094 14.695312 L 100.910156 13.425781 L 100.964844 14.878906 L 65.421875 16.148438 Z M 65.371094 14.695312 " clip-rule="nonzero"/></clipPath><clipPath id="28c8998b4d"><path d="M 65.371094 14.695312 L 100.910156 13.425781 L 100.964844 14.878906 L 65.421875 16.148438 Z M 65.371094 14.695312 " clip-rule="nonzero"/></clipPath><clipPath id="efe76afd5e"><path d="M 65.371094 14.695312 L 100.910156 13.425781 L 100.964844 14.878906 L 65.421875 16.148438 Z M 65.371094 14.695312 " clip-rule="nonzero"/></clipPath><clipPath id="5e5fb8f419"><path d="M 65.699219 14.683594 L 100.609375 13.4375 L 100.664062 14.894531 L 65.75 16.140625 Z M 65.699219 14.683594 " clip-rule="nonzero"/></clipPath><clipPath id="be203a0f90"><path d="M 65.699219 14.683594 L 100.582031 13.4375 L 100.632812 14.890625 L 65.75 16.136719 Z M 65.699219 14.683594 " clip-rule="nonzero"/></clipPath><clipPath id="48a5ff8b40"><path d="M 2.695312 14.304688 L 39.078125 14.304688 L 39.078125 15.757812 L 2.695312 15.757812 Z M 2.695312 14.304688 " clip-rule="nonzero"/></clipPath></defs><g clip-path="url(#d040cf6eda)"><path fill="#000000" d="M 51.960938 2.929688 C 53.421875 2.964844 54.640625 3.105469 55.820312 3.480469 C 58.957031 4.46875 61.398438 6.339844 63.054688 9.183594 C 63.777344 10.425781 64.222656 11.769531 64.394531 13.191406 C 64.726562 15.992188 64.082031 18.570312 62.460938 20.875 C 60.648438 23.457031 58.160156 25.066406 55.074219 25.757812 C 54.320312 25.925781 53.554688 26.019531 52.785156 26.039062 C 49.132812 26.128906 45.480469 24.683594 42.953125 21.835938 C 41.578125 20.289062 40.679688 18.503906 40.289062 16.472656 C 40.113281 15.554688 40.058594 14.632812 40.117188 13.695312 C 40.328125 10.234375 42.292969 6.636719 46.125 4.5625 C 46.519531 4.351562 46.925781 4.164062 47.339844 3.992188 C 47.894531 3.761719 48.460938 3.550781 49.027344 3.347656 C 49.546875 3.160156 50.082031 3.042969 50.632812 2.972656 C 51.152344 2.902344 51.671875 2.929688 51.960938 2.929688 Z M 52.398438 25.515625 C 52.800781 25.5 53.167969 25.492188 53.53125 25.464844 C 53.808594 25.445312 54.085938 25.402344 54.367188 25.359375 C 55.789062 25.148438 57.132812 24.695312 58.394531 24.007812 C 62.101562 21.992188 63.902344 18.46875 64.09375 15.304688 C 64.160156 14.25 64.09375 13.210938 63.851562 12.1875 C 63.097656 9.007812 61.285156 6.589844 58.460938 4.9375 C 56.4375 3.75 54.222656 3.261719 51.886719 3.273438 C 51.648438 3.273438 51.40625 3.296875 51.171875 3.320312 C 50.902344 3.347656 50.628906 3.367188 50.367188 3.425781 C 49.441406 3.628906 48.542969 3.925781 47.660156 4.261719 C 47.320312 4.390625 47.007812 4.582031 46.683594 4.75 C 45.964844 5.128906 45.273438 5.546875 44.648438 6.070312 C 44.097656 6.53125 43.570312 7.019531 43.117188 7.574219 C 42.53125 8.289062 42.003906 9.046875 41.550781 9.855469 C 41.460938 10.015625 41.378906 10.1875 41.3125 10.359375 C 40.5625 12.257812 40.367188 14.214844 40.75 16.214844 C 41.207031 18.621094 42.359375 20.664062 44.167969 22.320312 C 46.496094 24.460938 49.28125 25.472656 52.398438 25.515625 Z M 52.398438 25.515625 " fill-opacity="1" fill-rule="evenodd"/></g><path fill="#000000" d="M 52.019531 14.496094 C 51.910156 14.128906 51.25 11.886719 51.03125 11.132812 C 50.972656 10.917969 50.878906 10.730469 50.71875 10.570312 C 50.464844 10.324219 50.222656 10.070312 49.972656 9.820312 C 49.875 9.726562 49.769531 9.640625 49.675781 9.542969 C 49.542969 9.410156 49.53125 9.339844 49.636719 9.191406 C 49.785156 8.992188 49.902344 8.773438 50 8.542969 C 50.023438 8.492188 50.074219 8.429688 50.125 8.417969 C 50.335938 8.378906 50.503906 8.265625 50.671875 8.144531 C 50.679688 8.136719 50.691406 8.140625 50.730469 8.140625 C 50.816406 8.253906 50.910156 8.382812 51.015625 8.515625 C 51.066406 8.480469 51.097656 8.457031 51.128906 8.433594 C 51.324219 8.285156 51.394531 8.296875 51.515625 8.503906 C 51.550781 8.566406 51.574219 8.636719 51.59375 8.707031 C 51.660156 8.953125 51.726562 9.203125 51.792969 9.457031 C 51.824219 9.578125 51.871094 9.6875 51.941406 9.792969 C 52.203125 10.191406 52.460938 10.59375 52.71875 10.992188 C 52.734375 11.019531 52.738281 11.054688 52.773438 11.066406 C 52.714844 10.800781 52.742188 10.558594 52.816406 10.316406 C 52.863281 10.160156 52.902344 9.996094 52.949219 9.839844 C 52.988281 9.703125 53.0625 9.597656 53.1875 9.527344 C 53.320312 9.449219 53.449219 9.363281 53.578125 9.285156 C 53.683594 9.332031 53.691406 9.421875 53.710938 9.496094 C 53.839844 10.070312 53.976562 10.644531 54.097656 11.222656 C 54.421875 12.742188 54.84375 14.234375 55.300781 15.71875 C 55.320312 15.789062 55.347656 15.851562 55.367188 15.910156 C 55.46875 15.925781 55.484375 15.851562 55.519531 15.804688 C 55.933594 15.300781 56.347656 14.792969 56.757812 14.285156 C 56.871094 14.144531 57.011719 14.042969 57.179688 13.980469 C 57.472656 13.875 57.761719 13.757812 58.054688 13.652344 C 58.117188 13.628906 58.191406 13.628906 58.257812 13.621094 C 58.273438 13.75 58.1875 13.808594 58.128906 13.875 C 57.78125 14.261719 57.433594 14.648438 57.082031 15.03125 C 56.058594 16.148438 55.078125 17.300781 54.21875 18.550781 C 54.183594 18.601562 54.152344 18.652344 54.125 18.695312 C 54.171875 18.785156 54.246094 18.769531 54.296875 18.753906 C 54.375 18.730469 54.449219 18.691406 54.519531 18.648438 C 54.550781 18.628906 54.570312 18.585938 54.589844 18.550781 C 54.992188 17.902344 55.496094 17.335938 56.003906 16.773438 C 56.332031 16.414062 56.675781 16.066406 57.015625 15.71875 C 57.09375 15.636719 57.164062 15.542969 57.28125 15.511719 C 57.328125 15.546875 57.3125 15.585938 57.285156 15.617188 C 57.1875 15.738281 57.089844 15.859375 56.984375 15.976562 C 56.582031 16.421875 56.171875 16.863281 55.773438 17.3125 C 55.464844 17.664062 55.171875 18.027344 54.871094 18.382812 C 54.828125 18.4375 54.789062 18.5 54.71875 18.59375 C 54.824219 18.578125 54.882812 18.574219 54.9375 18.558594 C 55.445312 18.410156 55.953125 18.253906 56.460938 18.105469 C 56.566406 18.074219 56.671875 18.023438 56.8125 18.078125 C 56.625 18.304688 56.34375 18.40625 56.203125 18.683594 C 56.375 18.636719 56.503906 18.546875 56.636719 18.480469 C 56.785156 18.40625 56.933594 18.328125 57.082031 18.253906 C 57.21875 18.1875 57.351562 18.105469 57.503906 18.085938 C 57.546875 18.152344 57.5 18.171875 57.46875 18.191406 C 57.359375 18.269531 57.246094 18.34375 57.128906 18.410156 C 56.007812 19.023438 54.882812 19.632812 53.761719 20.242188 C 53.628906 20.3125 53.496094 20.398438 53.277344 20.4375 C 53.351562 20.359375 53.378906 20.320312 53.417969 20.296875 C 53.59375 20.183594 53.765625 20.070312 53.945312 19.96875 C 54.46875 19.667969 54.992188 19.371094 55.519531 19.074219 C 55.578125 19.042969 55.632812 19.007812 55.671875 18.933594 C 55.601562 18.964844 53.277344 20.019531 52.1875 20.507812 C 51.617188 20.761719 51.0625 21.042969 50.523438 21.363281 C 50.292969 21.5 50.054688 21.625 49.816406 21.753906 C 49.570312 21.886719 49.324219 21.902344 49.070312 21.769531 C 48.96875 21.71875 48.867188 21.675781 48.746094 21.621094 C 48.773438 21.550781 48.789062 21.492188 48.820312 21.441406 C 48.898438 21.308594 49.003906 21.1875 49.0625 21.046875 C 49.148438 20.839844 49.296875 20.714844 49.496094 20.628906 C 50.144531 20.347656 51.539062 19.722656 51.65625 19.667969 C 51.242188 19.660156 50.902344 19.667969 50.5625 19.648438 C 50.210938 19.628906 49.859375 19.582031 49.507812 19.539062 C 49.167969 19.5 48.832031 19.449219 48.488281 19.402344 C 48.472656 19.335938 48.453125 19.285156 48.449219 19.238281 C 48.441406 19.019531 48.480469 18.804688 48.542969 18.59375 C 48.566406 18.507812 48.621094 18.421875 48.683594 18.359375 C 48.859375 18.199219 49.042969 18.050781 49.234375 17.886719 C 50.761719 18.386719 52.300781 18.753906 53.921875 18.757812 C 54.066406 18.535156 54.210938 18.324219 54.347656 18.105469 C 54.675781 17.574219 55.007812 17.046875 55.386719 16.554688 C 55.417969 16.515625 55.433594 16.464844 55.457031 16.417969 C 55.519531 16.359375 55.582031 16.308594 55.632812 16.246094 C 56.09375 15.695312 56.582031 15.171875 57.089844 14.671875 C 57.296875 14.464844 57.507812 14.265625 57.714844 14.0625 C 57.738281 14.035156 57.789062 14.007812 57.734375 13.957031 C 57.539062 14.042969 57.335938 14.125 57.140625 14.21875 C 57.050781 14.265625 56.960938 14.328125 56.894531 14.402344 C 56.402344 14.976562 55.914062 15.554688 55.4375 16.121094 C 55.449219 16.238281 55.457031 16.328125 55.464844 16.421875 C 55.382812 16.402344 55.34375 16.347656 55.3125 16.277344 C 55.277344 16.191406 55.242188 16.109375 55.191406 16 C 55.136719 16.113281 55.089844 16.203125 55.042969 16.296875 C 54.839844 16.261719 54.722656 16.113281 54.601562 15.976562 C 54.550781 15.925781 54.519531 15.855469 54.484375 15.792969 C 54.28125 15.457031 54.082031 15.117188 53.882812 14.777344 C 53.457031 14.039062 52.96875 13.34375 52.441406 12.675781 C 52.417969 12.640625 52.386719 12.613281 52.359375 12.585938 C 52.289062 12.625 52.335938 12.675781 52.335938 12.71875 C 52.339844 12.761719 52.347656 12.800781 52.359375 12.84375 C 52.449219 13.226562 52.539062 13.605469 52.625 13.992188 C 52.683594 14.242188 52.738281 14.496094 52.785156 14.75 C 52.820312 14.957031 52.921875 15.105469 53.089844 15.234375 C 53.328125 15.417969 53.550781 15.617188 53.777344 15.816406 C 53.839844 15.867188 53.882812 15.9375 53.953125 16.019531 C 53.886719 16.039062 53.851562 16.054688 53.8125 16.058594 C 53.617188 16.082031 53.421875 16.097656 53.226562 16.125 C 53.042969 16.148438 52.875 16.113281 52.714844 16.027344 C 52.246094 15.78125 51.085938 15.183594 50.984375 15.132812 C 50.921875 15.1875 50.957031 15.222656 50.976562 15.253906 C 51.300781 15.746094 51.632812 16.238281 51.953125 16.734375 C 52.039062 16.863281 52.148438 16.933594 52.296875 16.976562 C 52.585938 17.058594 52.871094 17.164062 53.160156 17.242188 C 53.371094 17.296875 53.542969 17.398438 53.6875 17.554688 C 53.777344 17.652344 53.894531 17.726562 53.960938 17.871094 C 53.914062 17.902344 53.875 17.933594 53.828125 17.949219 C 53.621094 18.019531 53.414062 18.085938 53.207031 18.148438 C 53.03125 18.199219 52.855469 18.179688 52.679688 18.15625 C 52.144531 18.078125 51.605469 18.011719 51.074219 17.914062 C 50.628906 17.828125 50.179688 17.722656 49.742188 17.589844 C 49.015625 17.375 48.308594 17.101562 47.613281 16.789062 C 47.234375 16.617188 47.234375 16.613281 47.089844 16.234375 C 47.023438 16.0625 46.964844 15.886719 46.90625 15.71875 C 47.050781 15.484375 47.34375 15.191406 47.566406 15.050781 C 47.699219 15.066406 47.808594 15.148438 47.925781 15.214844 C 48.792969 15.691406 49.683594 16.109375 50.625 16.429688 C 50.691406 16.453125 50.761719 16.476562 50.832031 16.5 C 50.847656 16.503906 50.871094 16.503906 50.890625 16.503906 C 50.949219 16.433594 50.882812 16.386719 50.851562 16.34375 C 50.519531 15.84375 49.613281 14.503906 49.503906 14.328125 C 49.449219 14.238281 49.382812 14.164062 49.296875 14.101562 C 48.101562 13.269531 46.992188 12.328125 45.890625 11.378906 C 45.796875 11.296875 45.699219 11.21875 45.609375 11.136719 C 45.542969 11.074219 45.515625 11 45.542969 10.910156 C 45.566406 10.832031 45.589844 10.75 45.621094 10.675781 C 45.710938 10.421875 45.804688 10.167969 45.898438 9.914062 C 45.921875 9.847656 45.949219 9.78125 45.988281 9.71875 C 46.035156 9.632812 46.121094 9.621094 46.195312 9.691406 C 46.277344 9.769531 46.351562 9.855469 46.425781 9.941406 C 46.949219 10.550781 47.546875 11.078125 48.136719 11.628906 C 48.1875 11.558594 48.132812 11.523438 48.109375 11.488281 C 47.898438 11.144531 47.683594 10.804688 47.46875 10.460938 C 47.398438 10.355469 47.363281 10.242188 47.351562 10.113281 C 47.335938 9.957031 47.308594 9.804688 47.289062 9.652344 C 47.28125 9.601562 47.269531 9.546875 47.277344 9.496094 C 47.285156 9.460938 47.308594 9.414062 47.339844 9.402344 C 47.367188 9.386719 47.417969 9.402344 47.449219 9.417969 C 47.484375 9.4375 47.511719 9.476562 47.535156 9.507812 C 47.699219 9.75 47.875 9.980469 48.019531 10.234375 C 48.460938 11.007812 48.890625 11.789062 49.328125 12.5625 C 49.371094 12.644531 49.429688 12.722656 49.5 12.777344 C 50.277344 13.386719 51.089844 13.949219 51.933594 14.460938 C 51.960938 14.476562 51.992188 14.480469 52.023438 14.492188 C 52.214844 14.640625 52.417969 14.773438 52.648438 14.875 C 52.667969 14.769531 52.660156 14.691406 52.605469 14.625 C 52.59375 14.640625 52.582031 14.660156 52.570312 14.671875 C 52.566406 14.675781 52.550781 14.671875 52.511719 14.671875 C 52.320312 14.085938 52.191406 13.476562 52.117188 12.851562 C 52.160156 12.894531 52.191406 12.941406 52.210938 12.992188 C 52.257812 13.097656 52.296875 13.199219 52.339844 13.304688 C 52.351562 13.351562 52.316406 13.410156 52.402344 13.457031 C 52.375 13.390625 52.355469 13.351562 52.335938 13.308594 C 52.324219 12.996094 52.238281 12.695312 52.164062 12.398438 C 52.136719 12.300781 52.078125 12.210938 52.015625 12.128906 C 51.800781 11.851562 51.578125 11.578125 51.355469 11.304688 C 51.328125 11.273438 51.308594 11.207031 51.234375 11.246094 C 51.257812 11.304688 51.273438 11.363281 51.296875 11.421875 C 51.613281 12.273438 51.878906 13.140625 52.070312 14.03125 C 52.09375 14.132812 52.109375 14.234375 52.128906 14.335938 C 52.144531 14.425781 52.09375 14.46875 52.019531 14.496094 Z M 54.082031 19.027344 C 54.023438 19.046875 53.960938 19.070312 53.902344 19.089844 C 53.859375 19.109375 53.816406 19.132812 53.773438 19.152344 C 53.671875 19.175781 53.570312 19.191406 53.472656 19.226562 C 53.175781 19.324219 52.882812 19.433594 52.585938 19.53125 C 51.542969 19.882812 50.53125 20.320312 49.519531 20.757812 C 49.398438 20.8125 49.316406 20.878906 49.273438 21.011719 C 49.238281 21.117188 49.164062 21.210938 49.109375 21.308594 C 49.089844 21.34375 49.050781 21.375 49.109375 21.421875 C 49.15625 21.394531 49.210938 21.363281 49.261719 21.332031 C 50.066406 20.832031 50.898438 20.386719 51.769531 20.007812 C 52.3125 19.773438 52.863281 19.550781 53.40625 19.320312 C 53.53125 19.269531 53.648438 19.207031 53.769531 19.148438 C 53.8125 19.128906 53.855469 19.105469 53.898438 19.085938 C 53.957031 19.066406 54.019531 19.042969 54.078125 19.023438 C 54.089844 19.015625 54.105469 19.011719 54.113281 19.007812 C 54.105469 19.011719 54.09375 19.019531 54.082031 19.027344 Z M 54.652344 14.355469 C 54.660156 14.382812 54.664062 14.414062 54.660156 14.386719 C 54.667969 14.414062 54.660156 14.386719 54.652344 14.359375 C 54.628906 14.296875 54.546875 14.050781 54.527344 13.988281 C 54.507812 13.917969 54.488281 13.847656 54.46875 13.78125 C 54.355469 13.371094 54.234375 12.96875 54.132812 12.554688 C 53.914062 11.675781 53.753906 10.78125 53.632812 9.878906 C 53.625 9.84375 53.628906 9.796875 53.554688 9.800781 C 53.519531 9.957031 53.496094 10.121094 53.449219 10.277344 C 53.390625 10.46875 53.421875 10.640625 53.480469 10.820312 C 53.613281 11.214844 53.730469 11.609375 53.855469 12.003906 C 54.035156 12.574219 54.210938 13.144531 54.394531 13.714844 C 54.425781 13.808594 54.484375 13.894531 54.527344 13.984375 C 54.53125 14.054688 54.527344 14.125 54.59375 14.171875 C 54.613281 14.234375 54.632812 14.292969 54.652344 14.355469 Z M 52.53125 14.109375 C 52.535156 14.152344 52.539062 14.199219 52.546875 14.242188 C 52.554688 14.242188 52.5625 14.238281 52.570312 14.238281 C 52.554688 14.195312 52.539062 14.15625 52.527344 14.113281 C 52.519531 14.066406 52.511719 14.023438 52.503906 13.976562 C 52.492188 13.980469 52.484375 13.984375 52.472656 13.988281 C 52.492188 14.027344 52.511719 14.070312 52.53125 14.109375 Z M 54.714844 15.167969 C 54.714844 15.167969 54.710938 15.167969 54.710938 15.167969 C 54.574219 14.769531 54.445312 14.367188 54.292969 13.96875 C 54.089844 13.4375 53.902344 12.902344 53.753906 12.351562 C 53.625 11.882812 53.496094 11.414062 53.363281 10.949219 C 53.339844 10.875 53.351562 10.777344 53.242188 10.738281 C 53.195312 10.773438 53.144531 10.808594 53.097656 10.851562 C 53.050781 10.890625 53.011719 10.933594 52.96875 10.980469 C 53 11.058594 53.023438 11.125 53.050781 11.191406 C 53.195312 11.546875 53.347656 11.898438 53.484375 12.257812 C 53.8125 13.125 54.148438 13.996094 54.539062 14.84375 C 54.589844 14.953125 54.65625 15.058594 54.714844 15.167969 Z M 53.339844 12.679688 C 53.339844 12.679688 53.347656 12.691406 53.339844 12.683594 C 53.214844 12.140625 52.933594 11.667969 52.65625 11.195312 C 52.125 10.304688 51.457031 9.507812 50.847656 8.671875 C 50.84375 8.664062 50.835938 8.65625 50.828125 8.648438 C 50.792969 8.609375 50.765625 8.5625 50.691406 8.597656 C 50.65625 8.695312 50.621094 8.804688 50.574219 8.90625 C 50.503906 9.0625 50.53125 9.183594 50.671875 9.285156 C 51.085938 9.585938 51.414062 9.980469 51.734375 10.371094 C 52.125 10.84375 52.507812 11.320312 52.800781 11.859375 C 52.917969 12.078125 53.050781 12.289062 53.183594 12.5 C 53.226562 12.566406 53.289062 12.621094 53.339844 12.679688 Z M 45.867188 11.1875 C 45.957031 11.265625 46.011719 11.324219 46.078125 11.375 C 46.835938 11.976562 47.59375 12.574219 48.351562 13.171875 C 49.175781 13.824219 50.046875 14.402344 50.972656 14.90625 C 51.527344 15.210938 52.765625 15.890625 52.828125 15.925781 C 52.925781 15.976562 53.03125 15.972656 53.132812 15.964844 C 53.289062 15.949219 53.292969 15.949219 53.429688 15.867188 C 53.425781 15.859375 53.421875 15.847656 53.414062 15.84375 C 53.339844 15.804688 53.265625 15.765625 53.191406 15.730469 C 51.105469 14.714844 49.199219 13.425781 47.371094 12.011719 C 47.09375 11.792969 46.820312 11.570312 46.542969 11.351562 C 46.359375 11.207031 46.167969 11.089844 45.867188 11.1875 Z M 53.085938 15.421875 C 53 15.300781 52.886719 15.214844 52.765625 15.140625 C 52.316406 14.855469 51.871094 14.570312 51.421875 14.289062 C 49.558594 13.113281 47.835938 11.773438 46.378906 10.113281 C 46.351562 10.082031 46.328125 10.015625 46.253906 10.066406 C 46.273438 10.246094 46.292969 10.433594 46.304688 10.617188 C 46.316406 10.871094 46.433594 11.066406 46.632812 11.21875 C 47.292969 11.722656 47.941406 12.242188 48.609375 12.734375 C 49.976562 13.742188 51.433594 14.605469 52.933594 15.390625 C 52.972656 15.414062 53.011719 15.457031 53.085938 15.421875 Z M 53.734375 17.839844 C 53.640625 17.734375 53.589844 17.6875 53.546875 17.628906 C 53.445312 17.488281 53.304688 17.425781 53.132812 17.386719 C 52.628906 17.261719 52.125 17.132812 51.628906 16.984375 C 50.296875 16.597656 49.011719 16.097656 47.84375 15.332031 C 47.804688 15.308594 47.757812 15.289062 47.699219 15.261719 C 47.691406 15.3125 47.675781 15.34375 47.679688 15.367188 C 47.707031 15.542969 47.746094 15.714844 47.769531 15.890625 C 47.785156 16.039062 47.863281 16.125 48.003906 16.1875 C 48.335938 16.328125 48.664062 16.488281 48.996094 16.636719 C 49.546875 16.878906 50.113281 17.082031 50.699219 17.226562 C 51.675781 17.472656 52.667969 17.644531 53.734375 17.839844 Z M 49.929688 9.398438 C 49.957031 9.457031 49.960938 9.480469 49.976562 9.492188 C 50.484375 9.929688 50.898438 10.449219 51.304688 10.972656 C 51.773438 11.582031 52.234375 12.195312 52.710938 12.796875 C 53.402344 13.671875 54.003906 14.597656 54.503906 15.59375 C 54.539062 15.667969 54.574219 15.746094 54.621094 15.8125 C 54.660156 15.867188 54.703125 15.933594 54.8125 15.902344 C 54.785156 15.769531 54.722656 15.652344 54.664062 15.535156 C 54.40625 15.027344 54.148438 14.519531 53.886719 14.011719 C 53.820312 13.882812 53.75 13.757812 53.675781 13.636719 C 53.246094 12.9375 52.8125 12.242188 52.382812 11.546875 C 52.308594 11.433594 52.238281 11.316406 52.152344 11.214844 C 51.792969 10.796875 51.433594 10.378906 51.070312 9.96875 C 50.835938 9.707031 50.550781 9.496094 50.25 9.304688 C 50.144531 9.335938 50.046875 9.363281 49.929688 9.398438 Z M 49.429688 18.839844 C 49.519531 18.859375 49.589844 18.882812 49.660156 18.890625 C 50.082031 18.941406 50.507812 18.992188 50.929688 19.035156 C 51.699219 19.109375 52.46875 19.105469 53.238281 19.082031 C 53.417969 19.078125 53.488281 19.046875 53.671875 18.921875 C 53.621094 18.917969 53.582031 18.910156 53.542969 18.910156 C 52.929688 18.886719 52.320312 18.804688 51.71875 18.679688 C 51.015625 18.535156 50.328125 18.335938 49.640625 18.136719 C 49.554688 18.113281 49.46875 18.058594 49.359375 18.105469 C 49.382812 18.34375 49.40625 18.578125 49.429688 18.839844 Z M 53.261719 17.925781 C 53.167969 17.902344 53.089844 17.878906 53.007812 17.867188 C 52.484375 17.777344 51.960938 17.699219 51.441406 17.601562 C 50.394531 17.402344 49.394531 17.074219 48.457031 16.558594 C 48.308594 16.480469 48.160156 16.410156 48.007812 16.34375 C 47.933594 16.308594 47.855469 16.285156 47.777344 16.257812 C 47.660156 16.355469 47.527344 16.414062 47.4375 16.566406 C 47.554688 16.617188 47.65625 16.667969 47.761719 16.707031 C 49.234375 17.28125 50.738281 17.742188 52.316406 17.941406 C 52.523438 17.96875 52.726562 17.996094 52.933594 18.015625 C 53.042969 18.027344 53.160156 18.039062 53.261719 17.925781 Z M 49.429688 21.75 C 49.761719 21.621094 50.058594 21.457031 50.351562 21.277344 C 51.019531 20.871094 51.710938 20.515625 52.425781 20.207031 C 53.457031 19.761719 55.746094 18.777344 55.851562 18.71875 C 55.882812 18.703125 55.929688 18.667969 55.867188 18.613281 C 55.804688 18.640625 55.738281 18.664062 55.675781 18.691406 C 55.15625 18.90625 54.644531 19.136719 54.121094 19.335938 C 52.476562 19.960938 50.867188 20.65625 49.300781 21.453125 C 49.242188 21.484375 49.15625 21.488281 49.140625 21.59375 C 49.234375 21.644531 49.332031 21.699219 49.429688 21.75 Z M 52.757812 19.234375 C 52.441406 19.230469 52.125 19.222656 51.804688 19.222656 C 51.0625 19.226562 50.332031 19.140625 49.601562 19.011719 C 49.457031 18.984375 49.324219 18.957031 49.183594 19.046875 C 49.023438 19.148438 48.957031 19.1875 48.855469 19.320312 C 49.148438 19.363281 49.433594 19.414062 49.722656 19.445312 C 50.550781 19.539062 51.382812 19.546875 52.210938 19.441406 C 52.40625 19.417969 52.589844 19.351562 52.757812 19.234375 Z M 49.730469 14.421875 C 49.878906 14.636719 49.996094 14.804688 50.109375 14.972656 C 50.417969 15.4375 50.734375 15.894531 51.03125 16.367188 C 51.160156 16.574219 51.328125 16.699219 51.566406 16.75 C 51.613281 16.757812 51.660156 16.792969 51.707031 16.714844 C 51.652344 16.628906 51.59375 16.53125 51.53125 16.4375 C 51.269531 16.03125 50.992188 15.628906 50.738281 15.214844 C 50.589844 14.96875 50.414062 14.769531 50.148438 14.648438 C 50.019531 14.59375 49.914062 14.496094 49.730469 14.421875 Z M 47.546875 10.335938 C 47.554688 10.367188 47.558594 10.390625 47.566406 10.40625 C 47.890625 10.921875 48.214844 11.4375 48.542969 11.953125 C 48.628906 12.089844 48.757812 12.1875 48.933594 12.292969 C 48.917969 12.191406 48.878906 12.144531 48.847656 12.09375 C 48.632812 11.71875 48.410156 11.347656 48.203125 10.96875 C 48.0625 10.714844 47.945312 10.449219 47.816406 10.191406 C 47.71875 9.992188 47.667969 9.929688 47.484375 9.789062 C 47.464844 9.90625 47.457031 10.011719 47.488281 10.101562 C 47.550781 10.152344 47.640625 10.109375 47.652344 10.203125 C 47.617188 10.25 47.582031 10.296875 47.546875 10.335938 Z M 48.609375 19.230469 C 48.847656 19.117188 49.035156 18.972656 49.238281 18.855469 C 49.230469 18.726562 49.222656 18.613281 49.214844 18.503906 C 49.207031 18.394531 49.230469 18.28125 49.171875 18.152344 C 48.996094 18.273438 48.835938 18.382812 48.675781 18.496094 C 48.679688 18.738281 48.5625 18.957031 48.609375 19.230469 Z M 47.3125 16.417969 C 47.398438 16.355469 47.460938 16.320312 47.511719 16.269531 C 47.5625 16.222656 47.605469 16.164062 47.660156 16.105469 C 47.597656 15.855469 47.609375 15.59375 47.496094 15.335938 C 47.328125 15.441406 47.230469 15.585938 47.128906 15.726562 C 47.105469 15.753906 47.097656 15.804688 47.105469 15.84375 C 47.132812 16.035156 47.179688 16.226562 47.3125 16.417969 Z M 49.804688 9.171875 C 49.980469 9.226562 50.109375 9.160156 50.234375 9.113281 C 50.285156 8.996094 50.332031 8.894531 50.371094 8.789062 C 50.410156 8.6875 50.480469 8.59375 50.464844 8.453125 C 50.332031 8.507812 50.195312 8.523438 50.121094 8.625 C 50.003906 8.792969 49.898438 8.972656 49.804688 9.171875 Z M 52.96875 10.644531 C 53.148438 10.617188 53.203125 10.503906 53.238281 10.371094 C 53.296875 10.140625 53.363281 9.914062 53.425781 9.6875 C 53.433594 9.65625 53.421875 9.621094 53.417969 9.574219 C 53.210938 9.648438 53.113281 9.769531 53.09375 9.96875 C 53.078125 10.128906 53.027344 10.289062 52.996094 10.449219 C 52.984375 10.507812 52.980469 10.570312 52.96875 10.644531 Z M 46.113281 10.949219 C 46.125 10.773438 46.074219 10.269531 46.027344 10.132812 C 45.929688 10.425781 45.769531 10.679688 45.703125 10.988281 C 45.859375 11 45.992188 11.023438 46.113281 10.949219 Z M 51.355469 8.921875 C 51.382812 8.820312 51.410156 8.738281 51.429688 8.652344 C 51.449219 8.566406 51.414062 8.511719 51.304688 8.492188 C 51.25 8.546875 51.1875 8.609375 51.128906 8.671875 C 51.191406 8.777344 51.230469 8.867188 51.355469 8.921875 Z M 51.53125 9.195312 C 51.574219 9.140625 51.527344 9.101562 51.511719 9.054688 C 51.511719 9.050781 51.496094 9.042969 51.488281 9.046875 C 51.480469 9.046875 51.472656 9.058594 51.472656 9.070312 C 51.464844 9.121094 51.464844 9.171875 51.53125 9.195312 Z M 52.421875 13.742188 C 52.429688 13.71875 52.433594 13.710938 52.441406 13.699219 C 52.433594 13.699219 52.421875 13.699219 52.421875 13.699219 C 52.417969 13.710938 52.421875 13.71875 52.421875 13.742188 Z M 52.421875 13.742188 " fill-opacity="1" fill-rule="evenodd"/><path fill="#000000" d="M 61.773438 17.972656 C 61.691406 18.039062 61.609375 18.097656 61.535156 18.171875 C 61.015625 18.691406 60.492188 19.210938 59.976562 19.738281 C 59.828125 19.886719 59.667969 20.007812 59.46875 20.082031 C 59.339844 20.128906 59.21875 20.191406 59.097656 20.246094 C 59.050781 20.265625 58.996094 20.292969 58.949219 20.289062 C 58.894531 20.28125 58.828125 20.253906 58.792969 20.214844 C 58.769531 20.1875 58.78125 20.113281 58.800781 20.074219 C 58.851562 19.984375 58.910156 19.898438 58.972656 19.816406 C 59.199219 19.503906 59.425781 19.199219 59.660156 18.882812 C 59.585938 18.839844 59.5625 18.90625 59.535156 18.929688 C 59.242188 19.195312 58.953125 19.464844 58.65625 19.722656 C 58.511719 19.84375 58.433594 19.988281 58.402344 20.167969 C 58.304688 20.699219 58.203125 21.226562 58.097656 21.753906 C 58.078125 21.84375 58.058594 21.9375 58.015625 22.015625 C 57.886719 22.253906 57.746094 22.484375 57.609375 22.714844 C 57.59375 22.742188 57.582031 22.773438 57.578125 22.78125 C 57.445312 22.753906 57.445312 22.671875 57.445312 22.605469 C 57.441406 22.417969 57.441406 22.234375 57.460938 22.046875 C 57.550781 21.203125 57.65625 20.363281 57.816406 19.527344 C 58.136719 17.878906 58.703125 16.320312 59.542969 14.859375 C 59.574219 14.808594 59.605469 14.753906 59.636719 14.699219 C 59.691406 14.605469 59.769531 14.539062 59.875 14.507812 C 60.085938 14.453125 60.296875 14.398438 60.507812 14.351562 C 60.703125 14.3125 60.847656 14.394531 60.976562 14.558594 C 60.859375 14.71875 60.738281 14.875 60.625 15.035156 C 60.519531 15.1875 60.417969 15.34375 60.320312 15.5 C 60.214844 15.667969 60.117188 15.835938 60.019531 16.007812 C 59.925781 16.171875 59.839844 16.335938 59.753906 16.503906 C 59.664062 16.675781 59.578125 16.851562 59.492188 17.03125 C 59.414062 17.199219 59.335938 17.371094 59.265625 17.542969 C 59.1875 17.71875 59.101562 17.894531 59.042969 18.128906 C 59.125 18.078125 59.167969 18.054688 59.207031 18.027344 C 59.554688 17.785156 59.90625 17.542969 60.257812 17.304688 C 60.378906 17.222656 60.503906 17.160156 60.65625 17.144531 C 60.800781 17.132812 60.9375 17.078125 61.082031 17.046875 C 61.140625 17.035156 61.199219 17.035156 61.261719 17.03125 C 61.261719 17.277344 61.25 17.316406 61.085938 17.535156 C 61.074219 17.484375 61.0625 17.449219 61.058594 17.414062 C 61.054688 17.375 61.058594 17.335938 61.058594 17.285156 C 61.015625 17.296875 60.984375 17.296875 60.964844 17.3125 C 60.363281 17.773438 59.761719 18.238281 59.160156 18.695312 C 59.027344 18.796875 58.886719 18.882812 58.714844 19.003906 C 58.664062 19.175781 58.601562 19.394531 58.539062 19.605469 C 58.613281 19.664062 58.644531 19.605469 58.675781 19.574219 C 58.976562 19.300781 59.273438 19.023438 59.570312 18.75 C 59.636719 18.6875 59.707031 18.621094 59.78125 18.566406 C 60.011719 18.398438 60.210938 18.207031 60.371094 17.972656 C 60.519531 17.757812 60.726562 17.667969 60.980469 17.652344 C 61.09375 17.644531 61.207031 17.632812 61.320312 17.609375 C 61.453125 17.582031 61.5625 17.621094 61.671875 17.695312 C 61.773438 17.769531 61.753906 17.878906 61.765625 17.976562 Z M 58.203125 18.835938 C 58.246094 18.742188 58.296875 18.652344 58.332031 18.558594 C 58.75 17.40625 59.191406 16.269531 59.753906 15.179688 C 59.773438 15.144531 59.800781 15.105469 59.804688 15.070312 C 59.8125 14.976562 59.796875 14.890625 59.699219 14.847656 C 59.675781 14.878906 59.660156 14.894531 59.648438 14.910156 C 59.121094 15.992188 58.660156 17.101562 58.339844 18.265625 C 58.289062 18.453125 58.25 18.644531 58.207031 18.835938 C 58.199219 18.855469 58.1875 18.871094 58.175781 18.886719 C 58.171875 18.894531 58.175781 18.90625 58.171875 18.914062 C 58.183594 18.90625 58.199219 18.902344 58.199219 18.890625 C 58.207031 18.875 58.203125 18.855469 58.203125 18.835938 Z M 57.730469 22.136719 C 57.785156 22.09375 57.804688 22.085938 57.820312 22.070312 C 57.964844 21.914062 57.964844 21.710938 58.003906 21.519531 C 58.121094 20.921875 58.207031 20.316406 58.359375 19.726562 C 58.804688 18.019531 59.480469 16.414062 60.523438 14.972656 C 60.554688 14.925781 60.578125 14.875 60.636719 14.769531 C 60.382812 14.878906 60.183594 14.964844 59.988281 15.046875 C 59.964844 15.085938 59.941406 15.121094 59.925781 15.160156 C 59.433594 16.324219 58.96875 17.5 58.554688 18.691406 C 58.167969 19.800781 57.933594 20.941406 57.730469 22.136719 Z M 61.496094 17.972656 C 61.324219 18 61.210938 18.027344 61.101562 18.035156 C 60.945312 18.042969 60.832031 18.113281 60.730469 18.234375 C 60.292969 18.773438 59.847656 19.304688 59.40625 19.84375 C 59.375 19.878906 59.355469 19.921875 59.296875 20.011719 C 59.390625 19.980469 59.429688 19.972656 59.457031 19.953125 C 59.546875 19.882812 59.640625 19.816406 59.71875 19.734375 C 60.257812 19.171875 60.800781 18.617188 61.390625 18.105469 C 61.410156 18.085938 61.425781 18.058594 61.496094 17.972656 Z M 58.933594 18.363281 C 58.894531 18.472656 58.847656 18.605469 58.804688 18.742188 C 58.832031 18.75 58.84375 18.757812 58.847656 18.753906 C 59.476562 18.273438 60.101562 17.796875 60.726562 17.316406 C 60.734375 17.3125 60.738281 17.300781 60.738281 17.289062 C 60.738281 17.28125 60.730469 17.273438 60.71875 17.253906 C 60.667969 17.28125 60.613281 17.308594 60.5625 17.339844 C 60.152344 17.605469 59.746094 17.875 59.335938 18.140625 C 59.222656 18.210938 59.101562 18.269531 58.933594 18.363281 Z M 60.746094 18.039062 C 60.722656 17.953125 60.6875 17.921875 60.632812 17.964844 C 60.589844 17.992188 60.558594 18.035156 60.527344 18.074219 C 60.03125 18.6875 59.539062 19.296875 59.046875 19.910156 C 59.015625 19.949219 58.984375 19.992188 58.960938 20.039062 C 58.949219 20.058594 58.957031 20.089844 58.957031 20.117188 C 58.980469 20.117188 58.996094 20.117188 59 20.113281 C 59.566406 19.402344 60.105469 18.667969 60.746094 18.039062 Z M 60.628906 14.539062 C 60.398438 14.515625 60.0625 14.601562 59.851562 14.722656 C 59.878906 14.78125 59.910156 14.839844 59.945312 14.910156 C 60.1875 14.785156 60.417969 14.6875 60.628906 14.539062 Z M 61.421875 17.8125 C 61.09375 17.769531 60.988281 17.78125 60.832031 17.851562 C 60.917969 17.933594 60.921875 17.9375 60.976562 17.921875 C 61.125 17.886719 61.273438 17.847656 61.421875 17.8125 Z M 61.421875 17.8125 " fill-opacity="1" fill-rule="evenodd"/><path fill="#000000" d="M 61.460938 11.195312 C 61.425781 11.308594 61.339844 11.398438 61.257812 11.488281 C 61.0625 11.695312 60.90625 11.921875 60.75 12.15625 C 60.289062 12.859375 59.871094 13.585938 59.46875 14.320312 C 59.035156 15.121094 58.59375 15.917969 58.164062 16.722656 C 58.066406 16.902344 57.9375 17.039062 57.765625 17.144531 C 57.625 17.230469 57.492188 17.332031 57.351562 17.421875 C 57.304688 17.453125 57.246094 17.46875 57.1875 17.496094 C 57.164062 17.449219 57.140625 17.425781 57.140625 17.398438 C 57.121094 17.054688 57.132812 16.714844 57.261719 16.390625 C 57.347656 16.167969 57.4375 15.949219 57.523438 15.726562 C 58.074219 14.371094 58.742188 13.078125 59.570312 11.867188 C 59.726562 11.636719 59.882812 11.402344 60.035156 11.167969 C 60.144531 10.996094 60.300781 10.914062 60.496094 10.886719 C 60.804688 10.84375 61.09375 10.886719 61.359375 11.066406 C 61.382812 11.082031 61.40625 11.105469 61.429688 11.125 C 61.441406 11.140625 61.445312 11.164062 61.460938 11.195312 Z M 58.765625 15.042969 C 58.777344 15.039062 58.785156 15.039062 58.792969 15.03125 C 58.800781 15.027344 58.800781 15.019531 58.800781 15.011719 C 58.792969 15.023438 58.78125 15.035156 58.769531 15.046875 C 58.75 15.089844 58.730469 15.132812 58.710938 15.179688 C 58.675781 15.171875 58.632812 15.214844 58.597656 15.144531 C 58.625 15.078125 58.652344 15.003906 58.691406 14.929688 C 59.011719 14.332031 59.332031 13.730469 59.664062 13.136719 C 59.808594 12.878906 59.980469 12.632812 60.140625 12.378906 C 60.160156 12.351562 60.183594 12.304688 60.25 12.347656 C 60.199219 12.445312 59.667969 13.453125 59.648438 13.496094 C 59.628906 13.539062 59.609375 13.585938 59.589844 13.628906 C 59.507812 13.660156 59.484375 13.734375 59.457031 13.804688 C 59.4375 13.84375 59.355469 14.011719 59.335938 14.054688 C 59.328125 14.058594 59.320312 14.0625 59.3125 14.070312 C 59.308594 14.074219 59.308594 14.082031 59.304688 14.089844 C 59.3125 14.078125 59.324219 14.0625 59.332031 14.050781 C 59.351562 14.007812 59.433594 13.839844 59.453125 13.800781 C 59.496094 13.742188 59.542969 13.683594 59.585938 13.625 C 59.605469 13.582031 59.625 13.535156 59.644531 13.492188 C 59.664062 13.449219 59.683594 13.410156 59.707031 13.367188 C 59.820312 13.300781 59.863281 13.1875 59.910156 13.074219 C 59.9375 13.042969 59.96875 13.015625 59.988281 12.980469 C 60.332031 12.4375 60.71875 11.925781 61.132812 11.433594 C 61.15625 11.402344 61.175781 11.367188 61.207031 11.3125 C 61.058594 11.3125 60.9375 11.320312 60.820312 11.3125 C 60.652344 11.304688 60.539062 11.378906 60.453125 11.507812 C 60.378906 11.621094 60.304688 11.730469 60.234375 11.847656 C 59.246094 13.511719 58.378906 15.238281 57.523438 16.972656 C 57.507812 17.003906 57.496094 17.039062 57.476562 17.09375 C 57.832031 16.9375 57.878906 16.890625 58.011719 16.625 C 58.203125 16.238281 58.398438 15.847656 58.589844 15.460938 C 58.636719 15.367188 58.667969 15.269531 58.707031 15.175781 C 58.726562 15.132812 58.746094 15.085938 58.765625 15.042969 Z M 59.019531 14.609375 C 59.039062 14.566406 59.058594 14.523438 59.078125 14.484375 C 59.101562 14.445312 59.121094 14.40625 59.144531 14.367188 C 59.152344 14.363281 59.160156 14.359375 59.167969 14.351562 C 59.171875 14.347656 59.171875 14.339844 59.171875 14.332031 C 59.164062 14.347656 59.15625 14.359375 59.148438 14.371094 C 59.125 14.410156 59.105469 14.449219 59.082031 14.488281 C 59.0625 14.527344 59.042969 14.570312 59.023438 14.613281 C 59.015625 14.617188 59.007812 14.625 59.003906 14.628906 C 59 14.632812 58.996094 14.640625 58.996094 14.648438 C 59.003906 14.632812 59.011719 14.621094 59.019531 14.609375 Z M 57.367188 16.863281 C 57.421875 16.761719 57.457031 16.699219 57.488281 16.636719 C 57.640625 16.308594 57.789062 15.976562 57.945312 15.652344 C 58.5625 14.359375 59.25 13.109375 60.046875 11.917969 C 60.175781 11.726562 60.292969 11.53125 60.410156 11.339844 C 60.421875 11.324219 60.417969 11.300781 60.421875 11.257812 C 60.363281 11.222656 60.296875 11.183594 60.21875 11.136719 C 60.160156 11.21875 60.109375 11.28125 60.070312 11.351562 C 59.976562 11.5 59.894531 11.65625 59.796875 11.804688 C 58.832031 13.3125 58.125 14.949219 57.363281 16.554688 C 57.324219 16.640625 57.292969 16.730469 57.367188 16.863281 Z M 61.128906 11.128906 C 60.878906 10.96875 60.683594 11.050781 60.492188 11.121094 C 60.679688 11.191406 60.871094 11.199219 61.128906 11.128906 Z M 61.128906 11.128906 " fill-opacity="1" fill-rule="evenodd"/><path fill="#000000" d="M 46.042969 12.914062 C 46.117188 12.980469 46.097656 13.066406 46.085938 13.144531 C 45.976562 13.898438 46.023438 14.652344 46.074219 15.40625 C 46.167969 16.820312 46.511719 18.179688 46.960938 19.519531 C 47.074219 19.851562 47.214844 20.179688 47.246094 20.53125 C 47.273438 20.820312 47.289062 21.109375 47.308594 21.398438 C 47.308594 21.433594 47.289062 21.472656 47.273438 21.535156 C 47.222656 21.507812 47.183594 21.496094 47.160156 21.46875 C 46.988281 21.269531 46.792969 21.101562 46.582031 20.953125 C 46.523438 20.914062 46.476562 20.851562 46.449219 20.785156 C 46 19.628906 45.554688 18.472656 45.183594 17.285156 C 44.886719 16.335938 44.671875 15.367188 44.515625 14.382812 C 44.480469 14.171875 44.460938 13.953125 44.429688 13.738281 C 44.410156 13.589844 44.449219 13.472656 44.585938 13.398438 C 44.597656 13.394531 44.605469 13.386719 44.613281 13.382812 C 45.21875 12.941406 45.21875 12.941406 45.984375 12.894531 C 46.003906 12.894531 46.023438 12.90625 46.042969 12.914062 Z M 44.617188 13.765625 C 44.613281 13.828125 44.601562 13.867188 44.609375 13.90625 C 44.8125 14.8125 45 15.726562 45.230469 16.628906 C 45.574219 17.996094 46.089844 19.308594 46.519531 20.648438 C 46.53125 20.6875 46.546875 20.734375 46.578125 20.753906 C 46.683594 20.828125 46.777344 20.925781 46.941406 20.972656 C 46.925781 20.910156 46.921875 20.871094 46.910156 20.839844 C 46.839844 20.65625 46.765625 20.472656 46.691406 20.289062 C 46.222656 19.082031 45.875 17.835938 45.574219 16.574219 C 45.421875 15.929688 45.289062 15.28125 45.238281 14.621094 C 45.226562 14.445312 45.207031 14.269531 45.191406 14.089844 C 45.007812 13.980469 44.835938 13.847656 44.617188 13.765625 Z M 45.890625 13.417969 C 45.871094 13.414062 45.851562 13.410156 45.832031 13.40625 C 45.71875 13.554688 45.617188 13.710938 45.488281 13.84375 C 45.355469 13.980469 45.328125 14.121094 45.355469 14.296875 C 45.425781 14.746094 45.472656 15.199219 45.5625 15.644531 C 45.894531 17.363281 46.402344 19.03125 47.027344 20.667969 C 47.046875 20.710938 47.042969 20.773438 47.128906 20.773438 C 47.125 20.65625 47.125 20.542969 47.113281 20.433594 C 47.109375 20.382812 47.089844 20.332031 47.066406 20.285156 C 46.683594 19.445312 46.421875 18.5625 46.230469 17.660156 C 46.011719 16.636719 45.867188 15.605469 45.886719 14.558594 C 45.890625 14.226562 45.890625 13.46875 45.890625 13.417969 Z M 45.804688 13.074219 C 45.617188 13.074219 45.464844 13.070312 45.308594 13.074219 C 45.269531 13.074219 45.226562 13.089844 45.195312 13.109375 C 45.101562 13.175781 45.011719 13.246094 44.925781 13.320312 C 44.832031 13.398438 44.710938 13.4375 44.628906 13.558594 C 44.777344 13.691406 44.9375 13.78125 45.109375 13.847656 C 45.207031 13.886719 45.265625 13.871094 45.328125 13.789062 C 45.476562 13.589844 45.625 13.390625 45.769531 13.191406 C 45.785156 13.167969 45.785156 13.136719 45.804688 13.074219 Z M 45.804688 13.074219 " fill-opacity="1" fill-rule="evenodd"/><path fill="#000000" d="M 57.082031 22.40625 C 56.980469 22.609375 56.820312 22.746094 56.648438 22.863281 C 56.5625 22.921875 56.433594 22.929688 56.324219 22.941406 C 56.085938 22.96875 55.847656 22.976562 55.609375 23.007812 C 55.117188 23.074219 54.621094 23.136719 54.128906 23.222656 C 53.136719 23.390625 52.148438 23.570312 51.15625 23.746094 C 50.972656 23.78125 50.8125 23.753906 50.65625 23.644531 C 50.425781 23.488281 50.191406 23.335938 49.960938 23.148438 C 50.007812 23.085938 50.035156 23.027344 50.078125 22.996094 C 50.320312 22.832031 50.5625 22.671875 50.8125 22.523438 C 50.992188 22.410156 51.210938 22.414062 51.414062 22.382812 C 51.90625 22.300781 55.695312 21.804688 55.980469 21.761719 C 56.238281 21.726562 56.449219 21.789062 56.628906 21.980469 C 56.769531 22.132812 56.929688 22.261719 57.082031 22.40625 Z M 56.613281 22.234375 C 56.480469 22.015625 56.328125 21.9375 56.121094 21.960938 C 55.921875 21.980469 55.726562 21.984375 55.53125 22.003906 C 55.292969 22.027344 55.054688 22.058594 54.816406 22.085938 C 54.386719 22.140625 53.953125 22.199219 53.519531 22.253906 C 52.757812 22.347656 52.007812 22.523438 51.234375 22.554688 C 51.175781 22.558594 51.117188 22.582031 51.050781 22.597656 C 51.03125 22.824219 51.007812 23.035156 51.066406 23.257812 C 51.6875 23.117188 52.289062 22.964844 52.898438 22.839844 C 53.507812 22.714844 54.121094 22.609375 54.738281 22.507812 C 55.351562 22.40625 55.964844 22.328125 56.613281 22.234375 Z M 51.570312 23.328125 C 51.570312 23.339844 51.574219 23.351562 51.574219 23.363281 C 51.632812 23.359375 51.695312 23.363281 51.753906 23.355469 C 52.050781 23.308594 52.347656 23.253906 52.644531 23.210938 C 53.3125 23.113281 53.980469 23.015625 54.652344 22.933594 C 55.25 22.863281 55.851562 22.816406 56.449219 22.757812 C 56.609375 22.742188 56.699219 22.660156 56.746094 22.46875 C 56.371094 22.4375 55.996094 22.464844 55.628906 22.53125 C 54.527344 22.734375 53.425781 22.941406 52.324219 23.152344 C 52.070312 23.203125 51.820312 23.269531 51.570312 23.328125 Z M 50.804688 23.21875 C 50.84375 23.027344 50.910156 22.867188 50.878906 22.679688 C 50.734375 22.691406 50.644531 22.789062 50.542969 22.851562 C 50.433594 22.914062 50.3125 22.972656 50.234375 23.097656 C 50.425781 23.136719 50.597656 23.175781 50.804688 23.21875 Z M 51.285156 23.417969 C 51.292969 23.414062 51.300781 23.414062 51.3125 23.410156 C 51.292969 23.40625 51.277344 23.398438 51.261719 23.394531 C 51.253906 23.394531 51.246094 23.402344 51.238281 23.402344 C 51.253906 23.410156 51.269531 23.414062 51.285156 23.417969 Z M 51.285156 23.417969 " fill-opacity="1" fill-rule="evenodd"/><path fill="#000000" d="M 57.082031 6.765625 C 57.570312 6.742188 57.960938 6.921875 58.273438 7.277344 C 58.359375 7.375 58.449219 7.4375 58.578125 7.476562 C 59.09375 7.644531 59.484375 7.964844 59.730469 8.457031 C 59.882812 8.757812 59.925781 9.0625 59.84375 9.386719 C 59.820312 9.476562 59.796875 9.570312 59.808594 9.660156 C 59.847656 9.996094 59.757812 10.296875 59.5625 10.5625 C 59.449219 10.71875 59.382812 10.878906 59.367188 11.074219 C 59.335938 11.464844 59.136719 11.738281 58.777344 11.921875 C 58.429688 12.101562 58.066406 12.203125 57.683594 12.261719 C 57.652344 12.265625 57.621094 12.265625 57.589844 12.273438 C 56.71875 12.453125 56.0625 12.046875 55.476562 11.480469 C 55.351562 11.363281 55.273438 11.195312 55.199219 11.035156 C 55.042969 10.710938 54.898438 10.378906 54.765625 10.042969 C 54.496094 9.367188 54.53125 8.707031 54.886719 8.070312 C 55.050781 7.769531 55.289062 7.546875 55.582031 7.375 C 55.660156 7.328125 55.753906 7.292969 55.839844 7.28125 C 55.964844 7.265625 56.054688 7.207031 56.132812 7.121094 C 56.394531 6.84375 56.710938 6.726562 57.082031 6.765625 Z M 58.957031 9.773438 C 59 9.867188 59.042969 9.957031 59.089844 10.050781 C 59.160156 10.207031 59.21875 10.371094 59.316406 10.523438 C 59.464844 10.320312 59.542969 10.152344 59.570312 9.949219 C 59.609375 9.691406 59.59375 9.4375 59.460938 9.199219 C 59.402344 9.09375 59.339844 8.988281 59.351562 8.832031 C 59.519531 8.910156 59.535156 9.097656 59.667969 9.175781 C 59.683594 9.152344 59.699219 9.136719 59.699219 9.117188 C 59.734375 8.738281 59.570312 8.4375 59.304688 8.183594 C 59.121094 8.011719 58.910156 7.878906 58.679688 7.78125 C 58.625 7.757812 58.566406 7.753906 58.515625 7.742188 C 58.460938 7.835938 58.410156 7.917969 58.367188 7.996094 C 58.324219 8.078125 58.285156 8.160156 58.242188 8.242188 C 58.226562 8.21875 58.207031 8.203125 58.207031 8.1875 C 58.207031 8.136719 58.203125 8.082031 58.222656 8.039062 C 58.292969 7.882812 58.242188 7.753906 58.148438 7.636719 C 57.894531 7.320312 57.582031 7.089844 57.179688 6.996094 C 56.789062 6.902344 56.4375 6.964844 56.164062 7.285156 C 56.082031 7.378906 55.996094 7.46875 55.90625 7.558594 C 55.828125 7.640625 55.746094 7.71875 55.667969 7.796875 C 55.652344 7.785156 55.640625 7.773438 55.628906 7.765625 C 55.605469 7.703125 55.566406 7.722656 55.539062 7.753906 C 55.003906 8.285156 54.757812 8.910156 54.886719 9.664062 C 54.953125 10.0625 55.113281 10.414062 55.359375 10.730469 C 55.453125 10.855469 55.550781 10.976562 55.648438 11.097656 C 55.667969 11.125 55.683594 11.160156 55.703125 11.191406 C 55.628906 11.179688 55.582031 11.144531 55.539062 11.105469 C 55.484375 11.054688 55.441406 10.996094 55.386719 10.949219 C 55.34375 10.914062 55.328125 10.835938 55.238281 10.863281 C 55.402344 11.269531 55.695312 11.550781 56.082031 11.730469 C 56.363281 11.863281 56.65625 11.972656 56.949219 12.078125 C 57.0625 12.117188 57.191406 12.125 57.316406 12.128906 C 57.46875 12.132812 57.625 12.113281 57.78125 12.117188 C 57.984375 12.121094 58.171875 12.070312 58.339844 11.957031 C 58.472656 11.871094 58.597656 11.78125 58.714844 11.675781 C 58.789062 11.609375 58.851562 11.523438 58.902344 11.433594 C 59.054688 11.152344 59.117188 10.851562 59.066406 10.535156 C 59.042969 10.402344 59.007812 10.273438 58.992188 10.140625 C 58.972656 10.019531 58.96875 9.894531 58.957031 9.769531 Z M 58.957031 9.773438 " fill-opacity="1" fill-rule="evenodd"/><path fill="#000000" d="M 50.789062 12.660156 C 50.613281 12.730469 50.5 12.703125 50.398438 12.617188 C 50.21875 12.460938 50.039062 12.300781 49.859375 12.144531 C 49.09375 11.457031 48.480469 10.65625 47.988281 9.761719 C 47.648438 9.140625 47.363281 8.5 47.078125 7.855469 C 47.003906 7.679688 47.003906 7.527344 47.089844 7.355469 C 47.253906 7.027344 47.472656 6.738281 47.675781 6.4375 C 47.691406 6.414062 47.71875 6.394531 47.742188 6.375 C 47.789062 6.335938 47.878906 6.359375 47.898438 6.417969 C 47.925781 6.496094 47.949219 6.574219 47.96875 6.65625 C 48.230469 7.996094 48.792969 9.210938 49.566406 10.328125 C 49.933594 10.855469 50.324219 11.367188 50.714844 11.875 C 50.824219 12.015625 50.882812 12.15625 50.84375 12.328125 C 50.820312 12.441406 50.808594 12.550781 50.789062 12.660156 Z M 50.507812 12.507812 C 49.214844 11.070312 48.269531 9.425781 47.535156 7.652344 C 47.425781 7.617188 47.332031 7.640625 47.242188 7.707031 C 47.898438 9.601562 48.867188 11.285156 50.507812 12.507812 Z M 50.710938 12.113281 C 50.660156 12.046875 50.636719 12.015625 50.609375 11.980469 C 50.226562 11.480469 49.828125 10.988281 49.460938 10.472656 C 48.746094 9.476562 48.222656 8.390625 47.921875 7.199219 C 47.90625 7.132812 47.882812 7.070312 47.863281 7.003906 C 47.835938 7.011719 47.820312 7.011719 47.816406 7.019531 C 47.785156 7.160156 47.757812 7.300781 47.71875 7.4375 C 47.683594 7.578125 47.707031 7.699219 47.765625 7.828125 C 48.476562 9.425781 49.367188 10.917969 50.5 12.261719 C 50.53125 12.300781 50.566406 12.335938 50.625 12.398438 C 50.660156 12.285156 50.683594 12.199219 50.710938 12.113281 Z M 47.605469 6.90625 C 47.34375 7.246094 47.308594 7.320312 47.300781 7.515625 C 47.382812 7.507812 47.460938 7.5 47.550781 7.488281 C 47.566406 7.304688 47.585938 7.136719 47.605469 6.90625 Z M 47.605469 6.90625 " fill-opacity="1" fill-rule="evenodd"/><path fill="#000000" d="M 61.765625 17.976562 C 61.808594 17.90625 61.855469 17.839844 61.886719 17.765625 C 62.230469 16.925781 62.449219 16.054688 62.527344 15.152344 C 62.578125 14.527344 62.558594 13.910156 62.464844 13.292969 C 62.4375 13.121094 62.414062 12.945312 62.394531 12.769531 C 62.386719 12.703125 62.390625 12.632812 62.390625 12.558594 C 62.5 12.585938 62.496094 12.675781 62.511719 12.738281 C 62.582031 13.113281 62.683594 13.488281 62.703125 13.867188 C 62.84375 16.554688 61.980469 18.875 60.074219 20.792969 C 59.863281 21.007812 59.621094 21.1875 59.390625 21.382812 C 59.34375 21.417969 59.289062 21.445312 59.234375 21.476562 C 59.195312 21.394531 59.257812 21.375 59.289062 21.34375 C 59.496094 21.152344 59.707031 20.96875 59.90625 20.769531 C 60.640625 20.035156 61.222656 19.195312 61.667969 18.261719 C 61.710938 18.167969 61.738281 18.070312 61.773438 17.972656 Z M 61.765625 17.976562 " fill-opacity="1" fill-rule="evenodd"/><path fill="#000000" d="M 48.367188 21.644531 C 48.476562 21.554688 48.503906 21.476562 48.445312 21.382812 C 48.4375 21.363281 48.421875 21.347656 48.410156 21.332031 C 47.972656 20.777344 47.628906 20.160156 47.261719 19.558594 C 47.191406 19.441406 47.109375 19.320312 47.085938 19.132812 C 47.148438 19.167969 47.1875 19.175781 47.207031 19.203125 C 47.296875 19.316406 47.386719 19.429688 47.464844 19.550781 C 47.699219 19.90625 48.273438 20.785156 48.34375 20.886719 C 48.351562 20.679688 48.339844 20.597656 48.253906 20.472656 C 47.808594 19.820312 47.464844 19.117188 47.101562 18.417969 C 47.035156 18.289062 46.980469 18.15625 46.921875 18.023438 C 46.90625 17.988281 46.910156 17.949219 46.902344 17.871094 C 46.964844 17.917969 47.003906 17.933594 47.023438 17.960938 C 47.097656 18.074219 47.171875 18.1875 47.234375 18.304688 C 47.550781 18.863281 47.84375 19.433594 48.175781 19.984375 C 48.378906 20.316406 48.539062 20.65625 48.570312 21.046875 C 48.582031 21.199219 48.691406 21.335938 48.664062 21.496094 C 48.636719 21.636719 48.605469 21.777344 48.570312 21.941406 C 48.53125 21.941406 48.46875 21.960938 48.441406 21.9375 C 48.097656 21.65625 47.761719 21.359375 47.5 20.996094 C 47.492188 20.984375 47.503906 20.957031 47.503906 20.921875 C 47.636719 20.949219 47.703125 21.0625 47.792969 21.136719 C 47.886719 21.21875 47.972656 21.304688 48.066406 21.390625 C 48.160156 21.472656 48.253906 21.550781 48.367188 21.644531 Z M 48.367188 21.644531 " fill-opacity="1" fill-rule="evenodd"/><path fill="#000000" d="M 45.292969 7.554688 C 45.148438 7.699219 45.003906 7.847656 44.855469 7.992188 C 43.554688 9.296875 42.691406 10.839844 42.328125 12.648438 C 42.191406 13.320312 42.128906 14 42.152344 14.683594 C 42.164062 15.027344 42.183594 15.367188 42.195312 15.707031 C 42.199219 15.769531 42.191406 15.828125 42.1875 15.882812 C 42.117188 15.898438 42.097656 15.863281 42.089844 15.820312 C 42.015625 15.464844 41.976562 15.105469 41.972656 14.742188 C 41.953125 13.710938 42.074219 12.699219 42.390625 11.714844 C 42.902344 10.128906 43.785156 8.785156 45.035156 7.679688 C 45.105469 7.621094 45.1875 7.570312 45.261719 7.515625 C 45.273438 7.527344 45.28125 7.539062 45.292969 7.554688 Z M 45.292969 7.554688 " fill-opacity="1" fill-rule="evenodd"/><path fill="#000000" d="M 43.148438 18.71875 C 43.257812 18.757812 43.289062 18.863281 43.347656 18.945312 C 43.5625 19.25 43.765625 19.566406 43.988281 19.863281 C 44.542969 20.605469 45.191406 21.261719 45.921875 21.828125 C 46.480469 22.265625 47.09375 22.613281 47.722656 22.9375 C 47.859375 23.011719 48 23.078125 48.136719 23.152344 C 48.191406 23.183594 48.238281 23.222656 48.285156 23.253906 C 48.246094 23.339844 48.195312 23.304688 48.152344 23.289062 C 47.589844 23.105469 47.042969 22.875 46.550781 22.542969 C 45.328125 21.722656 44.320312 20.691406 43.519531 19.460938 C 43.414062 19.296875 43.320312 19.121094 43.230469 18.949219 C 43.191406 18.875 43.179688 18.792969 43.152344 18.714844 Z M 43.148438 18.71875 " fill-opacity="1" fill-rule="evenodd"/><path fill="#000000" d="M 49.152344 5.484375 C 49.207031 5.398438 49.304688 5.378906 49.390625 5.351562 C 49.734375 5.230469 50.089844 5.152344 50.449219 5.101562 C 51.339844 4.96875 52.234375 4.960938 53.125 5.046875 C 54.230469 5.148438 55.300781 5.386719 56.316406 5.839844 C 56.371094 5.863281 56.421875 5.898438 56.527344 5.960938 C 56.429688 5.96875 56.390625 5.980469 56.355469 5.972656 C 56.246094 5.941406 56.140625 5.90625 56.03125 5.871094 C 55.316406 5.640625 54.59375 5.457031 53.855469 5.328125 C 53.117188 5.199219 52.367188 5.15625 51.617188 5.164062 C 50.84375 5.171875 50.082031 5.261719 49.335938 5.457031 C 49.273438 5.472656 49.210938 5.472656 49.152344 5.480469 Z M 49.152344 5.484375 " fill-opacity="1" fill-rule="evenodd"/><path fill="#000000" d="M 57.789062 18.554688 C 57.726562 18.683594 57.625 18.722656 57.542969 18.777344 C 57.082031 19.074219 56.613281 19.359375 56.15625 19.667969 C 55.417969 20.164062 54.6875 20.675781 53.953125 21.179688 C 53.902344 21.214844 53.855469 21.261719 53.796875 21.285156 C 53.746094 21.308594 53.675781 21.328125 53.621094 21.316406 C 53.328125 21.261719 53.035156 21.195312 52.742188 21.128906 C 52.707031 21.121094 52.683594 21.082031 52.621094 21.03125 C 52.757812 21.03125 52.847656 21.023438 52.9375 21.035156 C 53.125 21.054688 53.308594 21.082031 53.492188 21.109375 C 53.59375 21.128906 53.675781 21.109375 53.757812 21.050781 C 53.851562 20.984375 53.945312 20.921875 54.039062 20.855469 C 55.136719 20.09375 56.261719 19.371094 57.429688 18.710938 C 57.535156 18.652344 57.632812 18.578125 57.789062 18.554688 Z M 57.789062 18.554688 " fill-opacity="1" fill-rule="evenodd"/><path fill="#000000" d="M 56.324219 20.429688 C 56.539062 20.460938 56.703125 20.378906 56.871094 20.378906 C 57.0625 20.207031 57.226562 20.019531 57.445312 19.898438 C 57.507812 19.941406 57.460938 19.976562 57.4375 20 C 57.285156 20.136719 57.128906 20.273438 56.972656 20.410156 C 56.875 20.492188 56.753906 20.535156 56.632812 20.566406 C 56.503906 20.597656 56.375 20.632812 56.214844 20.675781 C 56.347656 20.777344 56.476562 20.804688 56.625 20.84375 C 56.710938 20.691406 56.890625 20.644531 57.027344 20.539062 C 57.15625 20.441406 57.269531 20.316406 57.429688 20.273438 C 57.484375 20.316406 57.472656 20.363281 57.441406 20.390625 C 57.25 20.566406 57.058594 20.738281 56.863281 20.90625 C 56.785156 20.976562 56.695312 20.984375 56.597656 20.953125 C 56.441406 20.902344 56.28125 20.851562 56.125 20.796875 C 56.03125 20.761719 55.9375 20.71875 55.839844 20.679688 C 55.847656 20.640625 55.84375 20.597656 55.863281 20.582031 C 56.382812 20.140625 56.882812 19.675781 57.453125 19.28125 C 57.507812 19.378906 57.4375 19.410156 57.398438 19.445312 C 57.089844 19.722656 56.78125 20 56.472656 20.277344 C 56.425781 20.316406 56.386719 20.363281 56.324219 20.429688 Z M 56.324219 20.429688 " fill-opacity="1" fill-rule="evenodd"/><path fill="#000000" d="M 45.648438 19.210938 C 45.578125 19.164062 45.539062 19.148438 45.515625 19.121094 C 45.457031 19.058594 45.40625 18.992188 45.359375 18.925781 C 44.828125 18.136719 44.316406 17.335938 43.863281 16.496094 C 43.800781 16.382812 43.722656 16.269531 43.714844 16.140625 C 43.777344 16.09375 43.804688 16.136719 43.824219 16.167969 C 43.890625 16.257812 43.957031 16.351562 44.019531 16.445312 C 44.480469 17.179688 44.945312 17.917969 45.402344 18.652344 C 45.480469 18.773438 45.546875 18.902344 45.613281 19.03125 C 45.632812 19.074219 45.632812 19.125 45.648438 19.210938 Z M 45.648438 19.210938 " fill-opacity="1" fill-rule="evenodd"/><path fill="#000000" d="M 47.0625 12.664062 C 47.496094 13.078125 49.867188 15.6875 50.035156 15.941406 C 49.988281 15.992188 49.964844 15.941406 49.941406 15.917969 C 49.871094 15.855469 49.800781 15.792969 49.738281 15.726562 C 48.921875 14.882812 48.117188 14.03125 47.367188 13.132812 C 47.269531 13.011719 47.175781 12.886719 47.082031 12.761719 C 47.070312 12.75 47.074219 12.726562 47.0625 12.664062 Z M 47.0625 12.664062 " fill-opacity="1" fill-rule="evenodd"/><path fill="#000000" d="M 43.664062 15.8125 C 43.664062 15.726562 43.652344 15.683594 43.667969 15.652344 C 43.792969 15.390625 43.921875 15.132812 44.050781 14.875 C 44.074219 14.832031 44.105469 14.78125 44.148438 14.753906 C 44.238281 14.699219 44.253906 14.613281 44.265625 14.519531 C 44.273438 14.480469 44.300781 14.449219 44.324219 14.414062 C 44.324219 14.40625 44.34375 14.410156 44.375 14.40625 C 44.394531 14.453125 44.429688 14.503906 44.433594 14.558594 C 44.453125 14.722656 44.464844 14.886719 44.476562 15.050781 C 44.488281 15.234375 44.5 15.421875 44.507812 15.605469 C 44.511719 15.816406 44.457031 15.878906 44.246094 15.914062 C 44.183594 15.925781 44.121094 15.925781 44.058594 15.925781 C 44.03125 15.925781 44.003906 15.90625 43.964844 15.894531 C 44.015625 15.761719 44.179688 15.796875 44.246094 15.664062 C 44.246094 15.441406 44.246094 15.183594 44.246094 14.929688 C 44.175781 14.90625 44.171875 14.957031 44.152344 14.992188 C 44.046875 15.203125 43.941406 15.417969 43.832031 15.625 C 43.800781 15.683594 43.742188 15.726562 43.664062 15.8125 Z M 43.664062 15.8125 " fill-opacity="1" fill-rule="evenodd"/><path fill="#000000" d="M 54.789062 16.558594 C 54.777344 16.625 54.777344 16.664062 54.761719 16.695312 C 54.625 16.941406 54.261719 17.398438 54.046875 17.582031 C 54.050781 17.527344 54.042969 17.488281 54.058594 17.464844 C 54.265625 17.183594 54.476562 16.902344 54.6875 16.621094 C 54.703125 16.601562 54.734375 16.589844 54.789062 16.558594 Z M 54.789062 16.558594 " fill-opacity="1" fill-rule="evenodd"/><path fill="#000000" d="M 45.261719 7.515625 C 45.328125 7.429688 45.40625 7.363281 45.558594 7.292969 C 45.472656 7.441406 45.386719 7.496094 45.292969 7.554688 C 45.285156 7.539062 45.273438 7.527344 45.261719 7.515625 Z M 45.261719 7.515625 " fill-opacity="1" fill-rule="evenodd"/><path fill="#000000" d="M 48.96875 5.546875 C 49.019531 5.496094 49.082031 5.480469 49.152344 5.484375 L 49.152344 5.480469 C 49.089844 5.5 49.027344 5.523438 48.964844 5.542969 Z M 48.96875 5.546875 " fill-opacity="1" fill-rule="evenodd"/><path fill="#000000" d="M 48.964844 5.542969 C 48.953125 5.558594 48.96875 5.542969 48.96875 5.546875 Z M 48.964844 5.542969 " fill-opacity="1" fill-rule="evenodd"/><path fill="#000000" d="M 43.152344 18.714844 C 43.140625 18.703125 43.128906 18.691406 43.121094 18.679688 C 43.128906 18.691406 43.140625 18.707031 43.148438 18.71875 Z M 43.152344 18.714844 " fill-opacity="1" fill-rule="evenodd"/><path fill="#000000" d="M 51.023438 16.972656 C 50.960938 16.972656 50.898438 16.980469 50.839844 16.960938 C 50.105469 16.738281 49.363281 16.535156 48.667969 16.199219 C 48.550781 16.140625 48.414062 16.109375 48.34375 15.976562 L 48.339844 15.984375 C 48.367188 15.988281 48.402344 15.988281 48.429688 16 C 49.144531 16.320312 49.898438 16.542969 50.640625 16.796875 C 50.773438 16.839844 50.925781 16.855469 51.019531 16.980469 Z M 51.023438 16.972656 " fill-opacity="1" fill-rule="evenodd"/><path fill="#000000" d="M 51.019531 16.980469 C 51.039062 16.980469 51.0625 16.980469 51.082031 16.980469 C 51.089844 16.984375 51.101562 16.988281 51.109375 16.992188 C 51.097656 17 51.078125 17.015625 51.070312 17.011719 C 51.050781 17.003906 51.039062 16.988281 51.023438 16.972656 Z M 51.019531 16.980469 " fill-opacity="1" fill-rule="evenodd"/><path fill="#000000" d="M 48.34375 15.976562 C 48.324219 15.976562 48.308594 15.972656 48.292969 15.96875 C 48.308594 15.972656 48.324219 15.976562 48.339844 15.984375 Z M 48.34375 15.976562 " fill-opacity="1" fill-rule="evenodd"/><path fill="#000000" d="M 52.726562 12.527344 C 52.667969 12.484375 52.621094 12.464844 52.59375 12.429688 C 52.496094 12.296875 52.398438 12.160156 52.308594 12.023438 C 51.921875 11.4375 51.515625 10.859375 51.046875 10.332031 C 51.003906 10.28125 50.96875 10.21875 50.925781 10.160156 C 51.019531 10.089844 51.050781 10.167969 51.089844 10.203125 C 51.59375 10.699219 52.042969 11.234375 52.410156 11.84375 C 52.503906 12 52.597656 12.160156 52.691406 12.324219 C 52.722656 12.375 52.746094 12.429688 52.726562 12.527344 Z M 52.726562 12.527344 " fill-opacity="1" fill-rule="evenodd"/><path fill="#000000" d="M 57.371094 9.21875 C 57.425781 9.21875 57.46875 9.207031 57.503906 9.21875 C 57.785156 9.304688 58.042969 9.4375 58.292969 9.582031 C 58.320312 9.597656 58.347656 9.617188 58.367188 9.640625 C 58.464844 9.734375 58.585938 9.820312 58.539062 9.976562 C 58.484375 10.148438 58.355469 10.25 58.175781 10.28125 C 58.039062 10.304688 57.90625 10.289062 57.785156 10.210938 C 57.679688 10.148438 57.582031 10.074219 57.480469 10 C 57.445312 9.976562 57.414062 9.949219 57.382812 9.921875 C 56.898438 9.53125 56.898438 9.527344 56.28125 9.539062 C 55.964844 9.546875 55.683594 9.472656 55.449219 9.253906 C 55.414062 9.226562 55.390625 9.179688 55.363281 9.140625 C 55.453125 9.097656 55.492188 9.160156 55.542969 9.1875 C 55.792969 9.339844 56.050781 9.40625 56.347656 9.339844 C 56.984375 9.199219 57.535156 9.425781 58.050781 9.773438 C 58.117188 9.820312 58.175781 9.878906 58.25 9.921875 C 58.277344 9.9375 58.320312 9.925781 58.367188 9.925781 C 58.339844 9.777344 58.238281 9.722656 58.136719 9.671875 C 57.976562 9.59375 57.816406 9.527344 57.65625 9.449219 C 57.574219 9.410156 57.492188 9.363281 57.414062 9.3125 C 57.394531 9.300781 57.390625 9.261719 57.371094 9.21875 Z M 57.371094 9.21875 " fill-opacity="1" fill-rule="evenodd"/><path fill="#000000" d="M 57.070312 11.648438 C 56.875 11.464844 56.707031 11.257812 56.566406 11.027344 C 56.5 10.925781 56.488281 10.8125 56.570312 10.710938 C 56.65625 10.601562 56.769531 10.566406 56.90625 10.597656 C 57.097656 10.640625 57.25 10.75 57.355469 10.910156 C 57.476562 11.089844 57.597656 11.269531 57.847656 11.414062 C 57.746094 11.421875 57.710938 11.433594 57.679688 11.425781 C 57.515625 11.390625 57.371094 11.304688 57.238281 11.203125 C 57.097656 11.097656 56.957031 10.992188 56.792969 10.933594 C 56.722656 10.984375 56.765625 11.03125 56.789062 11.070312 C 56.867188 11.191406 56.953125 11.308594 57.03125 11.429688 C 57.066406 11.488281 57.09375 11.550781 57.125 11.613281 C 57.105469 11.625 57.089844 11.636719 57.070312 11.648438 Z M 57.070312 11.648438 " fill-opacity="1" fill-rule="evenodd"/><path fill="#000000" d="M 56.511719 7.949219 C 56.5625 7.972656 56.617188 7.992188 56.660156 8.027344 C 56.734375 8.082031 56.796875 8.152344 56.867188 8.210938 C 56.886719 8.222656 56.933594 8.222656 56.953125 8.207031 C 56.972656 8.191406 56.992188 8.15625 56.992188 8.128906 C 56.980469 7.972656 56.902344 7.851562 56.757812 7.792969 C 56.664062 7.757812 56.558594 7.742188 56.457031 7.722656 C 56.359375 7.703125 56.253906 7.710938 56.167969 7.652344 C 56.175781 7.578125 56.226562 7.589844 56.261719 7.585938 C 56.46875 7.578125 56.675781 7.566406 56.875 7.652344 C 57.085938 7.746094 57.238281 7.890625 57.285156 8.125 C 57.320312 8.308594 57.253906 8.457031 57.113281 8.515625 C 56.972656 8.578125 56.796875 8.539062 56.699219 8.402344 C 56.609375 8.277344 56.542969 8.136719 56.46875 8.003906 C 56.480469 7.984375 56.496094 7.96875 56.511719 7.949219 Z M 56.511719 7.949219 " fill-opacity="1" fill-rule="evenodd"/><path fill="#000000" d="M 55.667969 7.796875 C 55.640625 7.832031 55.621094 7.867188 55.59375 7.894531 C 55.582031 7.90625 55.558594 7.902344 55.539062 7.910156 C 55.527344 7.832031 55.585938 7.804688 55.628906 7.765625 C 55.640625 7.773438 55.652344 7.785156 55.667969 7.796875 Z M 55.667969 7.796875 " fill-opacity="1" fill-rule="evenodd"/><path fill="#000000" d="M 58.957031 9.769531 C 58.945312 9.761719 58.957031 9.773438 58.957031 9.773438 Z M 58.957031 9.769531 " fill-opacity="1" fill-rule="evenodd"/><path fill="#000000" d="M 47.773438 8.714844 C 47.808594 8.75 47.851562 8.78125 47.875 8.824219 C 48.078125 9.207031 48.277344 9.59375 48.476562 9.976562 C 48.496094 10.011719 48.503906 10.054688 48.527344 10.117188 C 48.484375 10.105469 48.449219 10.109375 48.4375 10.09375 C 48.167969 9.6875 47.945312 9.257812 47.777344 8.804688 C 47.765625 8.777344 47.777344 8.742188 47.777344 8.710938 Z M 47.773438 8.714844 " fill-opacity="1" fill-rule="evenodd"/><path fill="#000000" d="M 47.777344 8.710938 C 47.765625 8.699219 47.75 8.6875 47.738281 8.671875 C 47.75 8.6875 47.761719 8.699219 47.773438 8.714844 Z M 47.777344 8.710938 " fill-opacity="1" fill-rule="evenodd"/><g clip-path="url(#da0c2fad48)"><g clip-path="url(#5a218ce904)"><g clip-path="url(#28c8998b4d)"><g clip-path="url(#efe76afd5e)"><g clip-path="url(#5e5fb8f419)"><g clip-path="url(#be203a0f90)"><path fill="#000000" d="M 81.644531 15.023438 C 83.585938 14.992188 85.523438 14.953125 87.464844 14.917969 C 85.992188 14.96875 84.523438 15.007812 83.050781 15.019531 C 82.582031 15.023438 82.113281 15.023438 81.644531 15.023438 Z M 71.527344 15.226562 C 70.875 15.238281 70.222656 15.230469 69.570312 15.203125 C 69.035156 15.183594 68.152344 14.988281 67.6875 15.050781 C 67.78125 15.035156 67.875 15.027344 67.964844 15.015625 C 68.933594 15.019531 69.898438 15.023438 70.867188 15.03125 C 71.96875 15.058594 73.070312 15.074219 74.171875 15.074219 C 74.417969 15.078125 74.660156 15.078125 74.902344 15.078125 C 73.78125 15.144531 72.660156 15.207031 71.527344 15.226562 Z M 67.503906 14.8125 C 68.5625 14.75 69.625 14.707031 70.691406 14.675781 C 69.902344 14.722656 69.121094 14.789062 68.34375 14.875 C 68.0625 14.855469 67.78125 14.835938 67.503906 14.8125 Z M 68.230469 14.648438 C 68.933594 14.613281 69.644531 14.59375 70.355469 14.574219 C 71.640625 14.542969 72.933594 14.542969 74.226562 14.546875 C 73.726562 14.554688 73.226562 14.5625 72.730469 14.578125 C 70.925781 14.613281 69.125 14.679688 67.332031 14.800781 C 65.882812 14.667969 68.015625 14.65625 68.230469 14.648438 Z M 85.726562 14.367188 C 87.074219 14.304688 88.441406 14.320312 89.800781 14.34375 C 90.175781 14.347656 90.554688 14.355469 90.929688 14.363281 C 90.628906 14.378906 90.328125 14.390625 90.023438 14.402344 C 88.113281 14.398438 86.199219 14.414062 84.292969 14.453125 C 84.769531 14.417969 85.246094 14.390625 85.726562 14.367188 Z M 96.351562 14.25 C 96.429688 14.25 96.507812 14.25 96.585938 14.25 C 96.058594 14.273438 95.527344 14.289062 94.996094 14.296875 C 95.445312 14.277344 95.898438 14.261719 96.351562 14.25 Z M 99.730469 14.453125 C 99.117188 14.46875 98.507812 14.488281 97.894531 14.503906 C 97.75 14.5 97.605469 14.5 97.464844 14.5 C 95.851562 14.464844 94.242188 14.4375 92.628906 14.421875 C 92.785156 14.410156 92.945312 14.402344 93.101562 14.394531 C 94.601562 14.40625 96.101562 14.386719 97.585938 14.277344 C 97.617188 14.277344 97.632812 14.265625 97.636719 14.253906 C 97.890625 14.257812 98.144531 14.261719 98.398438 14.273438 C 98.675781 14.285156 99.371094 14.277344 99.726562 14.367188 C 99.730469 14.398438 99.730469 14.425781 99.730469 14.453125 Z M 68.949219 14.902344 C 71.496094 14.640625 74.128906 14.601562 76.765625 14.632812 C 74.160156 14.726562 71.558594 14.851562 68.949219 14.902344 Z M 87.546875 14.484375 C 86.867188 14.503906 86.183594 14.535156 85.496094 14.5625 C 85.003906 14.550781 84.507812 14.539062 84.015625 14.527344 C 83.871094 14.523438 83.722656 14.523438 83.574219 14.523438 C 83.585938 14.519531 83.601562 14.519531 83.613281 14.519531 C 85.308594 14.476562 87.007812 14.453125 88.707031 14.453125 C 88.320312 14.464844 87.933594 14.476562 87.546875 14.484375 Z M 90.484375 14.53125 C 90.832031 14.519531 91.175781 14.503906 91.523438 14.484375 C 91.648438 14.476562 91.773438 14.46875 91.902344 14.460938 C 92.785156 14.472656 93.671875 14.484375 94.554688 14.496094 C 93.199219 14.503906 91.84375 14.515625 90.484375 14.53125 Z M 72.085938 14.960938 C 71.871094 14.957031 71.660156 14.953125 71.449219 14.949219 C 73.664062 14.882812 75.875 14.78125 78.089844 14.710938 C 76.09375 14.824219 74.089844 14.9375 72.085938 14.960938 Z M 83.207031 14.820312 C 81.109375 14.84375 79.023438 14.878906 76.941406 14.96875 C 76.917969 14.972656 76.890625 14.972656 76.863281 14.972656 C 75.800781 14.980469 74.734375 14.980469 73.667969 14.972656 C 75.609375 14.90625 77.550781 14.777344 79.46875 14.675781 C 80.566406 14.699219 81.664062 14.726562 82.746094 14.738281 C 83.554688 14.75 84.363281 14.757812 85.171875 14.765625 C 84.976562 14.769531 84.78125 14.777344 84.589844 14.78125 C 84.199219 14.792969 83.808594 14.804688 83.421875 14.816406 C 83.347656 14.816406 83.277344 14.816406 83.207031 14.820312 Z M 99.742188 14.054688 C 99.714844 14.109375 99.710938 14.171875 99.714844 14.230469 C 97.285156 13.945312 94.753906 14.140625 92.34375 14.285156 C 92.324219 14.289062 92.300781 14.289062 92.28125 14.289062 C 91.453125 14.277344 90.628906 14.261719 89.800781 14.25 C 88.550781 14.234375 87.304688 14.238281 86.0625 14.28125 C 85.5 14.300781 84.941406 14.335938 84.386719 14.378906 C 84.167969 14.394531 83.933594 14.433594 83.695312 14.46875 C 83.316406 14.480469 82.941406 14.484375 82.5625 14.496094 C 82.417969 14.503906 82.269531 14.507812 82.125 14.511719 C 81.488281 14.515625 80.855469 14.523438 80.222656 14.535156 C 75.625 14.46875 71.027344 14.386719 66.472656 14.707031 C 66.433594 14.707031 66.433594 14.746094 66.472656 14.75 C 66.675781 14.773438 66.878906 14.796875 67.082031 14.816406 C 66.625 14.847656 66.167969 14.882812 65.714844 14.921875 C 65.703125 14.921875 65.707031 14.929688 65.71875 14.929688 C 66.214844 14.890625 66.710938 14.859375 67.207031 14.828125 C 67.5 14.859375 67.789062 14.882812 68.082031 14.90625 C 68.046875 14.910156 68.015625 14.914062 67.980469 14.917969 C 67.78125 14.921875 67.578125 14.921875 67.378906 14.925781 C 67.296875 14.925781 67.285156 14.980469 67.335938 15.003906 C 67.28125 15.023438 67.28125 15.074219 67.355469 15.085938 C 69.621094 15.421875 71.925781 15.34375 74.195312 15.21875 C 75.050781 15.171875 75.902344 15.132812 76.753906 15.09375 C 78.980469 15.117188 81.203125 15.136719 83.425781 15.125 C 86.542969 15.109375 89.648438 14.949219 92.761719 14.859375 C 93.792969 14.871094 94.824219 14.863281 95.847656 14.832031 C 97.398438 14.835938 98.953125 14.855469 100.503906 14.894531 C 100.675781 14.898438 100.671875 14.757812 100.507812 14.746094 C 100.371094 14.734375 100.238281 14.71875 100.105469 14.703125 C 100.105469 14.703125 100.109375 14.703125 100.109375 14.703125 C 100.125 14.6875 100.144531 14.671875 100.160156 14.660156 C 100.234375 14.65625 100.304688 14.65625 100.378906 14.652344 C 100.5 14.648438 100.503906 14.546875 100.378906 14.542969 C 100.363281 14.542969 100.34375 14.542969 100.324219 14.542969 C 100.371094 14.503906 100.394531 14.460938 100.382812 14.382812 C 100.378906 14.347656 100.347656 14.316406 100.289062 14.304688 C 100.21875 14.296875 100.152344 14.289062 100.085938 14.277344 C 100.066406 14.207031 100.039062 14.132812 99.996094 14.0625 C 99.957031 13.992188 99.777344 13.980469 99.742188 14.054688 " fill-opacity="1" fill-rule="nonzero"/></g></g></g></g></g></g><g clip-path="url(#48a5ff8b40)"><path fill="#000000" d="M 22.480469 14.847656 C 20.457031 14.8125 18.4375 14.78125 16.414062 14.75 C 17.949219 14.75 19.480469 14.761719 21.015625 14.804688 C 21.503906 14.816406 21.992188 14.832031 22.480469 14.847656 Z M 33.027344 15.007812 C 33.707031 15.015625 34.386719 15.050781 35.066406 15.101562 C 35.621094 15.140625 36.535156 15.367188 37.019531 15.320312 C 36.921875 15.332031 36.824219 15.335938 36.730469 15.347656 C 35.722656 15.308594 34.714844 15.269531 33.707031 15.226562 C 32.558594 15.160156 31.410156 15.105469 30.265625 15.0625 C 30.011719 15.054688 29.757812 15.042969 29.507812 15.035156 C 30.675781 15.007812 31.847656 14.988281 33.027344 15.007812 Z M 37.203125 15.566406 C 36.097656 15.589844 34.988281 15.597656 33.878906 15.589844 C 34.699219 15.566406 35.519531 15.53125 36.332031 15.472656 C 36.621094 15.5 36.914062 15.53125 37.203125 15.566406 Z M 36.441406 15.703125 C 35.703125 15.714844 34.964844 15.707031 34.222656 15.699219 C 32.882812 15.6875 31.535156 15.640625 30.191406 15.589844 C 30.710938 15.601562 31.230469 15.609375 31.75 15.613281 C 33.632812 15.644531 35.511719 15.640625 37.378906 15.585938 C 38.886719 15.765625 36.664062 15.703125 36.441406 15.703125 Z M 18.203125 15.359375 C 16.796875 15.371094 15.375 15.308594 13.960938 15.238281 C 13.570312 15.21875 13.175781 15.199219 12.785156 15.179688 C 13.097656 15.175781 13.414062 15.171875 13.726562 15.167969 C 15.722656 15.242188 17.710938 15.296875 19.703125 15.324219 C 19.203125 15.34375 18.703125 15.355469 18.203125 15.359375 Z M 7.132812 15.097656 C 7.050781 15.09375 6.96875 15.089844 6.886719 15.089844 C 7.4375 15.082031 7.992188 15.089844 8.546875 15.101562 C 8.074219 15.101562 7.605469 15.101562 7.132812 15.097656 Z M 3.621094 14.773438 C 4.257812 14.777344 4.898438 14.78125 5.535156 14.789062 C 5.683594 14.796875 5.835938 14.800781 5.984375 14.808594 C 7.660156 14.898438 9.339844 14.984375 11.015625 15.058594 C 10.851562 15.0625 10.6875 15.066406 10.523438 15.070312 C 8.960938 15.003906 7.398438 14.96875 5.847656 15.023438 C 5.8125 15.027344 5.800781 15.035156 5.792969 15.046875 C 5.527344 15.035156 5.265625 15.019531 5 15 C 4.710938 14.980469 3.988281 14.960938 3.621094 14.859375 C 3.617188 14.828125 3.617188 14.800781 3.621094 14.773438 Z M 35.699219 15.421875 C 33.039062 15.59375 30.292969 15.539062 27.550781 15.414062 C 30.265625 15.414062 32.980469 15.382812 35.699219 15.421875 Z M 16.3125 15.175781 C 17.019531 15.183594 17.734375 15.175781 18.449219 15.171875 C 18.964844 15.203125 19.476562 15.234375 19.992188 15.257812 C 20.144531 15.269531 20.296875 15.273438 20.449219 15.28125 C 20.4375 15.28125 20.425781 15.28125 20.414062 15.285156 C 18.644531 15.265625 16.875 15.226562 15.101562 15.167969 C 15.503906 15.167969 15.910156 15.171875 16.3125 15.175781 Z M 13.253906 15.023438 C 12.894531 15.023438 12.53125 15.027344 12.171875 15.035156 C 12.039062 15.039062 11.90625 15.039062 11.777344 15.042969 C 10.855469 15.003906 9.933594 14.960938 9.011719 14.914062 C 10.425781 14.957031 11.839844 14.992188 13.253906 15.023438 Z M 32.433594 15.253906 C 32.65625 15.265625 32.878906 15.277344 33.097656 15.289062 C 30.789062 15.273438 28.480469 15.296875 26.171875 15.289062 C 28.257812 15.246094 30.347656 15.207031 32.433594 15.253906 Z M 20.847656 15 C 23.03125 15.046875 25.207031 15.089844 27.378906 15.070312 C 27.402344 15.070312 27.429688 15.070312 27.457031 15.070312 C 28.566406 15.101562 29.679688 15.140625 30.789062 15.183594 C 28.761719 15.179688 26.738281 15.242188 24.734375 15.273438 C 23.589844 15.210938 22.449219 15.148438 21.324219 15.09375 C 20.480469 15.054688 19.636719 15.015625 18.796875 14.980469 C 19 14.984375 19.203125 14.984375 19.40625 14.984375 C 19.8125 14.988281 20.21875 14.992188 20.621094 14.992188 C 20.699219 14.996094 20.773438 14.996094 20.847656 15 Z M 3.59375 15.171875 C 3.625 15.117188 3.628906 15.058594 3.628906 14.996094 C 6.148438 15.367188 8.792969 15.261719 11.308594 15.203125 C 11.328125 15.203125 11.351562 15.203125 11.375 15.203125 C 12.234375 15.242188 13.097656 15.289062 13.957031 15.328125 C 15.257812 15.390625 16.554688 15.433594 17.851562 15.433594 C 18.4375 15.4375 19.019531 15.417969 19.597656 15.394531 C 19.828125 15.386719 20.074219 15.359375 20.324219 15.328125 C 20.71875 15.332031 21.109375 15.339844 21.503906 15.339844 C 21.65625 15.34375 21.808594 15.34375 21.964844 15.34375 C 22.625 15.363281 23.285156 15.378906 23.945312 15.390625 C 28.730469 15.617188 33.519531 15.863281 38.269531 15.707031 C 38.3125 15.707031 38.3125 15.671875 38.273438 15.664062 C 38.0625 15.632812 37.855469 15.605469 37.644531 15.578125 C 38.121094 15.5625 38.59375 15.542969 39.070312 15.519531 C 39.082031 15.519531 39.078125 15.511719 39.066406 15.511719 C 38.546875 15.53125 38.03125 15.546875 37.511719 15.558594 C 37.210938 15.519531 36.90625 15.484375 36.601562 15.453125 C 36.636719 15.449219 36.671875 15.445312 36.710938 15.441406 C 36.917969 15.449219 37.128906 15.453125 37.335938 15.457031 C 37.421875 15.460938 37.4375 15.40625 37.382812 15.382812 C 37.441406 15.363281 37.441406 15.308594 37.367188 15.296875 C 35.019531 14.882812 32.613281 14.875 30.246094 14.921875 C 29.355469 14.9375 28.464844 14.945312 27.578125 14.953125 C 25.261719 14.847656 22.945312 14.753906 20.628906 14.683594 C 17.382812 14.589844 14.140625 14.636719 10.894531 14.617188 C 9.820312 14.570312 8.746094 14.539062 7.679688 14.53125 C 6.0625 14.472656 4.445312 14.402344 2.828125 14.304688 C 2.648438 14.292969 2.652344 14.433594 2.824219 14.453125 C 2.964844 14.46875 3.101562 14.488281 3.238281 14.507812 C 3.238281 14.511719 3.234375 14.507812 3.234375 14.511719 C 3.214844 14.527344 3.199219 14.539062 3.179688 14.550781 C 3.105469 14.550781 3.027344 14.550781 2.953125 14.550781 C 2.824219 14.550781 2.816406 14.652344 2.949219 14.660156 C 2.964844 14.660156 2.984375 14.660156 3.003906 14.660156 C 2.957031 14.699219 2.925781 14.742188 2.9375 14.820312 C 2.941406 14.855469 2.972656 14.890625 3.035156 14.898438 C 3.105469 14.914062 3.175781 14.921875 3.242188 14.933594 C 3.261719 15.007812 3.285156 15.082031 3.328125 15.15625 C 3.367188 15.226562 3.554688 15.246094 3.59375 15.171875 " fill-opacity="1" fill-rule="nonzero"/></g></svg>