<svg xmlns="http://www.w3.org/2000/svg" xmlns:xlink="http://www.w3.org/1999/xlink" width="140" zoomAndPan="magnify" viewBox="0 0 104.88 30.000001" height="40" preserveAspectRatio="xMidYMid meet" version="1.0"><defs><clipPath id="f453d4dae0"><path d="M 42 4.117188 L 63.441406 4.117188 L 63.441406 25 L 42 25 Z M 42 4.117188 " clip-rule="nonzero"/></clipPath><clipPath id="460a3f7a7b"><path d="M 49 4.117188 L 57 4.117188 L 57 6 L 49 6 Z M 49 4.117188 " clip-rule="nonzero"/></clipPath><clipPath id="6e3ed71bc8"><path d="M 42 13 L 51 13 L 51 25.890625 L 42 25.890625 Z M 42 13 " clip-rule="nonzero"/></clipPath><clipPath id="f6b87b05ac"><path d="M 50.046875 14.359375 L 63.183594 14.359375 L 63.183594 25.890625 L 50.046875 25.890625 Z M 50.046875 14.359375 " clip-rule="nonzero"/></clipPath><clipPath id="d1961b3475"><path d="M 55 23 L 56 23 L 56 25.890625 L 55 25.890625 Z M 55 23 " clip-rule="nonzero"/></clipPath><clipPath id="f2d7cabefa"><path d="M 53 24 L 54 24 L 54 25.890625 L 53 25.890625 Z M 53 24 " clip-rule="nonzero"/></clipPath><clipPath id="5a8d56be79"><path d="M 66 14 L 102 14 L 102 16 L 66 16 Z M 66 14 " clip-rule="nonzero"/></clipPath><clipPath id="8eaba5b108"><path d="M 65.914062 15.136719 L 101.457031 13.867188 L 101.507812 15.316406 L 65.964844 16.585938 Z M 65.914062 15.136719 " clip-rule="nonzero"/></clipPath><clipPath id="9a44a81da5"><path d="M 65.914062 15.136719 L 101.457031 13.867188 L 101.507812 15.316406 L 65.964844 16.585938 Z M 65.914062 15.136719 " clip-rule="nonzero"/></clipPath><clipPath id="2ec35dea75"><path d="M 65.914062 15.136719 L 101.457031 13.867188 L 101.507812 15.316406 L 65.964844 16.585938 Z M 65.914062 15.136719 " clip-rule="nonzero"/></clipPath><clipPath id="ad0f17cbea"><path d="M 66.242188 15.125 L 101.152344 13.875 L 101.207031 15.332031 L 66.292969 16.578125 Z M 66.242188 15.125 " clip-rule="nonzero"/></clipPath><clipPath id="27224a8bb8"><path d="M 66.242188 15.125 L 101.125 13.878906 L 101.179688 15.328125 L 66.292969 16.574219 Z M 66.242188 15.125 " clip-rule="nonzero"/></clipPath><clipPath id="1ad68a2af7"><path d="M 3.238281 14.746094 L 39.621094 14.746094 L 39.621094 16.195312 L 3.238281 16.195312 Z M 3.238281 14.746094 " clip-rule="nonzero"/></clipPath></defs><path fill="#000000" d="M 54.6875 19.820312 C 54.460938 20.777344 52.65625 21.164062 51.816406 21.117188 C 50.34375 21.035156 48.929688 19.695312 48.574219 18.335938 C 48.171875 16.796875 48.703125 15.046875 49.320312 13.632812 C 49.65625 12.855469 50.070312 12.109375 50.523438 11.386719 C 50.648438 11.191406 50.296875 11.0625 50.1875 11.238281 C 49.988281 11.554688 49.796875 11.875 49.617188 12.199219 C 48.363281 14.457031 47.164062 17.636719 49.019531 19.914062 C 49.976562 21.09375 51.46875 21.707031 52.980469 21.339844 C 53.539062 21.203125 54.117188 20.996094 54.570312 20.636719 C 54.769531 20.476562 54.949219 20.277344 55.039062 20.035156 C 55.15625 19.722656 54.753906 19.535156 54.6875 19.820312 C 54.5 20.613281 54.738281 19.59375 54.6875 19.820312 " fill-opacity="1" fill-rule="nonzero"/><path fill="#000000" d="M 55.015625 19.765625 C 54.992188 19.335938 54.820312 18.9375 54.664062 18.539062 C 54.585938 18.335938 54.207031 18.425781 54.289062 18.644531 C 54.433594 19.042969 54.589844 19.441406 54.609375 19.867188 C 54.625 20.1875 55.1875 20 55.015625 19.765625 C 54.992188 19.34375 55.078125 19.847656 55.015625 19.765625 " fill-opacity="1" fill-rule="nonzero"/><path fill="#000000" d="M 54.207031 18.367188 C 53.640625 18.992188 52.585938 19.652344 51.800781 18.976562 C 50.851562 18.152344 50.714844 16.972656 51.277344 15.921875 C 51.757812 15.019531 52.457031 14.164062 53.304688 13.558594 C 53.460938 13.449219 54.378906 13.207031 54.394531 13.140625 C 54.507812 12.761719 53.683594 12.96875 53.574219 13.023438 C 52.0625 13.742188 50.1875 15.898438 50.570312 17.628906 C 50.757812 18.464844 51.421875 19.511719 52.375 19.617188 C 52.929688 19.679688 53.46875 19.421875 53.898438 19.105469 C 54.109375 18.949219 54.304688 18.773438 54.476562 18.578125 C 54.621094 18.417969 54.347656 18.210938 54.207031 18.367188 C 53.582031 19.058594 54.355469 18.207031 54.207031 18.367188 " fill-opacity="1" fill-rule="nonzero"/><path fill="#000000" d="M 54.464844 12.933594 C 54.363281 12.386719 53.472656 12.214844 53.042969 12.035156 C 52.199219 11.683594 51.519531 11.101562 50.597656 10.90625 C 50.480469 10.882812 50.367188 10.960938 50.375 11.082031 C 50.386719 11.253906 50.632812 11.261719 50.742188 11.292969 C 51.238281 11.429688 51.691406 11.671875 52.132812 11.933594 C 52.554688 12.179688 52.972656 12.40625 53.425781 12.597656 C 53.5 12.628906 54.523438 13.246094 54.464844 12.933594 C 54.363281 12.382812 54.476562 13 54.464844 12.933594 " fill-opacity="1" fill-rule="nonzero"/><path fill="#000000" d="M 54.003906 12.8125 C 54 12.8125 54 12.820312 54.003906 12.820312 C 54.011719 12.820312 54.011719 12.8125 54.003906 12.8125 " fill-opacity="1" fill-rule="nonzero"/><path fill="#000000" d="M 55.867188 10.855469 C 55.015625 11.46875 53.851562 11.0625 53.046875 10.578125 C 52.15625 10.046875 51.921875 8.957031 52.9375 8.386719 C 53.09375 8.554688 54.007812 8.246094 54.257812 8.242188 C 54.800781 8.230469 55.339844 8.359375 55.796875 8.648438 C 56.621094 9.164062 56.65625 10.285156 55.867188 10.855469 C 54.917969 11.539062 56.667969 10.277344 55.867188 10.855469 Z M 56.425781 8.613281 C 55.828125 7.984375 54.636719 7.625 53.695312 7.847656 C 53.367188 7.292969 51.988281 8.785156 51.894531 9.136719 C 51.625 10.15625 52.621094 10.878906 53.460938 11.207031 C 54.414062 11.582031 55.699219 11.695312 56.457031 10.867188 C 57.039062 10.230469 57.011719 9.238281 56.425781 8.613281 C 55.828125 7.984375 57.195312 9.433594 56.425781 8.613281 " fill-opacity="1" fill-rule="nonzero"/><path fill="#000000" d="M 53.273438 8.160156 C 53.035156 8.503906 52.789062 8.84375 52.535156 9.179688 C 52.421875 9.324219 52.289062 9.460938 52.183594 9.613281 C 52.300781 9.445312 51.992188 9.976562 52.164062 9.8125 C 52.332031 9.660156 53.429688 8.171875 53.359375 8.136719 C 53.332031 8.144531 53.304688 8.152344 53.273438 8.160156 C 53.035156 8.503906 53.316406 8.101562 53.273438 8.160156 " fill-opacity="1" fill-rule="nonzero"/><path fill="#000000" d="M 53.886719 8.207031 C 53.742188 8.382812 52.070312 10.34375 52.292969 10.445312 C 52.367188 10.480469 52.539062 10.292969 52.460938 10.265625 C 52.707031 9.851562 52.984375 9.472656 53.292969 9.101562 C 53.464844 8.894531 53.640625 8.691406 53.8125 8.488281 C 53.832031 8.460938 54.015625 8.046875 53.886719 8.207031 C 53.589844 8.570312 53.9375 8.148438 53.886719 8.207031 " fill-opacity="1" fill-rule="nonzero"/><path fill="#000000" d="M 54.765625 8.144531 C 54.371094 8.636719 54.046875 9.175781 53.675781 9.683594 C 53.5 9.925781 53.324219 10.167969 53.085938 10.355469 C 53.0625 10.375 52.863281 10.667969 53.003906 10.613281 C 53.371094 10.457031 53.769531 9.769531 53.984375 9.460938 C 54.179688 9.183594 54.363281 8.902344 54.558594 8.625 C 54.65625 8.488281 54.757812 8.351562 54.863281 8.21875 C 54.910156 8.164062 54.816406 8.085938 54.765625 8.144531 C 54.371094 8.636719 54.816406 8.085938 54.765625 8.144531 " fill-opacity="1" fill-rule="nonzero"/><path fill="#000000" d="M 55.5 8.21875 C 55.0625 8.796875 54.605469 9.367188 54.210938 9.976562 C 54.101562 10.152344 53.988281 10.324219 53.902344 10.511719 C 53.824219 10.664062 53.886719 10.816406 53.886719 10.832031 C 53.859375 10.835938 53.859375 10.835938 53.878906 10.828125 C 54.125 10.6875 54.40625 9.910156 54.578125 9.65625 C 54.683594 9.507812 55.691406 8.300781 55.617188 8.214844 C 55.578125 8.179688 55.539062 8.179688 55.5 8.21875 C 55.085938 8.765625 55.546875 8.15625 55.5 8.21875 " fill-opacity="1" fill-rule="nonzero"/><path fill="#000000" d="M 56.175781 8.695312 C 55.839844 9.238281 55.398438 9.707031 55.015625 10.214844 C 54.957031 10.289062 54.34375 11.25 54.476562 11.234375 C 54.652344 11.214844 55.128906 10.269531 55.253906 10.113281 C 55.375 9.960938 56.414062 8.835938 56.292969 8.691406 C 56.25 8.65625 56.210938 8.65625 56.175781 8.695312 C 55.875 9.175781 56.214844 8.628906 56.175781 8.695312 " fill-opacity="1" fill-rule="nonzero"/><path fill="#000000" d="M 56.515625 9.421875 C 56.421875 9.566406 55.402344 11.15625 55.402344 11.15625 C 55.574219 11.25 56.710938 9.511719 56.628906 9.414062 C 56.589844 9.382812 56.550781 9.382812 56.515625 9.421875 C 56.347656 9.691406 56.554688 9.355469 56.515625 9.421875 " fill-opacity="1" fill-rule="nonzero"/><path fill="#000000" d="M 50.71875 11.519531 C 50.609375 11.648438 49.480469 12.953125 49.59375 13.023438 C 49.660156 13.066406 50.234375 12.285156 50.300781 12.199219 C 50.410156 12.0625 50.519531 11.925781 50.632812 11.789062 C 50.5625 11.875 50.863281 11.347656 50.71875 11.519531 C 50.324219 11.992188 50.761719 11.46875 50.71875 11.519531 " fill-opacity="1" fill-rule="nonzero"/><path fill="#000000" d="M 51.664062 11.398438 C 51.058594 12.035156 50.574219 12.761719 50.0625 13.46875 C 49.945312 13.632812 48.582031 15.183594 48.582031 15.183594 C 48.789062 15.304688 50.042969 13.675781 50.1875 13.476562 C 50.488281 13.066406 50.777344 12.648438 51.085938 12.246094 C 51.242188 12.046875 51.40625 11.847656 51.574219 11.65625 C 51.480469 11.757812 51.84375 11.207031 51.664062 11.398438 C 51.101562 11.988281 51.710938 11.347656 51.664062 11.398438 " fill-opacity="1" fill-rule="nonzero"/><path fill="#000000" d="M 52.199219 11.890625 C 51.851562 12.367188 48.25 17.28125 48.171875 17.234375 C 48.328125 17.328125 50.125 14.835938 50.3125 14.59375 C 50.671875 14.121094 51.03125 13.644531 51.386719 13.167969 C 51.589844 12.894531 51.792969 12.621094 51.996094 12.347656 C 52.09375 12.210938 52.195312 12.074219 52.296875 11.9375 C 52.296875 11.863281 52.265625 11.851562 52.199219 11.890625 C 51.53125 12.800781 52.238281 11.839844 52.199219 11.890625 " fill-opacity="1" fill-rule="nonzero"/><path fill="#000000" d="M 52.734375 12.128906 C 52.03125 13.371094 51.15625 14.503906 50.371094 15.695312 C 50.222656 15.917969 48.492188 18.71875 48.585938 18.746094 C 48.726562 18.792969 50.429688 15.8125 50.621094 15.53125 C 51.042969 14.90625 51.484375 14.292969 51.90625 13.667969 C 52.097656 13.390625 52.28125 13.109375 52.457031 12.824219 C 52.546875 12.683594 52.632812 12.539062 52.714844 12.394531 C 52.71875 12.390625 52.835938 11.949219 52.734375 12.128906 C 52.078125 13.292969 52.769531 12.066406 52.734375 12.128906 " fill-opacity="1" fill-rule="nonzero"/><path fill="#000000" d="M 53.351562 12.480469 C 53.273438 12.570312 52.652344 13.515625 52.773438 13.570312 C 52.855469 13.605469 53.132812 13.007812 53.171875 12.941406 C 53.191406 12.910156 53.5 12.308594 53.351562 12.480469 C 53.082031 12.792969 53.398438 12.425781 53.351562 12.480469 " fill-opacity="1" fill-rule="nonzero"/><path fill="#000000" d="M 50.433594 17.019531 C 50.363281 17.246094 49.179688 19.605469 49.261719 19.644531 C 49.359375 19.683594 49.855469 18.550781 49.910156 18.4375 C 50.058594 18.128906 50.226562 17.828125 50.367188 17.515625 C 50.4375 17.359375 50.496094 17.203125 50.546875 17.039062 C 50.523438 16.96875 50.484375 16.960938 50.433594 17.019531 C 50.292969 17.488281 50.453125 16.953125 50.433594 17.019531 " fill-opacity="1" fill-rule="nonzero"/><path fill="#000000" d="M 50.707031 18.328125 C 50.597656 18.523438 49.433594 20.25 49.808594 20.359375 C 49.765625 20.347656 50.164062 19.441406 50.191406 19.390625 C 50.308594 19.179688 50.4375 18.980469 50.566406 18.78125 C 50.652344 18.648438 50.734375 18.511719 50.8125 18.375 C 50.808594 18.296875 50.773438 18.28125 50.707031 18.328125 C 50.511719 18.671875 50.742188 18.269531 50.707031 18.328125 " fill-opacity="1" fill-rule="nonzero"/><path fill="#000000" d="M 51.386719 19.113281 C 51.09375 19.507812 50.863281 19.941406 50.617188 20.363281 C 50.597656 20.402344 50.277344 21.195312 50.507812 21.082031 C 50.554688 21.058594 50.863281 20.160156 50.925781 20.058594 C 51.027344 19.871094 51.132812 19.691406 51.246094 19.507812 C 51.273438 19.46875 51.519531 18.9375 51.386719 19.113281 C 51.136719 19.453125 51.425781 19.0625 51.386719 19.113281 " fill-opacity="1" fill-rule="nonzero"/><path fill="#000000" d="M 52.253906 19.605469 C 52.21875 19.734375 51.726562 21.089844 51.90625 21.09375 C 52.007812 21.097656 52.117188 20.4375 52.144531 20.351562 C 52.199219 20.191406 52.246094 20.03125 52.300781 19.871094 C 52.304688 19.851562 52.3125 19.414062 52.253906 19.605469 C 52.121094 20.070312 52.273438 19.539062 52.253906 19.605469 " fill-opacity="1" fill-rule="nonzero"/><path fill="#000000" d="M 53.398438 19.484375 C 53.378906 19.640625 53.140625 21.21875 53.257812 21.222656 C 53.394531 21.230469 53.414062 20.492188 53.425781 20.390625 C 53.449219 20.171875 53.476562 19.949219 53.503906 19.730469 C 53.503906 19.722656 53.421875 19.28125 53.398438 19.484375 C 53.359375 19.777344 53.40625 19.40625 53.398438 19.484375 " fill-opacity="1" fill-rule="nonzero"/><path fill="#000000" d="M 54.140625 18.824219 C 54.121094 19 53.933594 20.527344 54.136719 20.550781 C 54.230469 20.558594 54.230469 19.660156 54.234375 19.566406 C 54.234375 19.40625 54.238281 19.246094 54.25 19.085938 C 54.242188 19.1875 54.171875 18.570312 54.140625 18.824219 C 54.078125 19.375 54.152344 18.746094 54.140625 18.824219 " fill-opacity="1" fill-rule="nonzero"/><g clip-path="url(#f453d4dae0)"><path fill="#000000" d="M 62.253906 9.765625 C 61.867188 8.917969 61.269531 8.183594 60.628906 7.503906 C 59.972656 6.8125 59.289062 5.9375 58.421875 5.492188 C 57.617188 5.074219 56.636719 4.785156 55.722656 4.785156 C 55.238281 4.785156 54.761719 4.875 54.304688 5.03125 C 54.175781 5.074219 54.109375 5.214844 54.164062 5.335938 C 54.273438 5.5625 54.75 5.410156 54.929688 5.394531 C 55.949219 5.300781 56.863281 5.445312 57.789062 5.878906 C 58.683594 6.296875 59.316406 7.078125 59.992188 7.769531 C 61.402344 9.207031 62.265625 10.910156 62.480469 12.910156 C 62.710938 15.054688 61.929688 17.144531 60.835938 18.972656 C 59.84375 20.636719 58.605469 22.226562 56.796875 23.09375 C 55.09375 23.914062 53.105469 24.074219 51.261719 23.675781 C 50.347656 23.480469 49.480469 23.082031 48.609375 22.753906 C 47.578125 22.371094 46.921875 21.675781 46.15625 20.933594 C 45.484375 20.28125 44.71875 19.734375 44.160156 18.976562 C 43.613281 18.234375 43.25 17.378906 43.070312 16.480469 C 42.714844 14.699219 43.019531 12.765625 43.757812 11.109375 C 44.574219 9.277344 46 7.816406 47.75 6.792969 C 49.449219 5.796875 51.644531 5.0625 53.613281 4.847656 C 54.039062 4.800781 54.667969 4.953125 55.058594 4.820312 C 55.292969 4.746094 55.316406 4.398438 55.039062 4.371094 C 53.933594 4.257812 52.824219 4.445312 51.757812 4.726562 C 49.777344 5.25 47.835938 5.949219 46.214844 7.214844 C 43.328125 9.472656 41.675781 13.378906 42.605469 16.957031 C 42.957031 18.320312 43.738281 19.457031 44.761719 20.429688 C 45.660156 21.285156 46.53125 22.320312 47.613281 22.960938 C 50.171875 24.476562 53.582031 25.03125 56.402344 23.964844 C 59.097656 22.945312 61.023438 20.5 62.113281 17.949219 C 63.21875 15.363281 63.441406 12.363281 62.253906 9.765625 C 61.777344 8.71875 62.777344 10.910156 62.253906 9.765625 " fill-opacity="1" fill-rule="nonzero"/></g><g clip-path="url(#460a3f7a7b)"><path fill="#000000" d="M 56.488281 5.085938 C 55.355469 4.554688 54.0625 4.324219 52.808594 4.40625 C 52.445312 4.429688 49.230469 5.097656 49.664062 5.703125 C 49.800781 5.894531 50.992188 5.195312 51.25 5.117188 C 51.863281 4.933594 52.507812 4.859375 53.148438 4.859375 C 53.800781 4.859375 54.453125 4.933594 55.089844 5.0625 C 55.4375 5.132812 55.78125 5.21875 56.121094 5.320312 C 56.277344 5.367188 56.871094 5.269531 56.488281 5.085938 C 54.433594 4.117188 56.703125 5.191406 56.488281 5.085938 " fill-opacity="1" fill-rule="nonzero"/></g><g clip-path="url(#6e3ed71bc8)"><path fill="#000000" d="M 50.820312 24.652344 C 50.179688 24.3125 49.519531 24.109375 48.925781 23.679688 C 48.367188 23.277344 47.746094 22.917969 47.226562 22.464844 C 46.703125 22.007812 46.230469 21.507812 45.6875 21.066406 C 45.160156 20.640625 44.664062 20.203125 44.265625 19.65625 C 43.511719 18.621094 43.117188 17.382812 42.941406 16.132812 C 42.855469 15.511719 42.820312 14.882812 42.820312 14.253906 C 42.820312 14.042969 42.929688 13.515625 42.804688 13.335938 C 42.695312 13.183594 42.40625 13.273438 42.398438 13.457031 C 42.289062 15.976562 42.636719 18.769531 44.460938 20.699219 C 44.929688 21.191406 45.480469 21.597656 45.976562 22.0625 C 46.492188 22.546875 46.984375 23.066406 47.582031 23.460938 C 48.203125 23.867188 48.753906 24.367188 49.40625 24.734375 C 49.710938 24.910156 50.058594 25.066406 50.417969 25.066406 C 50.585938 25.066406 51.238281 24.875 50.820312 24.652344 C 50.320312 24.386719 50.941406 24.71875 50.820312 24.652344 " fill-opacity="1" fill-rule="nonzero"/></g><g clip-path="url(#f6b87b05ac)"><path fill="#000000" d="M 62.925781 14.492188 C 62.875 14.402344 62.800781 14.382812 62.710938 14.433594 C 62.566406 14.523438 62.65625 14.921875 62.660156 15.050781 C 62.671875 15.476562 62.695312 15.90625 62.695312 16.332031 C 62.699219 17.242188 62.554688 18.136719 62.277344 19.007812 C 61.773438 20.578125 60.753906 21.996094 59.585938 23.167969 C 58.3125 24.445312 56.710938 24.773438 55 25.191406 C 54.042969 25.421875 53.199219 25.300781 52.246094 25.113281 C 51.863281 25.039062 50.285156 24.355469 50.121094 24.863281 C 49.964844 25.34375 51.878906 25.617188 52.207031 25.683594 C 53.128906 25.871094 53.996094 25.980469 54.929688 25.796875 C 56.628906 25.46875 58.414062 25.066406 59.695312 23.867188 C 60.890625 22.742188 61.941406 21.332031 62.519531 19.800781 C 63.113281 18.226562 63.441406 16.121094 62.925781 14.492188 C 62.882812 14.351562 63.164062 15.246094 62.925781 14.492188 " fill-opacity="1" fill-rule="nonzero"/></g><path fill="#000000" d="M 62.253906 16.777344 C 62.125 17.246094 62.070312 17.734375 62.074219 18.21875 C 62.078125 18.363281 62.160156 19.824219 62.167969 19.828125 C 62.4375 19.914062 62.222656 18.570312 62.21875 18.464844 C 62.207031 18.285156 62.328125 16.734375 62.332031 16.734375 C 62.304688 16.75 62.28125 16.761719 62.253906 16.777344 C 62.125 17.25 62.273438 16.703125 62.253906 16.777344 " fill-opacity="1" fill-rule="nonzero"/><path fill="#000000" d="M 61.605469 20.007812 C 61.578125 19.660156 61.492188 19.320312 61.457031 18.972656 C 61.390625 18.34375 61.300781 18.875 61.34375 19.164062 C 61.367188 19.328125 61.488281 21.144531 61.351562 21.089844 C 61.667969 21.207031 61.617188 20.125 61.605469 20.007812 C 61.570312 19.574219 61.632812 20.324219 61.605469 20.007812 " fill-opacity="1" fill-rule="nonzero"/><path fill="#000000" d="M 60.765625 21.070312 C 60.765625 20.8125 60.765625 20.554688 60.765625 20.292969 C 60.765625 19.890625 60.625 19.921875 60.625 20.300781 C 60.625 20.453125 60.578125 22.0625 60.695312 22.054688 C 60.839844 22.042969 60.765625 21.179688 60.765625 21.070312 C 60.765625 20.726562 60.765625 21.382812 60.765625 21.070312 " fill-opacity="1" fill-rule="nonzero"/><path fill="#000000" d="M 59.746094 22.242188 C 59.738281 21.886719 59.71875 21.53125 59.683594 21.179688 C 59.632812 21.097656 59.585938 21.101562 59.542969 21.183594 C 59.5625 21.363281 59.574219 21.539062 59.582031 21.714844 C 59.589844 21.839844 59.558594 23.273438 59.683594 23.261719 C 59.851562 23.246094 59.746094 22.363281 59.746094 22.242188 C 59.738281 21.886719 59.75 22.558594 59.746094 22.242188 " fill-opacity="1" fill-rule="nonzero"/><path fill="#000000" d="M 58.542969 23.476562 C 58.539062 23.183594 58.496094 22.894531 58.476562 22.601562 C 58.457031 22.253906 58.3125 22.273438 58.335938 22.621094 C 58.355469 22.914062 58.386719 23.203125 58.398438 23.496094 C 58.402344 23.585938 58.292969 24.253906 58.3125 24.269531 C 58.472656 24.421875 58.542969 23.527344 58.542969 23.476562 C 58.539062 23.109375 58.546875 23.730469 58.542969 23.476562 " fill-opacity="1" fill-rule="nonzero"/><path fill="#000000" d="M 56.863281 24.167969 C 56.875 23.960938 56.898438 23.757812 56.910156 23.550781 C 56.929688 23.214844 56.785156 23.242188 56.757812 23.539062 C 56.746094 23.671875 56.578125 24.980469 56.847656 24.941406 C 56.921875 24.933594 56.859375 24.246094 56.863281 24.167969 C 56.878906 23.890625 56.851562 24.414062 56.863281 24.167969 " fill-opacity="1" fill-rule="nonzero"/><g clip-path="url(#d1961b3475)"><path fill="#000000" d="M 55.488281 23.996094 C 55.46875 24.105469 55.242188 25.183594 55.351562 25.1875 C 55.46875 25.1875 55.539062 24.566406 55.554688 24.480469 C 55.578125 24.328125 55.601562 24.175781 55.628906 24.023438 C 55.644531 23.941406 55.503906 23.914062 55.488281 23.996094 " fill-opacity="1" fill-rule="nonzero"/></g><g clip-path="url(#f2d7cabefa)"><path fill="#000000" d="M 53.667969 24.238281 C 53.644531 24.355469 53.339844 25.339844 53.375 25.363281 C 53.488281 25.4375 53.671875 24.890625 53.6875 24.832031 C 53.722656 24.707031 53.75 24.578125 53.769531 24.449219 C 53.777344 24.410156 53.703125 24.039062 53.667969 24.238281 C 53.59375 24.609375 53.679688 24.15625 53.667969 24.238281 " fill-opacity="1" fill-rule="nonzero"/></g><path fill="#000000" d="M 52.125 24.167969 C 52.089844 24.242188 51.765625 24.914062 51.824219 24.941406 C 51.910156 24.976562 52.039062 24.613281 52.054688 24.570312 C 52.082031 24.511719 52.214844 23.996094 52.125 24.167969 C 52.003906 24.402344 52.160156 24.105469 52.125 24.167969 " fill-opacity="1" fill-rule="nonzero"/><path fill="#000000" d="M 50.484375 24.125 C 50.46875 24.15625 50.363281 24.546875 50.359375 24.554688 C 50.363281 24.550781 50.496094 24.097656 50.484375 24.125 C 50.414062 24.261719 50.484375 24.117188 50.484375 24.125 " fill-opacity="1" fill-rule="nonzero"/><path fill="#000000" d="M 50.28125 24.296875 C 50.230469 23.425781 49.941406 24.304688 50.1875 24.632812 C 50.300781 24.78125 50.28125 24.277344 50.28125 24.296875 C 50.277344 24.175781 50.289062 24.402344 50.28125 24.296875 " fill-opacity="1" fill-rule="nonzero"/><g clip-path="url(#5a8d56be79)"><g clip-path="url(#8eaba5b108)"><g clip-path="url(#9a44a81da5)"><g clip-path="url(#2ec35dea75)"><g clip-path="url(#ad0f17cbea)"><g clip-path="url(#27224a8bb8)"><path fill="#000000" d="M 82.1875 15.464844 C 84.128906 15.429688 86.066406 15.390625 88.007812 15.355469 C 86.539062 15.40625 85.066406 15.449219 83.59375 15.457031 C 83.125 15.460938 82.65625 15.460938 82.1875 15.464844 Z M 72.070312 15.667969 C 71.417969 15.679688 70.765625 15.667969 70.113281 15.644531 C 69.578125 15.621094 68.695312 15.425781 68.230469 15.488281 C 68.324219 15.476562 68.417969 15.464844 68.507812 15.453125 C 69.476562 15.457031 70.441406 15.464844 71.410156 15.472656 C 72.511719 15.5 73.613281 15.515625 74.714844 15.515625 C 74.960938 15.515625 75.203125 15.519531 75.445312 15.519531 C 74.324219 15.585938 73.203125 15.644531 72.070312 15.667969 Z M 68.046875 15.25 C 69.105469 15.191406 70.167969 15.144531 71.234375 15.113281 C 70.445312 15.164062 69.664062 15.226562 68.886719 15.3125 C 68.605469 15.296875 68.324219 15.273438 68.046875 15.25 Z M 68.773438 15.085938 C 69.480469 15.050781 70.1875 15.03125 70.898438 15.015625 C 72.1875 14.984375 73.476562 14.980469 74.769531 14.988281 C 74.269531 14.992188 73.769531 15.003906 73.273438 15.019531 C 71.46875 15.050781 69.667969 15.117188 67.875 15.238281 C 66.425781 15.109375 68.558594 15.097656 68.773438 15.085938 Z M 86.269531 14.808594 C 87.621094 14.746094 88.984375 14.761719 90.34375 14.78125 C 90.71875 14.789062 91.097656 14.796875 91.472656 14.800781 C 91.171875 14.816406 90.871094 14.832031 90.566406 14.84375 C 88.65625 14.839844 86.742188 14.851562 84.835938 14.894531 C 85.3125 14.855469 85.789062 14.828125 86.269531 14.808594 Z M 96.894531 14.691406 C 96.972656 14.6875 97.050781 14.691406 97.128906 14.6875 C 96.601562 14.714844 96.070312 14.726562 95.539062 14.734375 C 95.992188 14.714844 96.441406 14.699219 96.894531 14.691406 Z M 100.273438 14.890625 C 99.660156 14.910156 99.050781 14.925781 98.4375 14.941406 C 98.292969 14.941406 98.148438 14.941406 98.007812 14.941406 C 96.394531 14.90625 94.785156 14.875 93.171875 14.859375 C 93.328125 14.851562 93.488281 14.84375 93.644531 14.832031 C 95.144531 14.84375 96.644531 14.828125 98.128906 14.71875 C 98.160156 14.714844 98.175781 14.703125 98.179688 14.691406 C 98.433594 14.695312 98.6875 14.703125 98.941406 14.710938 C 99.21875 14.722656 99.914062 14.71875 100.269531 14.808594 C 100.273438 14.835938 100.277344 14.863281 100.273438 14.890625 Z M 69.492188 15.339844 C 72.039062 15.082031 74.671875 15.042969 77.308594 15.070312 C 74.703125 15.164062 72.101562 15.289062 69.492188 15.339844 Z M 88.089844 14.925781 C 87.410156 14.941406 86.726562 14.972656 86.039062 15.003906 C 85.546875 14.988281 85.050781 14.976562 84.558594 14.96875 C 84.414062 14.964844 84.265625 14.964844 84.117188 14.960938 C 84.128906 14.960938 84.144531 14.960938 84.15625 14.957031 C 85.851562 14.914062 87.550781 14.894531 89.25 14.890625 C 88.863281 14.902344 88.476562 14.914062 88.089844 14.925781 Z M 91.03125 14.972656 C 91.375 14.957031 91.71875 14.945312 92.066406 14.925781 C 92.191406 14.917969 92.316406 14.910156 92.445312 14.902344 C 93.328125 14.910156 94.214844 14.921875 95.097656 14.9375 C 93.742188 14.941406 92.386719 14.957031 91.03125 14.972656 Z M 72.628906 15.398438 C 72.417969 15.394531 72.203125 15.390625 71.992188 15.386719 C 74.207031 15.324219 76.417969 15.222656 78.632812 15.152344 C 76.636719 15.261719 74.632812 15.375 72.628906 15.398438 Z M 83.75 15.257812 C 81.652344 15.285156 79.566406 15.316406 77.484375 15.410156 C 77.460938 15.410156 77.433594 15.410156 77.40625 15.410156 C 76.34375 15.417969 75.277344 15.421875 74.210938 15.414062 C 76.152344 15.347656 78.09375 15.21875 80.011719 15.117188 C 81.109375 15.140625 82.207031 15.164062 83.289062 15.179688 C 84.097656 15.191406 84.90625 15.199219 85.714844 15.203125 C 85.519531 15.210938 85.324219 15.214844 85.132812 15.222656 C 84.742188 15.234375 84.351562 15.242188 83.964844 15.253906 C 83.890625 15.257812 83.820312 15.257812 83.75 15.257812 Z M 100.285156 14.496094 C 100.257812 14.550781 100.253906 14.609375 100.257812 14.671875 C 97.828125 14.382812 95.296875 14.582031 92.886719 14.726562 C 92.867188 14.726562 92.847656 14.730469 92.824219 14.730469 C 91.996094 14.71875 91.171875 14.703125 90.34375 14.691406 C 89.09375 14.675781 87.847656 14.675781 86.605469 14.71875 C 86.042969 14.738281 85.484375 14.773438 84.929688 14.820312 C 84.710938 14.835938 84.476562 14.871094 84.238281 14.910156 C 83.863281 14.917969 83.484375 14.925781 83.105469 14.9375 C 82.960938 14.941406 82.8125 14.949219 82.667969 14.953125 C 82.03125 14.953125 81.398438 14.960938 80.765625 14.972656 C 76.167969 14.910156 71.570312 14.828125 67.015625 15.144531 C 66.976562 15.148438 66.976562 15.183594 67.015625 15.191406 C 67.21875 15.214844 67.421875 15.234375 67.625 15.253906 C 67.167969 15.289062 66.710938 15.320312 66.257812 15.359375 C 66.246094 15.359375 66.25 15.371094 66.261719 15.371094 C 66.757812 15.332031 67.253906 15.300781 67.75 15.269531 C 68.042969 15.296875 68.332031 15.324219 68.625 15.34375 C 68.59375 15.347656 68.558594 15.351562 68.523438 15.355469 C 68.324219 15.359375 68.125 15.363281 67.921875 15.363281 C 67.84375 15.363281 67.828125 15.421875 67.878906 15.441406 C 67.824219 15.460938 67.824219 15.515625 67.898438 15.527344 C 70.164062 15.859375 72.46875 15.78125 74.738281 15.65625 C 75.59375 15.609375 76.445312 15.570312 77.296875 15.535156 C 79.523438 15.558594 81.746094 15.574219 83.96875 15.5625 C 87.085938 15.546875 90.191406 15.386719 93.304688 15.296875 C 94.335938 15.308594 95.367188 15.304688 96.390625 15.273438 C 97.941406 15.277344 99.496094 15.292969 101.050781 15.332031 C 101.222656 15.339844 101.214844 15.199219 101.050781 15.183594 C 100.914062 15.175781 100.78125 15.160156 100.648438 15.144531 C 100.648438 15.144531 100.652344 15.144531 100.652344 15.140625 C 100.671875 15.125 100.6875 15.113281 100.703125 15.097656 C 100.777344 15.097656 100.847656 15.09375 100.921875 15.09375 C 101.042969 15.089844 101.050781 14.988281 100.921875 14.984375 C 100.90625 14.984375 100.886719 14.984375 100.871094 14.984375 C 100.914062 14.945312 100.9375 14.902344 100.925781 14.820312 C 100.921875 14.789062 100.890625 14.753906 100.832031 14.746094 C 100.761719 14.734375 100.695312 14.726562 100.628906 14.71875 C 100.609375 14.644531 100.585938 14.574219 100.539062 14.5 C 100.5 14.429688 100.320312 14.417969 100.285156 14.496094 " fill-opacity="1" fill-rule="nonzero"/></g></g></g></g></g></g><g clip-path="url(#1ad68a2af7)"><path fill="#000000" d="M 23.023438 15.289062 C 21 15.25 18.980469 15.222656 16.957031 15.1875 C 18.492188 15.191406 20.023438 15.199219 21.558594 15.242188 C 22.046875 15.257812 22.535156 15.273438 23.023438 15.289062 Z M 33.570312 15.445312 C 34.25 15.457031 34.929688 15.492188 35.609375 15.539062 C 36.164062 15.578125 37.078125 15.808594 37.5625 15.761719 C 37.464844 15.769531 37.367188 15.777344 37.273438 15.785156 C 36.265625 15.75 35.257812 15.707031 34.25 15.664062 C 33.101562 15.597656 31.957031 15.542969 30.808594 15.503906 C 30.554688 15.492188 30.300781 15.484375 30.050781 15.472656 C 31.21875 15.445312 32.390625 15.425781 33.570312 15.445312 Z M 37.746094 16.003906 C 36.640625 16.027344 35.53125 16.035156 34.421875 16.027344 C 35.242188 16.007812 36.0625 15.972656 36.875 15.914062 C 37.164062 15.941406 37.457031 15.972656 37.746094 16.003906 Z M 36.984375 16.144531 C 36.246094 16.152344 35.507812 16.148438 34.765625 16.140625 C 33.425781 16.125 32.078125 16.082031 30.734375 16.03125 C 31.253906 16.042969 31.773438 16.046875 32.292969 16.050781 C 34.175781 16.082031 36.054688 16.078125 37.921875 16.023438 C 39.429688 16.203125 37.207031 16.140625 36.984375 16.144531 Z M 18.746094 15.796875 C 17.339844 15.8125 15.917969 15.746094 14.503906 15.675781 C 14.113281 15.65625 13.71875 15.636719 13.328125 15.617188 C 13.644531 15.613281 13.957031 15.609375 14.273438 15.609375 C 16.265625 15.683594 18.253906 15.734375 20.246094 15.761719 C 19.746094 15.785156 19.246094 15.792969 18.746094 15.796875 Z M 7.675781 15.535156 C 7.59375 15.535156 7.511719 15.53125 7.429688 15.527344 C 7.980469 15.523438 8.535156 15.527344 9.089844 15.539062 C 8.617188 15.542969 8.148438 15.542969 7.675781 15.535156 Z M 4.164062 15.214844 C 4.800781 15.21875 5.441406 15.222656 6.078125 15.226562 C 6.226562 15.234375 6.378906 15.238281 6.527344 15.246094 C 8.203125 15.339844 9.882812 15.425781 11.558594 15.5 C 11.394531 15.503906 11.230469 15.507812 11.066406 15.507812 C 9.503906 15.445312 7.941406 15.40625 6.390625 15.464844 C 6.355469 15.464844 6.34375 15.476562 6.335938 15.488281 C 6.074219 15.472656 5.808594 15.460938 5.542969 15.441406 C 5.253906 15.417969 4.53125 15.402344 4.164062 15.296875 C 4.160156 15.269531 4.160156 15.242188 4.164062 15.214844 Z M 36.242188 15.863281 C 33.582031 16.03125 30.835938 15.976562 28.09375 15.855469 C 30.808594 15.851562 33.523438 15.824219 36.242188 15.863281 Z M 16.855469 15.617188 C 17.5625 15.621094 18.277344 15.613281 18.996094 15.609375 C 19.507812 15.640625 20.023438 15.671875 20.535156 15.699219 C 20.6875 15.707031 20.839844 15.714844 20.992188 15.71875 C 20.980469 15.722656 20.96875 15.722656 20.957031 15.722656 C 19.1875 15.707031 17.417969 15.664062 15.644531 15.609375 C 16.046875 15.609375 16.453125 15.613281 16.855469 15.617188 Z M 13.796875 15.464844 C 13.4375 15.464844 13.074219 15.46875 12.714844 15.472656 C 12.582031 15.476562 12.449219 15.480469 12.320312 15.484375 C 11.398438 15.441406 10.476562 15.398438 9.554688 15.351562 C 10.96875 15.394531 12.382812 15.429688 13.796875 15.464844 Z M 32.980469 15.695312 C 33.199219 15.703125 33.421875 15.71875 33.640625 15.726562 C 31.332031 15.714844 29.023438 15.734375 26.714844 15.726562 C 28.800781 15.6875 30.890625 15.644531 32.980469 15.695312 Z M 21.390625 15.4375 C 23.574219 15.488281 25.75 15.527344 27.921875 15.507812 C 27.945312 15.511719 27.972656 15.511719 28 15.511719 C 29.109375 15.542969 30.222656 15.578125 31.332031 15.621094 C 29.304688 15.621094 27.28125 15.679688 25.28125 15.710938 C 24.132812 15.652344 22.992188 15.585938 21.867188 15.53125 C 21.023438 15.492188 20.183594 15.457031 19.339844 15.421875 C 19.542969 15.421875 19.746094 15.425781 19.949219 15.425781 C 20.355469 15.425781 20.761719 15.429688 21.167969 15.433594 C 21.242188 15.433594 21.316406 15.4375 21.390625 15.4375 Z M 4.136719 15.609375 C 4.167969 15.554688 4.171875 15.496094 4.171875 15.4375 C 6.695312 15.808594 9.335938 15.699219 11.851562 15.640625 C 11.871094 15.640625 11.894531 15.640625 11.917969 15.640625 C 12.777344 15.683594 13.640625 15.730469 14.5 15.769531 C 15.800781 15.832031 17.097656 15.875 18.394531 15.875 C 18.980469 15.875 19.5625 15.859375 20.140625 15.835938 C 20.371094 15.824219 20.617188 15.796875 20.867188 15.769531 C 21.261719 15.773438 21.652344 15.777344 22.046875 15.78125 C 22.199219 15.78125 22.351562 15.78125 22.507812 15.78125 C 23.167969 15.804688 23.828125 15.816406 24.488281 15.828125 C 29.273438 16.058594 34.0625 16.304688 38.816406 16.148438 C 38.855469 16.148438 38.855469 16.109375 38.816406 16.105469 C 38.605469 16.070312 38.398438 16.042969 38.1875 16.015625 C 38.664062 16 39.140625 15.984375 39.613281 15.960938 C 39.625 15.960938 39.621094 15.949219 39.609375 15.949219 C 39.089844 15.96875 38.574219 15.984375 38.054688 15.996094 C 37.753906 15.957031 37.449219 15.921875 37.144531 15.890625 C 37.179688 15.886719 37.21875 15.886719 37.253906 15.882812 C 37.460938 15.886719 37.671875 15.890625 37.878906 15.898438 C 37.964844 15.898438 37.980469 15.84375 37.925781 15.820312 C 37.984375 15.804688 37.984375 15.75 37.910156 15.734375 C 35.5625 15.320312 33.15625 15.316406 30.789062 15.359375 C 29.898438 15.375 29.007812 15.386719 28.121094 15.390625 C 25.804688 15.289062 23.488281 15.191406 21.171875 15.125 C 17.925781 15.03125 14.683594 15.078125 11.4375 15.054688 C 10.363281 15.007812 9.289062 14.976562 8.222656 14.972656 C 6.605469 14.914062 4.988281 14.839844 3.371094 14.746094 C 3.195312 14.734375 3.195312 14.875 3.367188 14.894531 C 3.507812 14.910156 3.644531 14.929688 3.78125 14.949219 C 3.78125 14.949219 3.777344 14.949219 3.777344 14.949219 C 3.757812 14.964844 3.742188 14.980469 3.722656 14.992188 C 3.648438 14.992188 3.570312 14.988281 3.496094 14.988281 C 3.371094 14.988281 3.359375 15.089844 3.492188 15.097656 C 3.507812 15.101562 3.527344 15.101562 3.546875 15.101562 C 3.5 15.136719 3.472656 15.179688 3.480469 15.261719 C 3.484375 15.292969 3.515625 15.328125 3.578125 15.339844 C 3.648438 15.351562 3.71875 15.363281 3.785156 15.375 C 3.804688 15.449219 3.828125 15.519531 3.871094 15.59375 C 3.910156 15.664062 4.097656 15.683594 4.136719 15.609375 " fill-opacity="1" fill-rule="nonzero"/></g></svg>