<svg xmlns="http://www.w3.org/2000/svg" xmlns:xlink="http://www.w3.org/1999/xlink" width="140" zoomAndPan="magnify" viewBox="0 0 104.88 30.000001" height="40" preserveAspectRatio="xMidYMid meet" version="1.0"><defs><clipPath id="00e56d4e37"><path d="M 1.632812 0 L 103.128906 0 L 103.128906 29.03125 L 1.632812 29.03125 Z M 1.632812 0 " clip-rule="nonzero"/></clipPath><clipPath id="8e25be9318"><path d="M 41.683594 6.226562 L 54 6.226562 L 54 17.839844 L 41.683594 17.839844 Z M 41.683594 6.226562 " clip-rule="nonzero"/></clipPath><clipPath id="57d17dec24"><path d="M 47 8 L 61 8 L 61 22 L 47 22 Z M 47 8 " clip-rule="nonzero"/></clipPath><clipPath id="9a8cca70db"><path d="M 58.019531 6.226562 L 63.25 19.765625 L 51.066406 24.476562 L 45.832031 10.9375 Z M 58.019531 6.226562 " clip-rule="nonzero"/></clipPath><clipPath id="d164379c59"><path d="M 58.019531 6.226562 L 63.25 19.765625 L 51.066406 24.476562 L 45.832031 10.9375 Z M 58.019531 6.226562 " clip-rule="nonzero"/></clipPath><clipPath id="bc85b62789"><path d="M 58.019531 6.226562 L 63.25 19.765625 L 51.066406 24.476562 L 45.832031 10.9375 Z M 58.019531 6.226562 " clip-rule="nonzero"/></clipPath><clipPath id="1e60bab3ce"><path d="M 62 13 L 102 13 L 102 15 L 62 15 Z M 62 13 " clip-rule="nonzero"/></clipPath><clipPath id="f7985abdd9"><path d="M 61.652344 13.921875 L 102.269531 12.46875 L 102.324219 13.921875 L 61.703125 15.371094 Z M 61.652344 13.921875 " clip-rule="nonzero"/></clipPath><clipPath id="aeffc99b43"><path d="M 61.652344 13.921875 L 102.269531 12.46875 L 102.324219 13.921875 L 61.703125 15.371094 Z M 61.652344 13.921875 " clip-rule="nonzero"/></clipPath><clipPath id="47947c251d"><path d="M 61.652344 13.921875 L 102.269531 12.46875 L 102.324219 13.921875 L 61.703125 15.371094 Z M 61.652344 13.921875 " clip-rule="nonzero"/></clipPath><clipPath id="d31164e589"><path d="M 62.035156 13.90625 L 101.917969 12.484375 L 101.96875 13.9375 L 62.089844 15.363281 Z M 62.035156 13.90625 " clip-rule="nonzero"/></clipPath><clipPath id="f90da9887c"><path d="M 62.035156 13.90625 L 101.886719 12.484375 L 101.9375 13.933594 L 62.089844 15.359375 Z M 62.035156 13.90625 " clip-rule="nonzero"/></clipPath><clipPath id="830d938721"><path d="M 2.863281 13.058594 L 41.308594 13.058594 L 41.308594 14.511719 L 2.863281 14.511719 Z M 2.863281 13.058594 " clip-rule="nonzero"/></clipPath></defs><g clip-path="url(#00e56d4e37)"><path fill="#ffffff" d="M 1.632812 0 L 103.246094 0 L 103.246094 29.03125 L 1.632812 29.03125 Z M 1.632812 0 " fill-opacity="1" fill-rule="nonzero"/><path fill="#ffffff" d="M 1.632812 0 L 103.246094 0 L 103.246094 29.03125 L 1.632812 29.03125 Z M 1.632812 0 " fill-opacity="1" fill-rule="nonzero"/></g><g clip-path="url(#8e25be9318)"><path fill="#000000" d="M 44.015625 7.914062 C 43.875 8.027344 43.746094 8.148438 43.628906 8.28125 C 43.683594 8.222656 43.742188 8.164062 43.804688 8.109375 C 43.855469 8.054688 43.925781 7.992188 44.015625 7.914062 M 43.445312 8.023438 C 43.351562 8.105469 43.269531 8.183594 43.195312 8.261719 C 43.121094 8.335938 43.054688 8.40625 43 8.476562 C 43.128906 8.332031 43.277344 8.179688 43.445312 8.023438 M 53.269531 10.734375 L 53.265625 10.761719 L 53.265625 10.785156 L 53.269531 10.808594 L 53.273438 10.835938 L 53.277344 10.859375 L 53.285156 10.886719 L 53.296875 10.914062 L 53.3125 10.941406 L 53.332031 10.96875 L 53.351562 11 L 53.378906 11.027344 L 53.40625 11.058594 C 53.367188 10.960938 53.320312 10.855469 53.269531 10.734375 M 47.78125 6.234375 L 47.703125 6.234375 C 46.054688 6.304688 44.636719 6.902344 43.449219 8.019531 C 44.695312 6.941406 46.09375 6.382812 47.648438 6.351562 C 48.457031 6.359375 49.144531 6.480469 49.714844 6.714844 C 50.5625 7.050781 51.242188 7.453125 51.753906 7.925781 C 52.121094 8.269531 52.398438 8.574219 52.582031 8.839844 C 52.125 8.207031 51.433594 7.660156 50.511719 7.195312 C 49.507812 6.742188 48.53125 6.515625 47.574219 6.515625 C 46.28125 6.488281 45.09375 6.957031 44.015625 7.910156 C 45.128906 7.035156 46.375 6.644531 47.753906 6.742188 C 49.355469 6.886719 50.699219 7.453125 51.785156 8.441406 C 52.375 8.992188 52.871094 9.757812 53.269531 10.734375 C 53.347656 10.488281 53.367188 10.335938 53.335938 10.289062 C 53.492188 10.753906 53.585938 11.242188 53.617188 11.746094 C 53.722656 13.167969 53.273438 14.511719 52.261719 15.769531 C 53.917969 13.921875 54.253906 11.863281 53.269531 9.59375 C 52.734375 8.511719 52.027344 7.71875 51.15625 7.21875 C 50.0625 6.574219 48.9375 6.246094 47.78125 6.234375 M 52.261719 15.773438 L 52.21875 15.816406 C 52.09375 15.949219 51.960938 16.085938 51.816406 16.222656 L 51.933594 16.128906 C 51.941406 16.125 51.964844 16.101562 52.007812 16.058594 C 52.042969 16.023438 52.082031 15.980469 52.125 15.933594 L 52.191406 15.855469 L 52.261719 15.773438 M 43.625 8.28125 L 43.523438 8.390625 C 42.359375 9.679688 41.839844 11.125 41.964844 12.730469 C 41.777344 12.042969 41.789062 11.320312 41.996094 10.566406 C 42.195312 9.769531 42.527344 9.074219 42.996094 8.480469 C 42.222656 9.355469 41.796875 10.480469 41.722656 11.847656 C 41.71875 12.09375 41.761719 12.402344 41.847656 12.773438 C 42.148438 13.832031 42.324219 14.394531 42.378906 14.457031 C 42.710938 15.207031 43.101562 15.789062 43.554688 16.199219 C 44.128906 16.734375 44.765625 17.132812 45.457031 17.398438 C 46.15625 17.6875 46.816406 17.824219 47.445312 17.8125 C 48.339844 17.792969 49.179688 17.660156 49.96875 17.417969 C 50.539062 17.214844 51.15625 16.816406 51.8125 16.222656 C 51.132812 16.761719 50.546875 17.105469 50.054688 17.253906 C 49.136719 17.503906 48.289062 17.621094 47.511719 17.609375 C 47.023438 17.644531 46.328125 17.46875 45.425781 17.085938 C 44.769531 16.800781 44.226562 16.449219 43.796875 16.035156 C 43.453125 15.695312 43.191406 15.378906 43.015625 15.082031 C 43.546875 15.710938 44.316406 16.3125 45.324219 16.882812 C 45.808594 17.152344 46.292969 17.34375 46.773438 17.457031 C 46.898438 17.484375 46.96875 17.496094 46.984375 17.488281 C 46.992188 17.484375 46.992188 17.480469 46.980469 17.46875 C 47.003906 17.484375 47.035156 17.46875 47.078125 17.429688 C 47.113281 17.386719 47.136719 17.34375 47.148438 17.300781 C 46.511719 17.289062 45.527344 16.859375 44.203125 16.015625 C 43.445312 15.457031 42.875 14.804688 42.496094 14.054688 C 42.132812 13.199219 42.054688 12.183594 42.261719 11.011719 C 42.410156 10.097656 42.867188 9.191406 43.625 8.28125 " fill-opacity="1" fill-rule="nonzero"/></g><g clip-path="url(#57d17dec24)"><g clip-path="url(#9a8cca70db)"><g clip-path="url(#d164379c59)"><g clip-path="url(#bc85b62789)"><path fill="#000000" d="M 57.1875 9.324219 C 57.011719 9.226562 56.832031 9.140625 56.648438 9.074219 C 56.730469 9.109375 56.816406 9.144531 56.898438 9.183594 C 56.972656 9.21875 57.070312 9.265625 57.1875 9.324219 M 56.847656 8.777344 C 56.722656 8.714844 56.605469 8.660156 56.496094 8.613281 C 56.386719 8.570312 56.285156 8.53125 56.1875 8.5 C 56.394531 8.574219 56.613281 8.667969 56.847656 8.777344 M 57.929688 20.0625 L 57.875 20.078125 L 57.851562 20.089844 L 57.824219 20.105469 L 57.800781 20.121094 L 57.777344 20.140625 L 57.753906 20.164062 L 57.707031 20.21875 L 57.6875 20.253906 L 57.664062 20.292969 L 57.644531 20.335938 C 57.730469 20.253906 57.824219 20.164062 57.929688 20.0625 M 60.457031 12.546875 L 60.425781 12.464844 C 59.691406 10.785156 58.5 9.558594 56.851562 8.78125 C 58.484375 9.636719 59.628906 10.859375 60.28125 12.457031 C 60.601562 13.296875 60.75 14.058594 60.730469 14.742188 C 60.71875 15.761719 60.566406 16.628906 60.273438 17.347656 C 60.0625 17.871094 59.851562 18.28125 59.644531 18.578125 C 60.128906 17.847656 60.429688 16.910156 60.542969 15.765625 C 60.617188 14.542969 60.464844 13.433594 60.082031 12.445312 C 59.589844 11.09375 58.628906 10.054688 57.191406 9.324219 C 58.558594 10.125 59.46875 11.257812 59.914062 12.722656 C 60.40625 14.441406 60.347656 16.0625 59.746094 17.589844 C 59.402344 18.429688 58.796875 19.25 57.929688 20.0625 C 58.222656 20.039062 58.386719 20.003906 58.425781 19.949219 C 58 20.300781 57.527344 20.597656 57.007812 20.832031 C 55.554688 21.519531 53.964844 21.597656 52.238281 21.0625 C 54.839844 22.03125 57.136719 21.542969 59.128906 19.597656 C 60.050781 18.601562 60.601562 17.550781 60.777344 16.441406 C 61.019531 15.050781 60.910156 13.75 60.457031 12.546875 M 52.234375 21.0625 L 52.171875 21.035156 C 51.980469 20.960938 51.785156 20.875 51.582031 20.78125 L 51.703125 20.851562 L 51.730469 20.867188 C 51.734375 20.871094 51.769531 20.886719 51.832031 20.914062 C 51.882812 20.9375 51.945312 20.960938 52.011719 20.984375 L 52.117188 21.023438 L 52.234375 21.0625 M 56.644531 9.070312 L 56.492188 9.007812 C 54.671875 8.324219 52.941406 8.375 51.304688 9.15625 C 51.957031 8.683594 52.71875 8.398438 53.59375 8.308594 C 54.511719 8.191406 55.375 8.253906 56.183594 8.5 C 54.953125 8.050781 53.605469 8.066406 52.136719 8.546875 C 51.878906 8.644531 51.570312 8.8125 51.214844 9.050781 C 50.222656 9.792969 49.703125 10.203125 49.65625 10.285156 C 49.003906 10.933594 48.550781 11.574219 48.296875 12.210938 C 47.96875 13.023438 47.800781 13.84375 47.800781 14.667969 C 47.777344 15.511719 47.898438 16.253906 48.164062 16.898438 C 48.539062 17.816406 49.015625 18.636719 49.589844 19.351562 C 50.027344 19.863281 50.691406 20.339844 51.582031 20.78125 C 50.742188 20.292969 50.148438 19.824219 49.792969 19.375 C 49.164062 18.523438 48.699219 17.695312 48.402344 16.882812 C 48.171875 16.390625 48.074219 15.601562 48.117188 14.511719 C 48.152344 13.714844 48.304688 13.007812 48.570312 12.394531 C 48.789062 11.902344 49.019531 11.503906 49.253906 11.199219 C 48.808594 12.003906 48.484375 13.046875 48.289062 14.324219 C 48.203125 14.933594 48.195312 15.511719 48.265625 16.058594 C 48.285156 16.199219 48.304688 16.273438 48.320312 16.289062 C 48.324219 16.296875 48.332031 16.292969 48.335938 16.277344 C 48.332031 16.304688 48.355469 16.335938 48.417969 16.359375 C 48.476562 16.378906 48.53125 16.386719 48.578125 16.382812 C 48.339844 15.714844 48.398438 14.523438 48.753906 12.808594 C 49.035156 11.796875 49.492188 10.941406 50.128906 10.242188 C 50.882812 9.519531 51.917969 9.027344 53.230469 8.761719 C 54.25 8.550781 55.386719 8.652344 56.644531 9.070312 " fill-opacity="1" fill-rule="nonzero"/></g></g></g></g><g clip-path="url(#1e60bab3ce)"><g clip-path="url(#f7985abdd9)"><g clip-path="url(#aeffc99b43)"><g clip-path="url(#47947c251d)"><g clip-path="url(#d31164e589)"><g clip-path="url(#f90da9887c)"><path fill="#000000" d="M 80.246094 14.164062 C 82.464844 14.125 84.679688 14.074219 86.894531 14.027344 C 85.214844 14.085938 83.535156 14.136719 81.855469 14.152344 C 81.320312 14.160156 80.78125 14.164062 80.246094 14.164062 Z M 68.691406 14.421875 C 67.945312 14.4375 67.199219 14.429688 66.453125 14.40625 C 65.84375 14.390625 64.835938 14.195312 64.308594 14.261719 C 64.410156 14.25 64.519531 14.238281 64.625 14.226562 C 65.726562 14.222656 66.832031 14.226562 67.9375 14.230469 C 69.195312 14.25 70.457031 14.257812 71.714844 14.257812 C 71.992188 14.257812 72.269531 14.257812 72.546875 14.253906 C 71.265625 14.328125 69.984375 14.394531 68.691406 14.421875 Z M 64.09375 14.027344 C 65.308594 13.960938 66.523438 13.910156 67.738281 13.871094 C 66.839844 13.925781 65.941406 13.992188 65.054688 14.085938 C 64.734375 14.066406 64.414062 14.046875 64.09375 14.027344 Z M 64.925781 13.855469 C 65.734375 13.820312 66.542969 13.796875 67.355469 13.773438 C 68.824219 13.734375 70.300781 13.730469 71.777344 13.726562 C 71.207031 13.734375 70.636719 13.75 70.066406 13.765625 C 68.003906 13.808594 65.949219 13.882812 63.902344 14.011719 C 62.246094 13.890625 64.683594 13.867188 64.925781 13.855469 Z M 84.914062 13.488281 C 86.453125 13.417969 88.015625 13.429688 89.566406 13.441406 C 89.996094 13.449219 90.425781 13.453125 90.855469 13.457031 C 90.511719 13.472656 90.167969 13.488281 89.820312 13.503906 C 87.636719 13.507812 85.453125 13.53125 83.273438 13.582031 C 83.816406 13.542969 84.367188 13.511719 84.914062 13.488281 Z M 97.046875 13.316406 C 97.136719 13.316406 97.226562 13.316406 97.316406 13.316406 C 96.714844 13.34375 96.109375 13.359375 95.5 13.371094 C 96.015625 13.347656 96.53125 13.328125 97.046875 13.316406 Z M 100.90625 13.5 C 100.207031 13.523438 99.507812 13.542969 98.808594 13.5625 C 98.644531 13.5625 98.480469 13.5625 98.316406 13.5625 C 96.476562 13.535156 94.636719 13.515625 92.796875 13.507812 C 92.976562 13.496094 93.15625 13.488281 93.335938 13.476562 C 95.050781 13.480469 96.761719 13.457031 98.460938 13.339844 C 98.496094 13.335938 98.511719 13.324219 98.515625 13.3125 C 98.808594 13.316406 99.097656 13.320312 99.386719 13.328125 C 99.703125 13.339844 100.496094 13.328125 100.902344 13.417969 C 100.90625 13.445312 100.910156 13.476562 100.90625 13.5 Z M 65.75 14.109375 C 68.65625 13.835938 71.664062 13.78125 74.675781 13.796875 C 71.699219 13.90625 68.730469 14.042969 65.75 14.109375 Z M 86.992188 13.597656 C 86.214844 13.617188 85.433594 13.652344 84.648438 13.6875 C 84.085938 13.675781 83.523438 13.664062 82.960938 13.65625 C 82.792969 13.65625 82.625 13.65625 82.453125 13.652344 C 82.46875 13.652344 82.484375 13.652344 82.496094 13.652344 C 84.433594 13.597656 86.375 13.570312 88.316406 13.558594 C 87.875 13.570312 87.433594 13.585938 86.992188 13.597656 Z M 90.347656 13.628906 C 90.742188 13.613281 91.136719 13.597656 91.53125 13.578125 C 91.675781 13.570312 91.820312 13.558594 91.964844 13.550781 C 92.976562 13.554688 93.984375 13.5625 94.996094 13.574219 C 93.445312 13.585938 91.898438 13.605469 90.347656 13.628906 Z M 69.328125 14.148438 C 69.085938 14.148438 68.84375 14.144531 68.601562 14.140625 C 71.132812 14.066406 73.660156 13.953125 76.1875 13.871094 C 73.90625 13.992188 71.617188 14.117188 69.328125 14.148438 Z M 82.03125 13.953125 C 79.636719 13.988281 77.253906 14.03125 74.875 14.136719 C 74.847656 14.136719 74.816406 14.136719 74.789062 14.136719 C 73.570312 14.148438 72.355469 14.15625 71.136719 14.15625 C 73.355469 14.082031 75.570312 13.941406 77.761719 13.828125 C 79.019531 13.847656 80.269531 13.867188 81.507812 13.875 C 82.429688 13.882812 83.355469 13.886719 84.277344 13.886719 C 84.054688 13.894531 83.832031 13.902344 83.609375 13.910156 C 83.167969 13.921875 82.722656 13.933594 82.277344 13.949219 C 82.195312 13.949219 82.113281 13.953125 82.03125 13.953125 Z M 100.921875 13.105469 C 100.890625 13.160156 100.886719 13.21875 100.890625 13.28125 C 98.113281 13.007812 95.222656 13.21875 92.472656 13.375 C 92.449219 13.375 92.425781 13.375 92.398438 13.378906 C 91.457031 13.371094 90.511719 13.359375 89.566406 13.351562 C 88.140625 13.339844 86.714844 13.347656 85.296875 13.398438 C 84.652344 13.421875 84.019531 13.460938 83.382812 13.507812 C 83.132812 13.523438 82.863281 13.5625 82.59375 13.601562 C 82.160156 13.613281 81.730469 13.621094 81.300781 13.636719 C 81.132812 13.640625 80.964844 13.648438 80.796875 13.652344 C 80.070312 13.65625 79.347656 13.667969 78.625 13.683594 C 73.371094 13.640625 68.121094 13.582031 62.921875 13.925781 C 62.875 13.925781 62.875 13.964844 62.921875 13.96875 C 63.152344 13.992188 63.382812 14.011719 63.613281 14.03125 C 63.09375 14.066406 62.570312 14.101562 62.050781 14.144531 C 62.039062 14.144531 62.046875 14.152344 62.058594 14.152344 C 62.625 14.113281 63.191406 14.078125 63.757812 14.042969 C 64.089844 14.074219 64.425781 14.097656 64.757812 14.117188 C 64.71875 14.121094 64.679688 14.125 64.640625 14.128906 C 64.414062 14.132812 64.183594 14.136719 63.953125 14.140625 C 63.863281 14.140625 63.847656 14.195312 63.90625 14.21875 C 63.84375 14.238281 63.84375 14.289062 63.925781 14.300781 C 66.511719 14.625 69.144531 14.535156 71.738281 14.398438 C 72.714844 14.347656 73.6875 14.300781 74.660156 14.261719 C 77.203125 14.273438 79.742188 14.277344 82.28125 14.257812 C 85.839844 14.226562 89.390625 14.050781 92.945312 13.945312 C 94.125 13.949219 95.300781 13.9375 96.472656 13.902344 C 98.242188 13.898438 100.015625 13.90625 101.789062 13.941406 C 101.988281 13.945312 101.980469 13.804688 101.792969 13.792969 C 101.636719 13.78125 101.484375 13.765625 101.332031 13.753906 C 101.335938 13.75 101.335938 13.75 101.339844 13.75 C 101.359375 13.734375 101.378906 13.71875 101.398438 13.707031 C 101.480469 13.703125 101.5625 13.703125 101.644531 13.699219 C 101.785156 13.695312 101.792969 13.59375 101.648438 13.589844 C 101.628906 13.589844 101.605469 13.589844 101.585938 13.589844 C 101.636719 13.550781 101.667969 13.507812 101.652344 13.429688 C 101.648438 13.394531 101.613281 13.363281 101.542969 13.351562 C 101.46875 13.34375 101.390625 13.335938 101.3125 13.328125 C 101.292969 13.253906 101.261719 13.183594 101.214844 13.109375 C 101.167969 13.039062 100.960938 13.03125 100.921875 13.105469 " fill-opacity="1" fill-rule="nonzero"/></g></g></g></g></g></g><g clip-path="url(#830d938721)"><path fill="#000000" d="M 23.769531 13.601562 C 21.632812 13.566406 19.496094 13.535156 17.359375 13.5 C 18.980469 13.503906 20.601562 13.515625 22.222656 13.558594 C 22.738281 13.570312 23.253906 13.585938 23.769531 13.601562 Z M 34.914062 13.761719 C 35.632812 13.769531 36.351562 13.804688 37.070312 13.855469 C 37.65625 13.894531 38.621094 14.121094 39.132812 14.074219 C 39.03125 14.085938 38.929688 14.089844 38.828125 14.097656 C 37.761719 14.0625 36.699219 14.023438 35.632812 13.980469 C 34.421875 13.910156 33.207031 13.859375 31.996094 13.816406 C 31.726562 13.808594 31.460938 13.796875 31.195312 13.789062 C 32.429688 13.761719 33.667969 13.742188 34.914062 13.761719 Z M 39.328125 14.320312 C 38.15625 14.34375 36.984375 14.347656 35.8125 14.34375 C 36.683594 14.320312 37.546875 14.285156 38.40625 14.226562 C 38.714844 14.253906 39.019531 14.285156 39.328125 14.320312 Z M 38.523438 14.457031 C 37.742188 14.46875 36.960938 14.460938 36.179688 14.453125 C 34.761719 14.441406 33.339844 14.394531 31.917969 14.34375 C 32.46875 14.355469 33.015625 14.363281 33.566406 14.363281 C 35.554688 14.398438 37.539062 14.394531 39.515625 14.339844 C 41.105469 14.519531 38.757812 14.457031 38.523438 14.457031 Z M 19.25 14.113281 C 17.765625 14.125 16.261719 14.0625 14.765625 13.992188 C 14.351562 13.972656 13.9375 13.953125 13.523438 13.933594 C 13.859375 13.929688 14.191406 13.925781 14.523438 13.921875 C 16.628906 13.996094 18.730469 14.050781 20.835938 14.078125 C 20.308594 14.097656 19.78125 14.109375 19.25 14.113281 Z M 7.550781 13.851562 C 7.464844 13.847656 7.378906 13.84375 7.292969 13.84375 C 7.875 13.835938 8.460938 13.84375 9.046875 13.851562 C 8.546875 13.855469 8.050781 13.855469 7.550781 13.851562 Z M 3.839844 13.527344 C 4.515625 13.53125 5.191406 13.535156 5.863281 13.542969 C 6.023438 13.546875 6.179688 13.554688 6.339844 13.558594 C 8.109375 13.652344 9.882812 13.738281 11.65625 13.8125 C 11.480469 13.816406 11.308594 13.820312 11.136719 13.824219 C 9.484375 13.757812 7.832031 13.722656 6.195312 13.777344 C 6.160156 13.777344 6.144531 13.789062 6.136719 13.800781 C 5.859375 13.789062 5.578125 13.773438 5.300781 13.753906 C 4.992188 13.734375 4.230469 13.714844 3.84375 13.613281 C 3.839844 13.582031 3.839844 13.554688 3.839844 13.527344 Z M 37.738281 14.175781 C 34.925781 14.347656 32.027344 14.292969 29.125 14.167969 C 31.996094 14.167969 34.863281 14.136719 37.738281 14.175781 Z M 17.253906 13.929688 C 18 13.9375 18.757812 13.929688 19.511719 13.925781 C 20.054688 13.957031 20.597656 13.984375 21.140625 14.011719 C 21.300781 14.019531 21.464844 14.027344 21.625 14.035156 C 21.613281 14.035156 21.597656 14.035156 21.585938 14.035156 C 19.714844 14.019531 17.84375 13.980469 15.972656 13.921875 C 16.398438 13.921875 16.824219 13.925781 17.253906 13.929688 Z M 14.019531 13.777344 C 13.640625 13.777344 13.257812 13.78125 12.878906 13.789062 C 12.738281 13.789062 12.597656 13.792969 12.457031 13.796875 C 11.484375 13.757812 10.511719 13.714844 9.539062 13.667969 C 11.03125 13.710938 12.527344 13.746094 14.019531 13.777344 Z M 34.289062 14.007812 C 34.523438 14.019531 34.757812 14.03125 34.992188 14.042969 C 32.546875 14.027344 30.109375 14.050781 27.671875 14.042969 C 29.875 14 32.082031 13.960938 34.289062 14.007812 Z M 22.042969 13.75 C 24.351562 13.800781 26.652344 13.84375 28.945312 13.824219 C 28.972656 13.824219 29 13.824219 29.03125 13.824219 C 30.203125 13.855469 31.375 13.890625 32.550781 13.9375 C 30.410156 13.933594 28.265625 13.996094 26.152344 14.027344 C 24.945312 13.964844 23.738281 13.902344 22.546875 13.847656 C 21.65625 13.804688 20.765625 13.769531 19.878906 13.734375 C 20.09375 13.738281 20.304688 13.738281 20.519531 13.738281 C 20.949219 13.742188 21.378906 13.746094 21.808594 13.746094 C 21.886719 13.75 21.964844 13.75 22.042969 13.75 Z M 3.8125 13.925781 C 3.847656 13.871094 3.851562 13.808594 3.851562 13.75 C 6.515625 14.121094 9.308594 14.015625 11.964844 13.957031 C 11.988281 13.957031 12.011719 13.957031 12.035156 13.957031 C 12.945312 13.996094 13.855469 14.042969 14.761719 14.082031 C 16.136719 14.144531 17.511719 14.1875 18.878906 14.1875 C 19.5 14.1875 20.113281 14.171875 20.726562 14.148438 C 20.96875 14.140625 21.226562 14.113281 21.492188 14.082031 C 21.90625 14.085938 22.324219 14.09375 22.738281 14.09375 C 22.898438 14.097656 23.0625 14.09375 23.222656 14.09375 C 23.921875 14.117188 24.621094 14.132812 25.316406 14.144531 C 30.375 14.371094 35.433594 14.617188 40.457031 14.460938 C 40.5 14.460938 40.5 14.425781 40.457031 14.417969 C 40.238281 14.386719 40.015625 14.359375 39.792969 14.332031 C 40.296875 14.316406 40.796875 14.296875 41.300781 14.273438 C 41.3125 14.273438 41.308594 14.265625 41.296875 14.265625 C 40.75 14.285156 40.199219 14.300781 39.652344 14.3125 C 39.332031 14.273438 39.011719 14.238281 38.691406 14.207031 C 38.730469 14.203125 38.769531 14.199219 38.804688 14.195312 C 39.027344 14.199219 39.246094 14.203125 39.46875 14.210938 C 39.558594 14.214844 39.574219 14.15625 39.519531 14.132812 C 39.578125 14.117188 39.582031 14.0625 39.5 14.050781 C 37.019531 13.636719 34.480469 13.628906 31.976562 13.671875 C 31.035156 13.691406 30.09375 13.699219 29.15625 13.707031 C 26.707031 13.601562 24.257812 13.507812 21.8125 13.4375 C 18.382812 13.34375 14.957031 13.390625 11.527344 13.371094 C 10.394531 13.324219 9.257812 13.292969 8.128906 13.285156 C 6.421875 13.226562 4.714844 13.15625 3.003906 13.058594 C 2.816406 13.046875 2.816406 13.1875 3 13.207031 C 3.148438 13.222656 3.292969 13.242188 3.4375 13.261719 C 3.4375 13.261719 3.433594 13.261719 3.433594 13.265625 C 3.414062 13.28125 3.394531 13.292969 3.375 13.304688 C 3.296875 13.304688 3.214844 13.304688 3.136719 13.304688 C 3.003906 13.304688 2.992188 13.40625 3.132812 13.414062 C 3.148438 13.414062 3.167969 13.414062 3.1875 13.414062 C 3.140625 13.453125 3.109375 13.496094 3.117188 13.574219 C 3.121094 13.609375 3.15625 13.640625 3.222656 13.652344 C 3.296875 13.664062 3.371094 13.675781 3.441406 13.6875 C 3.460938 13.761719 3.488281 13.835938 3.53125 13.910156 C 3.574219 13.980469 3.769531 13.996094 3.8125 13.925781 " fill-opacity="1" fill-rule="nonzero"/></g></svg>