<?xml version="1.0" encoding="UTF-8" standalone="no"?>
<svg
   xmlns:dc="http://purl.org/dc/elements/1.1/"
   xmlns:cc="http://creativecommons.org/ns#"
   xmlns:rdf="http://www.w3.org/1999/02/22-rdf-syntax-ns#"
   xmlns:svg="http://www.w3.org/2000/svg"
   xmlns="http://www.w3.org/2000/svg"
   xmlns:sodipodi="http://sodipodi.sourceforge.net/DTD/sodipodi-0.dtd"
   xmlns:inkscape="http://www.inkscape.org/namespaces/inkscape"
   width="210mm"
   height="67mm"
   viewBox="0 0 210 67"
   version="1.1"
   id="svg8"
   inkscape:version="1.0.2 (e86c8708, 2021-01-15)"
   sodipodi:docname="logo.svg">
  <defs
     id="defs2" />
  <sodipodi:namedview
     id="base"
     pagecolor="#ffffff"
     bordercolor="#666666"
     borderopacity="1.0"
     inkscape:pageopacity="0.0"
     inkscape:pageshadow="2"
     inkscape:zoom="0.35"
     inkscape:cx="400"
     inkscape:cy="560"
     inkscape:document-units="mm"
     inkscape:current-layer="layer1"
     inkscape:document-rotation="0"
     showgrid="false"
     inkscape:window-width="1252"
     inkscape:window-height="847"
     inkscape:window-x="0"
     inkscape:window-y="25"
     inkscape:window-maximized="0" />
  <metadata
     id="metadata5">
    <rdf:RDF>
      <cc:Work
         rdf:about="">
        <dc:format>image/svg+xml</dc:format>
        <dc:type
           rdf:resource="http://purl.org/dc/dcmitype/StillImage" />
        <dc:title></dc:title>
      </cc:Work>
    </rdf:RDF>
  </metadata>
  <g
     inkscape:label="Layer 1"
     inkscape:groupmode="layer"
     id="layer1">
    <g
       id="g24"
       transform="matrix(1.9580364,0,0,1.9580364,-58.667619,-61.57056)">
      <path
         style="fill:#cad3ca;stroke-width:0.176389"
         d="M 33.808865,62.523502 C 33.633513,62.411273 33.596703,59.567986 33.632476,48.899021 l 0.04521,-13.482655 7.276042,-0.04605 7.276041,-0.04605 0.0043,1.633554 c 0.0054,2.051934 0.238531,3.08184 0.843783,3.727847 1.202938,1.28394 3.258206,1.3169 4.406213,0.07066 0.221988,-0.240983 0.679796,-1.223556 1.01735,-2.183497 0.337555,-0.959941 0.738545,-2.084218 0.89109,-2.498395 l 0.277356,-0.753049 3.820572,0.04749 3.820564,0.04749 0.04686,4.882027 c 0.04355,4.536663 0.02483,4.88862 -0.264583,4.975211 -0.171297,0.05125 -1.065511,0.219867 -1.987143,0.3747 -2.56177,0.430376 -2.901692,0.55414 -3.578001,1.302732 -1.128857,1.249509 -1.040516,2.998185 0.208469,4.126567 0.376227,0.339898 0.911253,0.663761 1.188944,0.719694 0.277691,0.05593 1.219269,0.22583 2.092394,0.377549 0.873125,0.15172 1.767351,0.351219 1.987169,0.443333 l 0.39967,0.167477 -0.04689,4.897301 -0.04689,4.8973 -3.723813,0.04753 c -2.847163,0.03635 -3.764412,-0.0052 -3.896261,-0.176389 -0.09485,-0.123156 -0.508319,-1.184465 -0.918827,-2.358464 -0.950946,-2.719567 -1.236514,-3.180863 -2.245404,-3.627143 -1.408125,-0.622882 -3.054835,-0.08743 -3.833994,1.246671 -0.275673,0.472018 -0.371216,1.051717 -0.45051,2.73343 l -0.100635,2.134362 -7.055556,0.04253 c -3.880555,0.0234 -7.155273,-0.02128 -7.277151,-0.09929 z m 31.604204,-0.09411 c -0.08159,-0.212616 7.258216,-25.718547 7.684669,-26.704345 0.171203,-0.395756 0.183605,-0.396875 4.398391,-0.396875 2.324689,0 4.270432,0.07075 4.323876,0.157223 0.05344,0.08647 0.288928,1.195029 0.523302,2.463458 0.288275,1.560144 0.550024,2.480224 0.809092,2.84405 1.011959,1.421166 3.239068,1.564401 4.513206,0.290265 0.578538,-0.578538 0.734954,-1.09285 1.347925,-4.432079 l 0.226653,-1.234723 4.27978,-0.04724 4.279781,-0.04724 0.181176,0.400017 c 0.09965,0.220009 1.880526,6.270454 3.95751,13.445434 2.78484,9.620287 3.72668,13.10524 3.58724,13.273265 -0.14348,0.172875 -1.07661,0.227846 -3.8676,0.227846 -4.333641,0 -3.814632,0.310814 -4.929498,-2.952076 -0.619582,-1.813336 -0.84376,-2.254365 -1.402509,-2.75916 -1.142277,-1.031979 -2.791206,-1.013608 -3.946841,0.04397 -0.800094,0.732206 -0.992512,1.398171 -0.992512,3.43514 0,1.341539 -0.06524,1.890299 -0.242201,2.03716 -0.170843,0.141787 -1.587011,0.187127 -4.806597,0.15389 l -4.564396,-0.04712 -0.102133,-2.116667 c -0.110271,-2.285346 -0.322133,-2.946954 -1.152948,-3.600473 -1.474288,-1.159676 -3.653769,-0.760044 -4.447122,0.815428 -0.185115,0.367609 -0.638272,1.541503 -1.007018,2.608656 -0.368746,1.067153 -0.746148,2.039497 -0.838669,2.160764 -0.254445,0.333497 -7.684232,0.315833 -7.812557,-0.01857 z m 47.057531,0.02739 c -0.15861,-0.158607 -0.21167,-2.283873 -0.21167,-8.478263 0,-5.764645 -0.0599,-8.383206 -0.19794,-8.651876 -0.3016,-0.587047 -1.07346,-1.36826 -1.56595,-1.584918 -0.24253,-0.106699 -1.94909,-0.237617 -3.79236,-0.290929 l -3.35139,-0.09693 v -3.96875 -3.968751 h 14.81667 14.81667 v 3.968751 3.96875 l -3.43959,0.08888 c -3.59867,0.093 -4.06597,0.190532 -4.80028,1.001944 -0.82382,0.910309 -0.84416,1.146931 -0.84416,9.820746 0,7.304469 -0.0301,8.200442 -0.27901,8.295944 -0.15346,0.05889 -2.67758,0.107066 -5.60917,0.107066 -3.91049,0 -5.38653,-0.05637 -5.54182,-0.211666 z"
         id="path38" />
      <path
         style="fill:#b7c4b7;stroke-width:0.176389"
         d="m 33.847026,62.271576 c -0.04629,-0.121267 -0.06365,-6.213299 -0.03856,-13.537848 l 0.04561,-13.317362 6.946795,-0.04617 c 4.981202,-0.0331 7.015001,0.01044 7.187848,0.15389 0.175294,0.145481 0.241051,0.696272 0.241051,2.019058 0,2.057536 0.140683,2.569796 0.930669,3.388779 1.380357,1.43103 3.906394,1.066986 4.817156,-0.694231 0.146903,-0.284081 0.547144,-1.326345 0.889423,-2.316142 0.983677,-2.84458 0.536137,-2.593382 4.620429,-2.593382 2.478042,0 3.549742,0.06131 3.700101,0.211667 0.331923,0.331924 0.298496,9.198076 -0.03573,9.475454 -0.136064,0.112924 -1.17966,0.364792 -2.319099,0.559703 -2.613815,0.44712 -3.298023,0.80239 -3.937856,2.044706 -0.35301,0.685415 -0.244944,2.227559 0.202643,2.89173 0.677062,1.004694 1.355598,1.326427 3.697683,1.75329 1.189677,0.216828 2.262268,0.473276 2.383536,0.569884 0.166214,0.132417 0.219821,1.288322 0.217785,4.696067 -0.0014,2.48623 -0.06672,4.621289 -0.144972,4.744578 -0.109275,0.172171 -0.997791,0.213081 -3.830966,0.176388 l -3.688693,-0.04777 -0.842342,-2.38125 c -0.933364,-2.638561 -1.186425,-3.072383 -2.079336,-3.564596 -0.905587,-0.499202 -2.563094,-0.374759 -3.38791,0.254358 -0.955019,0.728428 -1.192525,1.416488 -1.192525,3.45476 0,0.971797 -0.04818,1.892457 -0.107066,2.045912 -0.09516,0.247975 -0.89042,0.279011 -7.149286,0.279011 -5.471293,0 -7.060995,-0.04919 -7.126388,-0.220487 z m 31.750745,0.0339 c -0.172307,-0.2788 7.494147,-26.488156 7.826592,-26.75682 0.418419,-0.338145 7.8493,-0.312501 8.190064,0.02826 0.136813,0.136812 0.387971,1.109156 0.55813,2.160764 0.553505,3.42075 1.186661,4.205071 3.394622,4.205071 2.145414,0 2.826693,-0.837725 3.339269,-4.106086 0.174789,-1.114515 0.426272,-2.134865 0.558851,-2.267445 0.334929,-0.334928 8.018723,-0.353994 8.288665,-0.02057 0.271354,0.335171 7.828306,26.582058 7.709026,26.775061 -0.16607,0.268696 -7.4086,0.219144 -7.620939,-0.05214 -0.09492,-0.121267 -0.516422,-1.204459 -0.936676,-2.407093 -1.055689,-3.021049 -1.719465,-3.722421 -3.52289,-3.722421 -0.997779,0 -1.427572,0.169769 -2.175679,0.8594 -0.733651,0.676302 -0.863242,1.122587 -0.979726,3.373934 l -0.104953,2.028472 -4.626114,0.04702 -4.626115,0.04702 -0.08727,-0.399797 c -0.048,-0.219888 -0.109372,-1.247519 -0.136386,-2.283624 -0.04118,-1.579338 -0.107895,-1.962467 -0.412791,-2.370353 -0.685558,-0.91713 -1.242143,-1.19852 -2.508281,-1.268096 -1.08968,-0.05988 -1.243577,-0.02245 -1.913469,0.465393 -0.764164,0.556495 -1.003656,1.043764 -2.138673,4.351329 l -0.484233,1.411111 -3.735709,0.04757 c -2.568645,0.03271 -3.773074,-0.01289 -3.855314,-0.145959 z m 46.957609,0.07146 c -0.066,-0.06603 -0.12006,-3.792603 -0.12006,-8.281265 0,-5.337406 -0.0649,-8.33301 -0.18761,-8.657755 -0.10319,-0.273104 -0.40084,-0.721919 -0.66146,-0.99737 -0.88714,-0.93763 -1.16736,-0.998488 -4.59763,-0.998488 -2.64768,0 -3.21691,-0.04575 -3.44834,-0.277182 -0.23302,-0.233026 -0.27718,-0.824966 -0.27718,-3.715763 0,-2.032984 0.0746,-3.578046 0.18259,-3.779762 0.17827,-0.333084 0.52797,-0.341182 14.73284,-0.341182 h 14.55024 l 0.18214,0.47906 c 0.21431,0.563662 0.14935,7.17776 -0.0727,7.40006 -0.0805,0.08062 -1.71417,0.186262 -3.63035,0.234769 l -3.48397,0.08819 -0.64726,0.494187 c -1.29923,0.991974 -1.2541,0.658227 -1.35244,10.000952 l -0.0882,8.378473 -5.48029,0.04656 c -3.01416,0.02561 -5.53431,-0.0075 -5.60035,-0.07349 z"
         id="path36" />
      <path
         style="fill:#9aac9a;stroke-width:0.176389"
         d="m 33.8478,62.273605 c -0.04672,-0.122384 -0.06442,-6.17564 -0.03934,-13.451682 l 0.04561,-13.229168 7.099653,-0.0461 7.099652,-0.0461 0.0042,1.633598 c 0.0069,2.673386 0.351959,3.556602 1.68807,4.320628 1.292673,0.739187 3.33308,0.357452 4.065681,-0.76064 0.162285,-0.247677 0.669928,-1.496813 1.128097,-2.775856 l 0.833028,-2.325534 3.728018,-0.04761 3.728018,-0.04761 -0.04694,4.810114 -0.04694,4.810114 -2.263796,0.389304 c -1.245087,0.214117 -2.514817,0.535909 -2.821622,0.715091 -2.001404,1.168884 -1.946977,4.385007 0.09205,5.43943 0.387291,0.200277 4.527405,1.129092 5.032828,1.129092 0.02992,0 0.03328,2.162969 0.0075,4.806598 l -0.04693,4.806597 -3.505126,0.0479 c -2.291914,0.03132 -3.583566,-0.0172 -3.73175,-0.140186 -0.124645,-0.103445 -0.569935,-1.196563 -0.989534,-2.429147 -0.893334,-2.624193 -1.450566,-3.387835 -2.734406,-3.747287 -1.455436,-0.407497 -2.857789,0.176343 -3.617863,1.506222 -0.333883,0.584182 -0.41938,1.054504 -0.497009,2.734028 l -0.09376,2.028472 -7.016216,0.04613 c -5.518597,0.03628 -7.034349,-0.0014 -7.101167,-0.176389 z m 31.798644,-0.002 c -0.07875,-0.207789 7.235661,-25.521008 7.61982,-26.37014 0.178657,-0.3949 0.199783,-0.396875 4.244641,-0.396875 4.692695,0 4.20181,-0.227095 4.575359,2.116667 0.362216,2.272648 0.65644,3.086403 1.329644,3.677484 0.877039,0.77005 1.852062,1.029898 2.856466,0.761261 1.6717,-0.447112 2.169541,-1.215281 2.694207,-4.157154 0.205953,-1.154813 0.415983,-2.166844 0.466733,-2.248959 0.05075,-0.08212 1.949824,-0.149299 4.220168,-0.149299 h 4.127895 l 0.245909,0.837847 c 3.639164,12.399113 7.377054,25.654806 7.294734,25.869341 -0.0933,0.243217 -0.56933,0.279955 -3.59679,0.277613 -1.919067,-0.0014 -3.583304,-0.06253 -3.698302,-0.135657 -0.114997,-0.07313 -0.571735,-1.163317 -1.01497,-2.422647 -0.935168,-2.657017 -1.167985,-3.031402 -2.219129,-3.56851 -0.881495,-0.450421 -1.54989,-0.487881 -2.521615,-0.141321 -1.568168,0.55928 -2.051595,1.545141 -2.057019,4.194906 -0.0037,1.815041 -0.02018,1.896812 -0.400749,1.989977 -0.218281,0.05344 -2.301874,0.07479 -4.630208,0.04746 l -4.233333,-0.0497 -0.104953,-2.028472 c -0.05772,-1.11566 -0.187803,-2.228706 -0.289066,-2.473437 -0.297678,-0.719423 -1.252088,-1.529376 -2.072965,-1.759207 -1.203108,-0.33685 -2.161609,-0.09164 -3.014602,0.771216 -0.60065,0.607595 -0.84264,1.090357 -1.469258,2.931116 -0.412595,1.212046 -0.832944,2.303452 -0.93411,2.425348 -0.263941,0.318031 -7.297995,0.319115 -7.418507,0.0011 z m 46.993996,-0.0095 c -0.13485,-0.162474 -0.2102,-2.821314 -0.24417,-8.615372 l -0.0491,-8.380367 -0.49419,-0.647746 c -0.88385,-1.158488 -1.22831,-1.25211 -4.97387,-1.351866 l -3.35139,-0.08926 v -3.792361 -3.792362 h 14.64028 14.64028 v 3.792362 3.792361 l -3.35139,0.08819 c -3.08686,0.08123 -3.40732,0.120263 -4.05998,0.494469 -0.38972,0.22345 -0.90565,0.693765 -1.14652,1.045144 l -0.43795,0.63887 -0.0882,8.479855 -0.0882,8.479858 -5.40028,0.04661 c -4.32682,0.03735 -5.43904,-1.01e-4 -5.5953,-0.188389 z"
         id="path34" />
      <path
         style="fill:#6f896f;stroke-width:0.176389"
         d="m 33.873714,62.038671 c -0.05931,-0.154559 -0.107836,-6.098869 -0.107836,-13.209576 0,-10.716719 0.04124,-12.962791 0.241081,-13.128641 0.172799,-0.143409 2.183685,-0.186997 7.099653,-0.153889 l 6.858571,0.04619 0.08819,2.130247 c 0.08001,1.932646 0.131729,2.195967 0.557523,2.838752 0.613345,0.925912 1.546003,1.381309 2.815252,1.374626 1.734389,-0.0091 2.613115,-0.934365 3.511924,-3.697791 0.220877,-0.679098 0.546004,-1.573717 0.722503,-1.988043 l 0.320906,-0.75332 3.57657,0.04777 3.576572,0.04776 0.04703,4.632654 0.04703,4.632653 -0.399808,0.165188 c -0.219895,0.09086 -1.233246,0.297768 -2.251892,0.459807 -1.018645,0.16204 -2.146315,0.443659 -2.505932,0.625819 -1.990213,1.008126 -2.075852,4.391779 -0.139802,5.523726 0.339494,0.198492 1.649137,0.562744 2.910318,0.809449 l 2.293055,0.448553 v 4.668438 4.668437 l -3.515125,0.04793 c -2.206293,0.03008 -3.581732,-0.01868 -3.694012,-0.130956 -0.09839,-0.09839 -0.521083,-1.151832 -0.939322,-2.340986 -1.036856,-2.948028 -1.587334,-3.619149 -3.10926,-3.790693 -1.17515,-0.132457 -1.987163,0.07643 -2.687514,0.691346 -0.939354,0.824761 -1.036558,1.11676 -1.134073,3.406692 l -0.09014,2.116667 -6.991817,0.0461 c -6.260985,0.04128 -7.003088,0.01672 -7.099652,-0.234913 z m 31.818552,0.09406 c 0,-0.401477 7.599894,-26.169334 7.783583,-26.390667 0.275479,-0.331931 7.783722,-0.34781 8.047957,-0.01702 0.09687,0.121268 0.315752,1.053924 0.48641,2.07257 0.170658,1.018646 0.448874,2.178193 0.618262,2.576771 1.052777,2.477253 4.878835,2.434541 5.865128,-0.06548 0.143037,-0.362567 0.401629,-1.49265 0.574647,-2.511296 0.17302,-1.018646 0.392634,-1.952764 0.488036,-2.075819 0.133015,-0.171573 1.103351,-0.212697 4.162007,-0.176389 l 3.988553,0.04735 3.829641,13.227169 c 2.1063,7.274942 3.76751,13.289288 3.69159,13.365211 -0.0759,0.07592 -1.74919,0.116512 -3.71836,0.09019 l -3.580328,-0.04785 -0.82429,-2.293056 c -0.453358,-1.26118 -0.959129,-2.496322 -1.123931,-2.744759 -0.844975,-1.273777 -2.959754,-1.620584 -4.382013,-0.718614 -1.154163,0.731949 -1.435902,1.442669 -1.53142,3.863182 l -0.07842,1.987307 -4.519706,-0.04703 -4.519706,-0.04703 -0.09014,-2.116667 c -0.09752,-2.289932 -0.19472,-2.581931 -1.134073,-3.406692 -0.700351,-0.614916 -1.512364,-0.823803 -2.687514,-0.691346 -1.521783,0.171526 -2.128208,0.916669 -3.127762,3.843213 -0.379216,1.110292 -0.765967,2.117933 -0.859444,2.2392 -0.21983,0.285183 -7.358708,0.321607 -7.358708,0.03755 z m 47.004814,-0.03755 c -0.044,-0.121267 -0.10101,-3.917332 -0.12675,-8.4357 l -0.0468,-8.215214 -0.47344,-0.715153 c -0.84053,-1.269685 -1.5162,-1.463448 -5.10323,-1.463448 -2.1635,0 -3.14721,-0.06318 -3.2957,-0.211666 -0.15023,-0.150231 -0.21166,-1.215124 -0.21166,-3.668889 0,-2.453766 0.0614,-3.518659 0.21166,-3.66889 0.30659,-0.306582 28.72703,-0.306582 29.03362,0 0.15023,0.150231 0.21166,1.215124 0.21166,3.66889 0,2.453765 -0.0614,3.518658 -0.21166,3.668889 -0.14881,0.148803 -1.14583,0.211666 -3.35706,0.211666 -2.27842,0 -3.30183,0.06694 -3.71299,0.24286 -0.68641,0.293697 -1.44759,1.07727 -1.7029,1.752998 -0.1225,0.324217 -0.18761,3.272979 -0.18761,8.496338 0,4.399882 -0.0482,8.125341 -0.10707,8.278795 -0.0944,0.245961 -0.74273,0.279011 -5.47359,0.279011 -4.13299,0 -5.3849,-0.05068 -5.44647,-0.220487 z"
         id="path32" />
      <path
         style="fill:#4e6e4d;stroke-width:0.176389"
         d="m 34.061901,62.200123 c -0.0658,-0.0658 -0.119634,-6.05953 -0.119634,-13.319405 V 35.68095 h 6.948324 6.948324 l 0.06652,1.984375 c 0.05581,1.664987 0.131367,2.098423 0.469407,2.69296 0.560868,0.986436 1.434749,1.540183 2.580554,1.635202 2.166006,0.179622 2.966972,-0.571012 4.121616,-3.862616 l 0.828456,-2.361727 3.573418,-0.04776 3.573417,-0.04776 -0.04703,4.63387 -0.04703,4.63387 -1.763888,0.302383 c -0.970139,0.166312 -2.023555,0.348822 -2.340924,0.405577 -1.705055,0.304914 -2.939191,2.698291 -2.275865,4.413613 0.55995,1.448002 1.328762,1.937804 3.734844,2.379434 1.067153,0.195873 2.120186,0.395899 2.340074,0.444503 l 0.399796,0.08837 -0.04702,4.626115 -0.04702,4.626114 -3.351388,0.04352 c -1.843264,0.02393 -3.436001,-0.01575 -3.539416,-0.08819 -0.103415,-0.07244 -0.531961,-1.109866 -0.952324,-2.305389 -0.918612,-2.61256 -1.266365,-3.172141 -2.293934,-3.691254 -1.667663,-0.842477 -3.669552,-0.20287 -4.554613,1.455209 -0.189429,0.354878 -0.314627,1.197268 -0.380116,2.557639 l -0.09765,2.028472 -6.803629,0.04614 c -3.741996,0.02538 -6.857465,-0.0077 -6.923264,-0.0735 z m 31.806754,-0.183296 c 0,-0.164365 1.637582,-5.899209 3.639072,-12.744098 2.00149,-6.844888 3.711783,-12.70322 3.800653,-13.018515 l 0.16158,-0.573264 h 4.048652 c 2.22676,0 4.048654,0.04341 4.048654,0.09647 0,0.660051 0.82054,4.376303 1.077484,4.879952 0.73086,1.432606 2.715182,2.093838 4.248319,1.415659 1.406927,-0.622351 1.752995,-1.302619 2.399328,-4.716391 l 0.300563,-1.5875 3.998087,-0.04737 3.998087,-0.04737 0.188218,0.576538 c 0.89668,2.74666 7.411278,25.67236 7.344518,25.846315 -0.0673,0.175348 -0.86721,0.215198 -3.57446,0.178064 l -3.487783,-0.04784 -0.578702,-1.5875 c -0.318287,-0.873125 -0.706538,-1.937036 -0.862783,-2.364244 -0.567553,-1.551829 -1.814901,-2.482699 -3.33048,-2.485466 -0.817633,-0.0014 -2.223042,0.785567 -2.724563,1.525818 -0.393336,0.58057 -0.450499,0.880996 -0.529166,2.781136 l -0.08819,2.130256 h -4.409722 -4.409722 l -0.09765,-2.028472 c -0.06549,-1.360371 -0.190687,-2.202761 -0.380116,-2.557639 -0.885061,-1.658079 -2.88695,-2.297686 -4.554613,-1.455209 -1.008396,0.509426 -1.371784,1.076354 -2.193124,3.421529 -1.046242,2.987327 -0.572077,2.707986 -4.596615,2.707986 -3.111262,0 -3.435518,-0.02821 -3.435518,-0.298847 z m 47.007515,0.08099 c -0.0436,-0.122715 -0.10109,-3.874368 -0.12776,-8.337007 -0.0532,-8.891678 -0.0172,-8.585975 -1.13519,-9.647935 -0.94868,-0.901129 -1.53551,-1.023594 -4.90487,-1.023594 h -3.09247 V 39.385117 35.68095 h 14.55208 14.55208 v 3.704167 3.704166 l -3.04271,9.88e-4 c -3.31123,0.0011 -4.0736,0.128851 -4.89564,0.820556 -1.17169,0.985908 -1.13666,0.703762 -1.23387,9.938179 l -0.0882,8.378473 -5.2521,0.04673 c -4.10912,0.03656 -5.26934,-0.0018 -5.33136,-0.176389 z"
         id="path30" />
      <path
         style="fill:#2e532c;stroke-width:0.176389"
         d="m 34.161629,48.956287 0.04522,-13.187143 h 6.790972 6.790972 l 0.09014,2.116667 c 0.09467,2.223083 0.186613,2.527188 0.997113,3.297935 1.738432,1.653164 4.451775,1.202578 5.520099,-0.916685 0.171167,-0.339549 0.570932,-1.411111 0.888366,-2.38125 0.317433,-0.970139 0.657023,-1.864783 0.754641,-1.988098 0.134933,-0.170449 0.985709,-0.212742 3.548289,-0.176388 l 3.370798,0.04782 0.04725,4.397752 c 0.02598,2.418763 -0.01997,4.464968 -0.102126,4.547125 -0.08216,0.08216 -1.08748,0.309845 -2.234057,0.505979 -2.270084,0.38832 -2.764589,0.579091 -3.46625,1.337216 -0.713489,0.770904 -0.918277,1.296028 -0.917285,2.352139 0.0011,1.14146 0.326428,1.852054 1.198638,2.617864 0.703465,0.61765 0.808336,0.652272 3.533553,1.166548 l 1.940277,0.36615 v 4.495586 4.495587 l -3.460675,0.04775 -3.460678,0.04775 -0.752015,-2.164417 c -0.413607,-1.190428 -0.939985,-2.460504 -1.169728,-2.82239 -1.04345,-1.643618 -3.662308,-1.899308 -5.241976,-0.511796 -0.706774,0.620801 -0.905752,1.294853 -0.996177,3.374632 l -0.08819,2.028472 -6.836193,0.04617 -6.836192,0.04617 z m 31.71145,13.1389 c 0.0024,-0.02425 1.734386,-5.957535 3.848784,-13.18507 l 3.844363,-13.140973 3.908121,-0.04746 3.90812,-0.04746 0.09507,0.400238 c 0.05229,0.220131 0.248282,1.262907 0.435543,2.31728 0.395515,2.226951 0.857428,3.083227 1.969186,3.650403 1.431569,0.730333 3.448925,0.348552 4.37426,-0.827819 0.44508,-0.565828 0.798576,-1.763425 1.086612,-3.681292 0.116559,-0.776111 0.289704,-1.51033 0.384765,-1.631597 0.128628,-0.164089 1.134682,-0.220486 3.933192,-0.220486 2.068193,0 3.797783,0.06056 3.843532,0.134586 0.144452,0.233729 7.522363,25.80948 7.522363,26.076501 0,0.215014 -0.54156,0.247253 -3.47535,0.206879 l -3.475348,-0.04783 -0.825254,-2.349757 c -0.83589,-2.380039 -1.316971,-3.148606 -2.278215,-3.639639 -1.344367,-0.686744 -3.090703,-0.357985 -4.113787,0.774448 -0.793154,0.877926 -0.999278,1.634979 -1.000506,3.674627 l -9.84e-4,1.634679 -4.365625,-0.04718 -4.365625,-0.04718 -0.08819,-2.028472 c -0.09815,-2.257353 -0.312691,-2.859832 -1.278634,-3.590595 -1.410756,-1.067279 -3.333988,-0.969005 -4.534708,0.231715 -0.526048,0.526048 -0.81525,1.117019 -1.499252,3.06366 l -0.84748,2.411887 H 69.37334 c -1.927576,0 -3.502695,-0.01984 -3.500261,-0.0441 z M 112.7881,54.01973 c 0,-8.851758 -3.5e-4,-8.855395 -1.02359,-9.93139 -0.82234,-0.86475 -1.01125,-0.906388 -4.53266,-0.999057 l -3.35139,-0.08819 -0.0477,-3.66007 -0.0477,-3.660069 h 14.38285 14.38285 l -0.0477,3.660069 -0.0477,3.66007 -3.35139,0.08819 c -3.70456,0.09749 -4.09844,0.200009 -4.91245,1.278635 -0.77477,1.026631 -0.81817,1.549874 -0.8192,9.877963 l -9.9e-4,7.893404 h -5.29166 -5.29167 z"
         id="path28" />
      <path
         style="fill:#1f471d;stroke-width:0.176389"
         d="M 34.295044,48.910117 V 35.857339 h 6.687599 6.687598 l 0.0602,1.984375 c 0.07271,2.396548 0.355704,3.112118 1.523758,3.852876 1.513793,0.960019 3.222555,0.831166 4.472252,-0.337242 0.586306,-0.548167 0.827232,-1.020257 1.54662,-3.030565 l 0.85213,-2.38125 3.372421,-0.04791 3.37242,-0.04791 v 4.410171 4.410171 l -0.396875,0.08888 c -0.218281,0.04888 -1.150938,0.213501 -2.072569,0.36582 -0.921632,0.152317 -2.004179,0.434127 -2.405657,0.626241 -2.240914,1.072316 -2.482554,4.723262 -0.403668,6.099006 0.476492,0.315327 1.35428,0.579774 2.977241,0.896941 l 2.301528,0.449776 v 4.383086 4.383086 H 59.46797 56.065896 l -0.58933,-1.807986 c -0.628888,-1.929353 -1.113303,-3.017514 -1.578809,-3.546548 -1.129374,-1.283499 -3.751779,-1.314773 -5.115588,-0.06101 -0.8043,0.739403 -1.07348,1.640475 -1.077696,3.607554 l -0.0039,1.807986 h -6.702778 -6.702778 z m 31.804682,12.811922 c 0.132989,-0.346564 7.53004,-25.667699 7.53004,-25.776375 0,-0.04858 1.732432,-0.08832 3.84985,-0.08832 h 3.84985 l 0.306673,1.807986 c 0.390366,2.3014 0.576444,2.90368 1.123107,3.635172 1.171892,1.568117 4.092785,1.663398 5.458281,0.178051 0.584241,-0.635519 0.856039,-1.450203 1.213336,-3.636834 l 0.324246,-1.984375 h 3.831693 c 3.495643,0 3.839977,0.02707 3.926173,0.30868 0.05197,0.169774 1.687317,5.825244 3.634115,12.567709 1.94679,6.742466 3.61206,12.47731 3.70059,12.744098 l 0.16096,0.48507 h -3.40732 -3.407313 l -0.831554,-2.366562 c -1.172839,-3.33785 -2.026796,-4.115878 -4.334338,-3.948965 -1.312302,0.09492 -2.297113,0.742026 -2.841872,1.867348 -0.298957,0.617564 -0.40806,1.226802 -0.470295,2.626143 l -0.08103,1.822036 H 85.4247 81.214488 v -1.769555 c 0,-1.888707 -0.225935,-2.733192 -0.93446,-3.492773 -1.433192,-1.536466 -4.244409,-1.439202 -5.477609,0.189519 -0.239408,0.316191 -0.779787,1.567079 -1.200845,2.779753 l -0.765558,2.204861 -3.415847,0.04798 c -2.880007,0.04045 -3.40088,0.009 -3.320443,-0.20064 z M 112.927,53.716715 c -0.0558,-9.067191 -0.0253,-8.81016 -1.1702,-9.877472 -0.79993,-0.745727 -1.2318,-0.832327 -4.61315,-0.925055 l -3.26319,-0.08949 -0.0478,-3.483681 -0.0478,-3.48368 h 14.38315 14.38315 l -0.0478,3.48368 -0.0478,3.483681 -3.35139,0.08819 c -3.56979,0.09394 -3.96554,0.183716 -4.78596,1.085672 -1.05621,1.161173 -1.02998,0.9252 -1.09009,9.806342 l -0.0552,8.157987 h -5.09755 -5.09755 z"
         id="path26" />
    </g>
  </g>
</svg>
